<svg width="1848" height="730" viewBox="0 0 1848 730" fill="none" xmlns="http://www.w3.org/2000/svg">
<mask id="mask0_1740_1366" style="mask-type:alpha" maskUnits="userSpaceOnUse" x="97" y="39" width="1604" height="638">
<path d="M260.782 282.96V39.0859H333.05V282.96C333.05 306.486 327.894 326.708 317.581 343.627C307.269 360.385 293.169 373.275 275.284 382.299C257.559 391.322 237.579 395.834 215.342 395.834C192.3 395.834 171.917 391.967 154.192 384.232C136.468 376.498 122.53 364.655 112.378 348.703C102.227 332.589 97.1514 312.206 97.1514 287.553H169.903C169.903 300.443 171.675 310.675 175.22 318.249C178.926 325.822 184.163 331.22 190.931 334.442C197.698 337.665 205.835 339.276 215.342 339.276C224.527 339.276 232.503 337.101 239.271 332.75C246.038 328.4 251.275 322.035 254.981 313.656C258.848 305.277 260.782 295.045 260.782 282.96ZM589.251 39.0859H661.519V271.601C661.519 298.671 655.718 321.471 644.117 340.001C632.676 358.532 616.805 372.47 596.502 381.815C576.36 391.161 553.157 395.834 526.893 395.834C500.628 395.834 477.264 391.161 456.8 381.815C436.497 372.47 420.545 358.532 408.943 340.001C397.503 321.471 391.783 298.671 391.783 271.601V39.0859H464.292V271.601C464.292 287.392 466.79 300.282 471.785 310.272C476.78 320.263 483.951 327.594 493.296 332.267C502.803 336.94 514.002 339.276 526.893 339.276C540.105 339.276 551.304 336.94 560.489 332.267C569.834 327.594 576.924 320.263 581.758 310.272C586.753 300.282 589.251 287.392 589.251 271.601V39.0859ZM947.449 334.442V391H770.284V334.442H947.449ZM793.729 39.0859V391H721.219V39.0859H793.729ZM1066.12 39.0859V391H993.855V39.0859H1066.12ZM1370.18 334.442V391H1182.86V334.442H1370.18ZM1206.55 39.0859V391H1134.04V39.0859H1206.55ZM1345.77 182.414V237.521H1182.86V182.414H1345.77ZM1369.94 39.0859V95.8853H1182.86V39.0859H1369.94ZM1698.89 39.0859V391H1626.38L1484.99 155.102V391H1412.48V39.0859H1484.99L1626.62 275.226V39.0859H1698.89Z" fill="white"/>
<path d="M306.434 542.946V641.555C302.56 646.226 296.578 651.296 288.489 656.765C280.4 662.119 269.975 666.734 257.215 670.607C244.454 674.481 229.017 676.418 210.901 676.418C194.837 676.418 180.197 673.798 166.98 668.557C153.764 663.202 142.371 655.397 132.801 645.144C123.344 634.89 116.053 622.357 110.926 607.546C105.799 592.621 103.235 575.588 103.235 556.447V540.896C103.235 521.755 105.685 504.722 110.584 489.797C115.597 474.872 122.718 462.282 131.946 452.028C141.175 441.774 152.169 433.97 164.93 428.615C177.69 423.26 191.875 420.583 207.483 420.583C229.131 420.583 246.904 424.115 260.804 431.179C274.703 438.129 285.299 447.813 292.591 460.231C299.996 472.536 304.554 486.664 306.263 502.614H256.531C255.278 494.183 252.885 486.835 249.354 480.568C245.822 474.302 240.752 469.403 234.144 465.871C227.649 462.339 219.218 460.573 208.851 460.573C200.306 460.573 192.672 462.339 185.95 465.871C179.342 469.289 173.759 474.359 169.202 481.081C164.645 487.803 161.17 496.12 158.777 506.032C156.385 515.944 155.188 527.451 155.188 540.554V556.447C155.188 569.436 156.442 580.943 158.948 590.969C161.455 600.881 165.158 609.255 170.057 616.091C175.07 622.813 181.222 627.883 188.514 631.301C195.805 634.719 204.293 636.428 213.978 636.428C222.067 636.428 228.789 635.744 234.144 634.377C239.612 633.01 243.999 631.358 247.303 629.421C250.721 627.37 253.341 625.433 255.164 623.61V579.519H208.338V542.946H306.434ZM552.186 542.775V554.567C552.186 573.48 549.622 590.456 544.495 605.495C539.368 620.534 532.133 633.352 522.791 643.947C513.449 654.429 502.283 662.461 489.295 668.044C476.421 673.627 462.122 676.418 446.399 676.418C430.791 676.418 416.492 673.627 403.504 668.044C390.63 662.461 379.464 654.429 370.008 643.947C360.551 633.352 353.203 620.534 347.962 605.495C342.835 590.456 340.271 573.48 340.271 554.567V542.775C340.271 523.749 342.835 506.773 347.962 491.848C353.089 476.809 360.324 463.991 369.666 453.396C379.122 442.8 390.288 434.711 403.162 429.128C416.15 423.545 430.449 420.754 446.058 420.754C461.78 420.754 476.079 423.545 488.953 429.128C501.941 434.711 513.107 442.8 522.449 453.396C531.906 463.991 539.197 476.809 544.324 491.848C549.565 506.773 552.186 523.749 552.186 542.775ZM500.403 554.567V542.434C500.403 529.217 499.207 517.596 496.814 507.57C494.422 497.544 490.89 489.113 486.219 482.277C481.548 475.441 475.851 470.314 469.129 466.896C462.407 463.365 454.716 461.599 446.058 461.599C437.399 461.599 429.708 463.365 422.986 466.896C416.378 470.314 410.739 475.441 406.067 482.277C401.51 489.113 398.035 497.544 395.643 507.57C393.25 517.596 392.054 529.217 392.054 542.434V554.567C392.054 567.67 393.25 579.291 395.643 589.431C398.035 599.457 401.567 607.945 406.238 614.895C410.91 621.73 416.606 626.914 423.328 630.446C430.05 633.978 437.741 635.744 446.399 635.744C455.058 635.744 462.749 633.978 469.471 630.446C476.193 626.914 481.832 621.73 486.39 614.895C490.947 607.945 494.422 599.457 496.814 589.431C499.207 579.291 500.403 567.67 500.403 554.567ZM726.502 424.172H777.601V588.576C777.601 607.717 773.499 623.838 765.296 636.94C757.207 650.043 745.984 659.898 731.629 666.506C717.387 673.114 700.981 676.418 682.41 676.418C663.839 676.418 647.319 673.114 632.85 666.506C618.494 659.898 607.215 650.043 599.012 636.94C590.923 623.838 586.878 607.717 586.878 588.576V424.172H638.147V588.576C638.147 599.742 639.913 608.856 643.445 615.92C646.977 622.984 652.047 628.168 658.655 631.472C665.377 634.776 673.296 636.428 682.41 636.428C691.753 636.428 699.671 634.776 706.165 631.472C712.773 628.168 717.786 622.984 721.204 615.92C724.736 608.856 726.502 599.742 726.502 588.576V424.172ZM819.812 424.172H912.61C931.637 424.172 947.986 427.02 961.658 432.717C975.444 438.413 986.04 446.844 993.445 458.01C1000.85 469.175 1004.55 482.904 1004.55 499.196C1004.55 512.526 1002.28 523.977 997.718 533.547C993.274 543.003 986.951 550.922 978.748 557.302C970.659 563.568 961.146 568.581 950.208 572.341L933.973 580.886H853.309L852.967 540.896H912.952C921.953 540.896 929.415 539.3 935.34 536.11C941.264 532.92 945.708 528.477 948.67 522.78C951.746 517.084 953.284 510.476 953.284 502.956C953.284 494.981 951.803 488.088 948.841 482.277C945.879 476.467 941.378 472.023 935.34 468.947C929.301 465.871 921.725 464.333 912.61 464.333H871.082V673H819.812V424.172ZM958.924 673L902.186 562.087L956.36 561.745L1013.78 670.607V673H958.924ZM1246.55 424.172V673H1195.28L1095.3 506.203V673H1044.03V424.172H1095.3L1195.45 591.14V424.172H1246.55ZM1395.4 466.726L1327.72 673H1273.21L1365.66 424.172H1400.35L1395.4 466.726ZM1451.62 673L1383.78 466.726L1378.31 424.172H1413.34L1506.31 673H1451.62ZM1448.55 580.373V620.534H1317.13V580.373H1448.55ZM1541 424.172L1592.96 537.648L1644.91 424.172H1700.79L1618.93 582.424V673H1566.98V582.424L1484.95 424.172H1541Z" fill="white"/>
</mask>
<g mask="url(#mask0_1740_1366)">
<g filter="url(#filter0_f_1740_1366)">
<ellipse cx="669.399" cy="571.269" rx="669.399" ry="571.269" transform="matrix(0.992736 -0.12031 0.13491 0.990858 400.803 -164.569)" fill="white"/>
</g>
<g filter="url(#filter1_f_1740_1366)">
<ellipse cx="492.308" cy="412.613" rx="492.308" ry="412.613" transform="matrix(0.980203 0.197995 -0.221309 0.975204 27.1211 -136.526)" fill="white"/>
</g>
</g>
<defs>
<filter id="filter0_f_1740_1366" x="273.355" y="-450.877" width="1738.11" height="1543.64" filterUnits="userSpaceOnUse" color-interpolation-filters="sRGB">
<feFlood flood-opacity="0" result="BackgroundImageFix"/>
<feBlend mode="normal" in="SourceGraphic" in2="BackgroundImageFix" result="shape"/>
<feGaussianBlur stdDeviation="100" result="effect1_foregroundBlur_1740_1366"/>
</filter>
<filter id="filter1_f_1740_1366" x="-272.847" y="-250.785" width="1382.43" height="1228.23" filterUnits="userSpaceOnUse" color-interpolation-filters="sRGB">
<feFlood flood-opacity="0" result="BackgroundImageFix"/>
<feBlend mode="normal" in="SourceGraphic" in2="BackgroundImageFix" result="shape"/>
<feGaussianBlur stdDeviation="100" result="effect1_foregroundBlur_1740_1366"/>
</filter>
</defs>
</svg>
