<svg width="1674" height="646" viewBox="0 0 1674 646" fill="none" xmlns="http://www.w3.org/2000/svg">
<mask id="mask0_1740_1381" style="mask-type:alpha" maskUnits="userSpaceOnUse" x="10" y="0" width="1604" height="638">
<path d="M173.782 243.96V0.0859375H246.05V243.96C246.05 267.486 240.894 287.708 230.581 304.627C220.269 321.385 206.169 334.275 188.284 343.299C170.559 352.322 150.579 356.834 128.342 356.834C105.3 356.834 84.917 352.967 67.1924 345.232C49.4678 337.498 35.5298 325.655 25.3784 309.703C15.2271 293.589 10.1514 273.206 10.1514 248.553H82.9028C82.9028 261.443 84.6753 271.675 88.2202 279.249C91.9263 286.822 97.1631 292.22 103.931 295.442C110.698 298.665 118.835 300.276 128.342 300.276C137.527 300.276 145.503 298.101 152.271 293.75C159.038 289.4 164.275 283.035 167.981 274.656C171.848 266.277 173.782 256.045 173.782 243.96ZM502.251 0.0859375H574.519V232.601C574.519 259.671 568.718 282.471 557.117 301.001C545.676 319.532 529.805 333.47 509.502 342.815C489.36 352.161 466.157 356.834 439.893 356.834C413.628 356.834 390.264 352.161 369.8 342.815C349.497 333.47 333.545 319.532 321.943 301.001C310.503 282.471 304.783 259.671 304.783 232.601V0.0859375H377.292V232.601C377.292 248.392 379.79 261.282 384.785 271.272C389.78 281.263 396.951 288.594 406.296 293.267C415.803 297.94 427.002 300.276 439.893 300.276C453.105 300.276 464.304 297.94 473.489 293.267C482.834 288.594 489.924 281.263 494.758 271.272C499.753 261.282 502.251 248.392 502.251 232.601V0.0859375ZM860.449 295.442V352H683.284V295.442H860.449ZM706.729 0.0859375V352H634.219V0.0859375H706.729ZM979.124 0.0859375V352H906.855V0.0859375H979.124ZM1283.18 295.442V352H1095.86V295.442H1283.18ZM1119.55 0.0859375V352H1047.04V0.0859375H1119.55ZM1258.77 143.414V198.521H1095.86V143.414H1258.77ZM1282.94 0.0859375V56.8853H1095.86V0.0859375H1282.94ZM1611.89 0.0859375V352H1539.38L1397.99 116.102V352H1325.48V0.0859375H1397.99L1539.62 236.226V0.0859375H1611.89Z" fill="white"/>
<path d="M219.434 503.946V602.555C215.56 607.226 209.578 612.296 201.489 617.765C193.4 623.119 182.975 627.734 170.215 631.607C157.454 635.481 142.017 637.418 123.901 637.418C107.837 637.418 93.1966 634.798 79.9805 629.557C66.7643 624.202 55.3711 616.397 45.8008 606.144C36.3444 595.89 29.0527 583.357 23.9258 568.546C18.7988 553.621 16.2354 536.588 16.2354 517.447V501.896C16.2354 482.755 18.6849 465.722 23.584 450.797C28.597 435.872 35.7178 423.282 44.9463 413.028C54.1748 402.774 65.1693 394.97 77.9297 389.615C90.6901 384.26 104.875 381.583 120.483 381.583C142.131 381.583 159.904 385.115 173.804 392.179C187.703 399.129 198.299 408.813 205.591 421.231C212.996 433.536 217.554 447.664 219.263 463.614H169.531C168.278 455.183 165.885 447.835 162.354 441.568C158.822 435.302 153.752 430.403 147.144 426.871C140.649 423.339 132.218 421.573 121.851 421.573C113.306 421.573 105.672 423.339 98.9502 426.871C92.3421 430.289 86.7594 435.359 82.2021 442.081C77.6449 448.803 74.1699 457.12 71.7773 467.032C69.3848 476.944 68.1885 488.451 68.1885 501.554V517.447C68.1885 530.436 69.4417 541.943 71.9482 551.969C74.4548 561.881 78.1576 570.255 83.0566 577.091C88.0697 583.813 94.222 588.883 101.514 592.301C108.805 595.719 117.293 597.428 126.978 597.428C135.067 597.428 141.789 596.744 147.144 595.377C152.612 594.01 156.999 592.358 160.303 590.421C163.721 588.37 166.341 586.433 168.164 584.61V540.519H121.338V503.946H219.434ZM465.186 503.775V515.567C465.186 534.48 462.622 551.456 457.495 566.495C452.368 581.534 445.133 594.352 435.791 604.947C426.449 615.429 415.283 623.461 402.295 629.044C389.421 634.627 375.122 637.418 359.399 637.418C343.791 637.418 329.492 634.627 316.504 629.044C303.63 623.461 292.464 615.429 283.008 604.947C273.551 594.352 266.203 581.534 260.962 566.495C255.835 551.456 253.271 534.48 253.271 515.567V503.775C253.271 484.749 255.835 467.773 260.962 452.848C266.089 437.809 273.324 424.991 282.666 414.396C292.122 403.8 303.288 395.711 316.162 390.128C329.15 384.545 343.449 381.754 359.058 381.754C374.78 381.754 389.079 384.545 401.953 390.128C414.941 395.711 426.107 403.8 435.449 414.396C444.906 424.991 452.197 437.809 457.324 452.848C462.565 467.773 465.186 484.749 465.186 503.775ZM413.403 515.567V503.434C413.403 490.217 412.207 478.596 409.814 468.57C407.422 458.544 403.89 450.113 399.219 443.277C394.548 436.441 388.851 431.314 382.129 427.896C375.407 424.365 367.716 422.599 359.058 422.599C350.399 422.599 342.708 424.365 335.986 427.896C329.378 431.314 323.739 436.441 319.067 443.277C314.51 450.113 311.035 458.544 308.643 468.57C306.25 478.596 305.054 490.217 305.054 503.434V515.567C305.054 528.67 306.25 540.291 308.643 550.431C311.035 560.457 314.567 568.945 319.238 575.895C323.91 582.73 329.606 587.914 336.328 591.446C343.05 594.978 350.741 596.744 359.399 596.744C368.058 596.744 375.749 594.978 382.471 591.446C389.193 587.914 394.832 582.73 399.39 575.895C403.947 568.945 407.422 560.457 409.814 550.431C412.207 540.291 413.403 528.67 413.403 515.567ZM639.502 385.172H690.601V549.576C690.601 568.717 686.499 584.838 678.296 597.94C670.207 611.043 658.984 620.898 644.629 627.506C630.387 634.114 613.981 637.418 595.41 637.418C576.839 637.418 560.319 634.114 545.85 627.506C531.494 620.898 520.215 611.043 512.012 597.94C503.923 584.838 499.878 568.717 499.878 549.576V385.172H551.147V549.576C551.147 560.742 552.913 569.856 556.445 576.92C559.977 583.984 565.047 589.168 571.655 592.472C578.377 595.776 586.296 597.428 595.41 597.428C604.753 597.428 612.671 595.776 619.165 592.472C625.773 589.168 630.786 583.984 634.204 576.92C637.736 569.856 639.502 560.742 639.502 549.576V385.172ZM732.812 385.172H825.61C844.637 385.172 860.986 388.02 874.658 393.717C888.444 399.413 899.04 407.844 906.445 419.01C913.851 430.175 917.554 443.904 917.554 460.196C917.554 473.526 915.275 484.977 910.718 494.547C906.274 504.003 899.951 511.922 891.748 518.302C883.659 524.568 874.146 529.581 863.208 533.341L846.973 541.886H766.309L765.967 501.896H825.952C834.953 501.896 842.415 500.3 848.34 497.11C854.264 493.92 858.708 489.477 861.67 483.78C864.746 478.084 866.284 471.476 866.284 463.956C866.284 455.981 864.803 449.088 861.841 443.277C858.879 437.467 854.378 433.023 848.34 429.947C842.301 426.871 834.725 425.333 825.61 425.333H784.082V634H732.812V385.172ZM871.924 634L815.186 523.087L869.36 522.745L926.782 631.607V634H871.924ZM1159.55 385.172V634H1108.28L1008.3 467.203V634H957.031V385.172H1008.3L1108.45 552.14V385.172H1159.55ZM1308.4 427.726L1240.72 634H1186.21L1278.66 385.172H1313.35L1308.4 427.726ZM1364.62 634L1296.78 427.726L1291.31 385.172H1326.34L1419.31 634H1364.62ZM1361.55 541.373V581.534H1230.13V541.373H1361.55ZM1454 385.172L1505.96 498.648L1557.91 385.172H1613.79L1531.93 543.424V634H1479.98V543.424L1397.95 385.172H1454Z" fill="white"/>
</mask>
<g mask="url(#mask0_1740_1381)">
<g filter="url(#filter0_f_1740_1381)">
<ellipse cx="1046.91" cy="571.269" rx="1046.91" ry="571.269" transform="matrix(0.992736 -0.12031 0.13491 0.990858 -244.824 -135.87)" fill="url(#paint0_linear_1740_1381)"/>
</g>
</g>
<defs>
<filter id="filter0_f_1740_1381" x="-370.655" y="-475.792" width="2484.42" height="1560.03" filterUnits="userSpaceOnUse" color-interpolation-filters="sRGB">
<feFlood flood-opacity="0" result="BackgroundImageFix"/>
<feBlend mode="normal" in="SourceGraphic" in2="BackgroundImageFix" result="shape"/>
<feGaussianBlur stdDeviation="100" result="effect1_foregroundBlur_1740_1381"/>
</filter>
<linearGradient id="paint0_linear_1740_1381" x1="3.62662e-06" y1="573.62" x2="2093.83" y2="573.62" gradientUnits="userSpaceOnUse">
<stop stop-color="#FF0000"/>
<stop offset="1" stop-color="#8F00FF"/>
</linearGradient>
</defs>
</svg>
