<svg width="117" height="44" viewBox="0 0 117 44" fill="none" xmlns="http://www.w3.org/2000/svg">
<g clip-path="url(#clip0_1370_599)">
<path d="M25.5455 0.135242C25.253 0.202785 24.3658 0.434364 23.576 0.656294C21.275 1.29314 21.119 1.31243 20.2903 1.06156C19.598 0.858926 19.559 0.858926 19.0715 1.01331C18.0965 1.32208 17.3458 1.91068 16.1563 3.2905C15.3958 4.17822 15.0643 4.71857 14.7523 5.60629C14.4695 6.40717 14.4305 7.44928 14.6645 7.89314C14.7815 8.11507 14.801 8.28875 14.7328 8.62647L14.6548 9.07033L15.6395 10.4984C16.361 11.5502 16.8485 12.1388 17.453 12.6984C17.9113 13.1133 18.3988 13.6151 18.545 13.8177C18.857 14.2326 19.169 14.3291 20.2805 14.3291C21.3043 14.3291 22.1818 14.1458 22.5815 13.8466C23.2738 13.3256 23.693 12.2738 24.1805 9.88086C24.356 9.04138 24.5803 8.12472 24.6875 7.84489C24.863 7.36243 24.863 7.32384 24.7168 7.00542C24.6193 6.81243 24.3853 6.51331 24.1805 6.32998L23.81 6.00191L23.8978 4.88261C24.005 3.46419 24.1025 3.09752 24.5803 2.30629C25.0775 1.48612 25.214 1.37033 26.0623 1.01331C26.579 0.801031 26.774 0.665943 26.7935 0.521207C26.852 0.115943 26.345 -0.0384426 25.5455 0.135242Z" fill="#0E0E0E"/>
<path d="M58.1099 14.2229V18.4106L57.5347 17.8509C56.8814 17.2141 55.8577 16.6737 55.0192 16.5C54.1514 16.3167 52.2599 16.4229 51.4799 16.6834C48.8474 17.5904 47.4727 20.0895 47.4727 23.9781C47.4727 26.8053 48.1162 28.7158 49.5202 30.115C50.6024 31.186 51.8407 31.6492 53.6249 31.6492C55.3799 31.6492 56.5889 31.215 57.6419 30.2211L58.2074 29.6904V30.5202V31.3597H60.0599H61.9124V20.6974V10.0351H60.0112H58.1099V14.2229ZM55.5554 19.443C57.1057 19.9062 58.2269 22.0965 58.0709 24.4123C57.9052 26.95 56.7839 28.5325 55.0192 28.7158C53.4007 28.8895 52.1819 27.8571 51.6749 25.8983C51.4409 24.9913 51.4117 23.2448 51.6164 22.2702C52.1039 20.0123 53.6639 18.893 55.5554 19.443Z" fill="#0E0E0E"/>
<path d="M78.1953 20.6976V31.3599H80.0966H81.9978V20.6976V10.0353H80.0966H78.1953V20.6976Z" fill="#0E0E0E"/>
<path d="M84.1426 20.6976V31.3599H86.0438H87.9451L87.9646 27.7607L87.9938 24.1713L90.4801 27.7607L92.9663 31.3502L95.3843 31.3599C96.7103 31.3599 97.7926 31.3406 97.7926 31.3116C97.7926 31.2923 96.4081 29.4686 94.7213 27.259L91.6403 23.245L94.2533 20.1379C95.6866 18.43 96.9248 16.9537 97.0028 16.8572C97.1296 16.7028 97.0028 16.6932 94.8871 16.6932H92.6348L90.3143 19.6555L87.9938 22.6178L87.9646 16.3265L87.9451 10.0353H86.0438H84.1426V20.6976Z" fill="#0E0E0E"/>
<path d="M98.8652 12.2064V13.9915H100.766H102.668V12.2064V10.4213H100.766H98.8652V12.2064Z" fill="#0E0E0E"/>
<path d="M4.60228 11.145C4.34878 11.4634 4.19278 12.1774 4.19278 13.0265V13.702H3.81253C3.45178 13.702 3.43228 13.7213 3.36403 14.059C3.28603 14.5125 2.93503 15.1493 2.76928 15.1493C2.70103 15.1493 2.57428 15.0818 2.48653 14.995C2.29153 14.802 1.86253 14.8695 1.44328 15.159C1.06303 15.4292 0.0587843 17.4748 0.0977843 17.8993C0.166034 18.7292 0.965534 20.0028 1.96978 20.8616C4.09528 22.6853 6.78628 23.7371 9.34078 23.7371C10.7838 23.7371 13.0848 23.2739 13.7965 22.8493C15.3468 21.9134 16.5753 20.5046 16.5753 19.6555C16.5753 19.2406 16.2048 17.9186 16.0195 17.6678C15.5613 17.0599 14.6448 16.9344 12.7728 17.2239C11.593 17.4072 10.6863 17.3976 10.189 17.2143C9.97453 17.1371 9.65278 17.0213 9.47728 16.973C8.26828 16.6064 6.35728 14.2809 5.33353 11.9169C5.12878 11.4344 4.92403 11.0099 4.87528 10.9713C4.83628 10.923 4.70953 11.0002 4.60228 11.145Z" fill="#0E0E0E"/>
<path d="M33.5401 13.7115C30.3323 14.0782 27.3488 15.3036 26.1983 16.7124C25.6913 17.3396 25.7401 18.5071 26.3056 19.1054L26.5688 19.3852L28.1288 19.2887C30.4298 19.1633 32.6041 19.308 34.1641 19.694C35.8801 20.1282 37.0988 21.0642 37.2938 22.1063L37.3621 22.4633L37.9081 22.4536C38.2201 22.4536 38.7758 22.4826 39.1561 22.5308C39.9068 22.608 40.9696 22.4729 41.4668 22.222C41.6618 22.1256 41.7301 22.0194 41.7301 21.8071C41.7301 21.5466 41.7593 21.5177 42.0616 21.5177C42.4613 21.5177 43.1633 21.2764 43.4071 21.0642C43.5046 20.987 43.6118 20.7554 43.6411 20.5624C43.6801 20.3694 43.7873 20.0606 43.8751 19.8773C44.0896 19.4624 44.0018 18.7773 43.6313 17.7931C42.7928 15.5931 40.7453 14.2036 37.6936 13.7501C36.6113 13.5957 34.7393 13.5764 33.5401 13.7115Z" fill="#0E0E0E"/>
<path d="M67.8117 16.5388C66.8855 16.7125 65.657 17.0502 65.1597 17.2721L64.7405 17.4555L64.7502 18.6423C64.7502 19.2985 64.7892 20.0028 64.8185 20.2248L64.8867 20.6204L65.6862 20.1669C67.1292 19.3467 68.7867 18.9897 70.2005 19.1827C71.1365 19.3177 71.624 19.5493 72.0725 20.0704C72.443 20.4949 72.599 20.9002 72.6965 21.73L72.7647 22.2897H71.3607C67.5972 22.2897 65.5595 22.8204 64.3017 24.1327C63.6485 24.8081 63.3072 25.5318 63.1512 26.5546C62.81 28.9186 64.214 30.8677 66.7392 31.5046C67.4705 31.6879 68.9135 31.6879 69.6155 31.5046C70.8147 31.1862 71.9457 30.4142 72.7062 29.3818L72.9207 29.0923L72.9305 29.7195C72.9305 30.0669 72.9597 30.5783 72.989 30.8484L73.0572 31.3599H74.7635H76.4697L76.4015 30.752C76.3625 30.4239 76.2942 28.1177 76.2552 25.6186C76.187 21.8362 76.148 20.9677 76.0017 20.3599C75.524 18.3335 74.4515 17.1949 72.4917 16.6449C71.702 16.423 68.777 16.3555 67.8117 16.5388ZM72.7355 24.866C72.7355 25.4739 72.5112 26.4292 72.2577 26.9888C71.5947 28.3976 70.1517 29.1213 68.5332 28.8511C67.7825 28.7256 67.3437 28.4748 67.0025 27.9827C66.7977 27.6932 66.7782 27.5581 66.8075 26.9502C66.8367 26.3713 66.8855 26.1976 67.1292 25.8502C67.49 25.3484 68.2212 24.9335 69.05 24.7502C69.4107 24.673 70.2882 24.6151 71.2047 24.6151L72.7355 24.6055V24.866Z" fill="#0E0E0E"/>
<path d="M108.567 16.5483C107.67 16.7027 106.422 17.0501 105.915 17.272L105.495 17.4553L105.505 18.8352C105.515 19.5975 105.544 20.3115 105.573 20.4369L105.642 20.6492L106.012 20.3983C107.426 19.4527 109.483 18.951 111.033 19.1922C112.467 19.4141 113.13 20.0317 113.383 21.3729C113.568 22.3668 113.685 22.2896 112.106 22.2896C110.37 22.2896 108.723 22.4343 107.748 22.6852C105.242 23.3124 103.838 24.9527 103.838 27.2589C103.848 28.465 104.199 29.3141 105.066 30.1825C106.412 31.5141 108.693 32.0159 110.634 31.408C111.765 31.0606 112.827 30.3176 113.305 29.565C113.412 29.3817 113.549 29.2369 113.598 29.2369C113.646 29.2369 113.685 29.5168 113.685 29.8545C113.685 30.1922 113.715 30.665 113.744 30.9159L113.812 31.3597H115.401H117V27.0852C117 24.7404 116.952 22.2992 116.903 21.6527C116.669 18.6132 115.431 17.079 112.788 16.558C111.872 16.3746 109.551 16.365 108.567 16.5483ZM113.49 24.8659C113.481 25.4545 113.208 26.622 112.974 27.0755C112.632 27.7317 111.774 28.5036 111.131 28.7159C110.458 28.9475 109.278 28.9475 108.684 28.7159C108.196 28.5325 107.679 28.0308 107.582 27.6352C107.543 27.5097 107.543 27.1334 107.562 26.8246C107.611 26.0913 107.972 25.5606 108.684 25.165C109.415 24.7501 110.205 24.6246 111.96 24.615L113.49 24.6054V24.8659Z" fill="#0E0E0E"/>
<path d="M98.8652 24.0265V31.3599H100.766H102.668V24.0265V16.6932H100.766H98.8652V24.0265Z" fill="#0E0E0E"/>
<path d="M25.9642 25.9177C25.6814 26.0914 25.3402 26.4002 25.1939 26.5835L24.9307 26.9212L25.1744 27.2879C25.3207 27.5002 25.8472 27.944 26.4517 28.3493C27.0659 28.7738 27.5729 29.208 27.7289 29.43C27.8654 29.6326 28.1677 30.0186 28.4017 30.2791C28.6357 30.53 28.9282 31.0028 29.0549 31.3212C29.1817 31.63 29.3377 31.958 29.4157 32.0449C29.5814 32.2475 29.7667 33.7721 29.6789 34.3414C29.6497 34.5826 29.5424 34.9203 29.4449 35.0844C29.2987 35.3352 29.2889 35.4317 29.3864 35.6054C29.5132 35.8563 30.0787 36.1844 30.3712 36.1844C30.7709 36.1844 32.7892 37.5256 33.8812 38.5195L34.4954 39.0791H35.1779C35.9969 39.0791 36.2407 39.0019 37.2547 38.394C37.6934 38.1335 38.2102 37.9019 38.4052 37.873C39.1462 37.7475 39.1852 37.7089 39.6044 36.6668C39.8287 36.1265 39.5752 34.6984 39.0487 33.5212C38.4539 32.1896 37.0012 30.4238 35.5387 29.237C33.4034 27.5098 30.4784 26.1203 28.1189 25.7151C26.8709 25.5028 26.5589 25.5317 25.9642 25.9177Z" fill="#0E0E0E"/>
<path d="M17.2095 27.0273C16.4392 27.365 16.2832 27.5097 15.4155 28.7352C14.2942 30.3466 13.1437 31.1957 11.301 31.8132C9.0877 32.5466 6.9232 32.4404 5.56795 31.543C5.25595 31.3308 5.15845 31.2922 5.2072 31.4176C5.41195 31.9483 6.07495 34.9781 6.1042 35.5088C6.11395 35.8562 6.13345 36.1939 6.13345 36.2518C6.1432 36.3194 6.3187 36.4834 6.5332 36.6185C6.81595 36.7922 7.0012 37.0238 7.1767 37.3904L7.4302 37.9211H8.00545C8.53195 37.9211 8.59045 37.9404 8.6782 38.1623C8.76595 38.3939 8.8147 38.4036 9.52645 38.4036C10.092 38.4036 10.404 38.4615 10.7257 38.6062C11.1157 38.7895 11.3302 38.8088 12.627 38.8088C14.265 38.7992 14.5185 38.7413 15.5812 38.1238C15.942 37.9211 16.4685 37.6799 16.7415 37.5834C17.1705 37.4483 17.385 37.2843 18.0577 36.5799C18.9742 35.615 19.5105 34.7852 19.803 33.8685C20.0662 33.0676 20.1637 30.8387 19.998 29.5939C19.647 27.008 18.8767 26.2939 17.2095 27.0273Z" fill="#0E0E0E"/>
<path d="M100.494 37.3421C99.1875 37.8439 98.5732 38.9246 98.5732 40.7386C98.5732 42.1474 98.9827 43.0833 99.87 43.7202L100.26 44H101.869C103.468 44 103.477 44 104.092 43.7009C104.433 43.5272 104.716 43.3728 104.716 43.3535C104.716 43.3053 104.228 42.4465 104.111 42.2921C104.043 42.2149 103.887 42.2439 103.516 42.4079C102.054 43.0737 100.708 42.6491 100.552 41.4912L100.494 41.1053H102.619H104.745L104.696 40.1596C104.589 38.114 103.604 37.1395 101.654 37.1491C101.215 37.1588 100.786 37.2263 100.494 37.3421ZM102.502 38.886C102.697 39.0982 102.766 39.2816 102.766 39.5614V39.9474H101.644C100.387 39.9474 100.367 39.9281 100.66 39.2237C100.981 38.4711 101.956 38.2877 102.502 38.886Z" fill="#0E0E0E"/>
<path d="M67.1191 37.4001C66.4951 37.622 65.9589 38.1431 65.5981 38.8668C65.2861 39.494 65.2764 39.5422 65.2764 40.7194C65.2764 41.8194 65.2959 41.9738 65.5299 42.4659C65.8126 43.0545 66.3391 43.6141 66.8364 43.8457C67.2069 44.0194 69.3324 44.0676 69.7516 43.9036L70.0051 43.8071V42.0703V40.3334H69.0301H68.0551V40.7194V41.1054H68.6401H69.2251V42.1668C69.2251 43.2185 69.2251 43.2378 68.9716 43.3247C68.5621 43.479 67.7821 43.4405 67.3921 43.2378C66.5634 42.8133 66.2026 42.1475 66.1344 40.8641C66.0564 39.5326 66.3294 38.8475 67.1386 38.2782C67.6749 37.9019 68.3866 37.844 69.2056 38.0948L69.8101 38.2878V37.8633C69.8101 37.4676 69.7906 37.4483 69.4494 37.3519C68.9229 37.2071 67.5871 37.2361 67.1191 37.4001Z" fill="#0E0E0E"/>
<path d="M71.2725 40.6228V44H71.6625H72.0525V42.4947V40.9895L72.5985 41.0281C72.9007 41.057 73.203 41.1439 73.281 41.2211C73.3687 41.3079 73.6417 41.9544 73.905 42.6588L74.373 43.9518L74.8312 43.9807C75.231 44.0096 75.2797 43.9904 75.231 43.836C75.2017 43.7395 74.9677 43.0737 74.7045 42.3596C74.3047 41.2404 74.2072 41.0377 73.9245 40.8544L73.6125 40.6421L73.905 40.5746C74.4997 40.4491 74.9775 39.7158 74.9775 38.9342C74.9775 38.5482 74.607 37.8342 74.2852 37.6026C73.9245 37.3421 73.398 37.2553 72.2767 37.2456H71.2725V40.6228ZM73.2322 38.0175C73.9635 38.2202 74.2852 38.9825 73.9342 39.6579C73.7002 40.1114 73.2127 40.343 72.5887 40.314L72.1012 40.2851L72.072 39.2333C72.0622 38.6447 72.072 38.114 72.0915 38.0465C72.15 37.8921 72.735 37.8825 73.2322 38.0175Z" fill="#0E0E0E"/>
<path d="M77.2396 37.4965C76.4401 37.8921 76.0111 38.6447 75.8649 39.9281C75.6796 41.607 76.1086 43.1123 76.9471 43.7202C77.3274 43.9904 77.3956 44 78.3316 44C79.1311 44 79.3749 43.9614 79.6186 43.8167C81.1396 42.9 81.3444 39.2237 79.9599 37.8439C79.5211 37.4193 79.0629 37.2456 78.3511 37.2456C77.8929 37.2456 77.6199 37.3035 77.2396 37.4965ZM79.2676 38.2877C79.5211 38.5386 79.6869 38.8281 79.8039 39.2044C80.0086 39.9184 80.0184 41.414 79.8039 42.1184C79.4139 43.4789 78.1561 43.9132 77.3274 42.9868C76.9179 42.514 76.7326 41.8193 76.7326 40.7193C76.7326 38.8377 77.2884 37.9211 78.4291 37.9211C78.8484 37.9211 78.9459 37.9596 79.2676 38.2877Z" fill="#0E0E0E"/>
<path d="M81.9004 39.9184C81.9004 42.9386 81.9394 43.093 82.6219 43.6912C82.9729 44 82.9924 44 83.9869 44C85.1861 44 85.4981 43.8553 85.8881 43.0833C86.1416 42.6105 86.1416 42.5816 86.1709 39.9281L86.2001 37.2456H85.7614H85.3226L85.2934 39.8702C85.2641 42.1763 85.2446 42.543 85.0886 42.8132C84.8644 43.2281 84.4841 43.4693 84.0356 43.4693C83.5384 43.4693 83.1874 43.257 82.9436 42.7939C82.7389 42.4272 82.7291 42.2535 82.6999 39.8219L82.6706 37.2456H82.2806H81.9004V39.9184Z" fill="#0E0E0E"/>
<path d="M87.458 40.6132V44H87.848H88.2283L88.2575 42.6202L88.2868 41.25L89.0668 41.1921C89.4958 41.1632 89.9833 41.0667 90.1393 40.9895C90.7535 40.6711 91.0655 40.0921 91.0655 39.2623C91.0655 38.4325 90.8023 37.9018 90.2075 37.564C89.8078 37.3325 89.642 37.3035 88.6085 37.2649L87.458 37.2263V40.6132ZM89.7005 38.2009C90.032 38.4421 90.188 38.7605 90.188 39.243C90.188 40.1211 89.759 40.5263 88.8035 40.5263H88.238V39.2912C88.238 38.6061 88.2673 38.0175 88.316 37.9789C88.433 37.8535 89.447 38.0079 89.7005 38.2009Z" fill="#0E0E0E"/>
<path d="M91.914 37.3132C91.875 37.3421 91.8457 38.8667 91.8457 40.6904V44H93.552H95.2582V43.7105V43.4307L94.02 43.4018L92.772 43.3728L92.7427 42.1377L92.7135 40.9123H93.8445H94.9657V40.5746V40.2465L93.8737 40.2175L92.772 40.1886L92.7427 39.0982L92.7135 38.0175H93.8932H95.0632V37.6316V37.2456H93.5227C92.6745 37.2456 91.9432 37.2746 91.914 37.3132Z" fill="#0E0E0E"/>
<path d="M105.788 40.6229V44.0098L107.767 43.9808C110.01 43.9519 110.273 43.8747 111.043 43.1027C111.648 42.5045 111.862 41.8484 111.872 40.6229C111.872 39.7352 111.843 39.5422 111.628 39.0791C111.268 38.3168 110.858 37.8922 110.156 37.5738C109.561 37.3133 109.483 37.3036 107.67 37.265L105.788 37.2264V40.6229ZM108.859 38.6063C109.864 38.8861 110.351 40.2563 109.932 41.6554C109.688 42.4563 108.967 42.8905 108.001 42.8229L107.592 42.794L107.563 40.6422L107.543 38.5001H108.001C108.265 38.5001 108.645 38.5484 108.859 38.6063Z" fill="#0E0E0E"/>
<path d="M112.808 40.6228V44H113.734H114.66V42.6009V41.2018H115.781H116.903V40.5746V39.9474H115.781H114.66V39.2719V38.5965H115.83H117V37.9211V37.2456H114.904H112.808V40.6228Z" fill="#0E0E0E"/>
</g>
<defs>
<clipPath id="clip0_1370_599">
<rect width="117" height="44" fill="white"/>
</clipPath>
</defs>
</svg>
