<svg width="187" height="38" viewBox="0 0 187 38" fill="none" xmlns="http://www.w3.org/2000/svg">
<g clip-path="url(#clip0_1370_622)">
<path d="M25.1783 1.10749L23.6999 1.3056L23.673 9.2928C23.664 13.6961 23.6371 17.289 23.6103 17.289C23.5834 17.289 23.2519 17.1089 22.8666 16.8928C20.9491 15.8032 18.5567 15.0468 16.0568 14.7587C14.9278 14.6236 11.6036 14.7047 10.4835 14.8938C7.15928 15.4701 4.53394 16.6317 2.84045 18.2705C0.645196 20.3956 0.331588 23.1601 2.00715 25.5193C3.69167 27.8876 7.45497 29.5715 11.962 29.9587C13.1178 30.0577 15.4117 30.0307 16.3525 29.9047C18.9868 29.5625 21.639 28.707 23.2787 27.6895L23.6551 27.4554V28.7791V30.0938L23.9508 30.0397C24.1031 30.0127 24.6228 29.9497 25.0887 29.8956C25.5546 29.8416 26.1639 29.7696 26.4327 29.7336L26.9256 29.6705V15.308C26.9256 2.61129 26.9076 0.94541 26.7911 0.936405C26.7195 0.927401 25.9937 1.00844 25.1783 1.10749ZM17.132 16.9198C18.6553 17.1719 19.6767 17.4781 20.8326 18.0544C21.9974 18.6217 22.8576 19.3061 23.3683 20.0715C23.897 20.8639 24.0583 21.4132 24.0583 22.3767C24.0583 23.1151 24.0314 23.2501 23.7626 23.7904C22.8486 25.6634 20.4742 27.0952 17.2037 27.7435C15.7611 28.0317 12.8311 28.0407 11.281 27.7525C7.49081 27.0592 5.02675 25.2312 4.65938 22.8629C4.21137 19.9364 7.61625 17.334 12.634 16.7577C13.6823 16.6407 15.9045 16.7217 17.132 16.9198Z" fill="#0E0E0E"/>
<path d="M134 0.990431C133.534 1.06247 133.033 1.1165 132.101 1.22455L131.536 1.28759V9.2838C131.536 13.6871 131.527 17.289 131.518 17.289C131.5 17.289 130.909 16.9919 130.192 16.6317C128.319 15.6862 126.572 15.1369 124.368 14.8127C123.06 14.6146 119.538 14.6866 118.15 14.9388C116.143 15.299 114.709 15.7492 113.302 16.4516C109.324 18.4506 107.827 21.6023 109.378 24.7449C109.781 25.5644 110.892 26.789 111.797 27.4013C113.562 28.608 116.349 29.5625 118.902 29.8506C119.171 29.8776 119.538 29.9227 119.709 29.9407C122.549 30.2558 125.909 29.8506 128.606 28.8691C129.457 28.5629 130.775 27.9326 131.196 27.6355C131.321 27.5364 131.456 27.4644 131.482 27.4644C131.509 27.4644 131.536 28.0587 131.536 28.7791V30.0938L131.787 30.0397C131.921 30.0127 132.647 29.9227 133.4 29.8416L134.762 29.6885V15.29C134.762 1.63877 134.753 0.900383 134.61 0.909388C134.52 0.918392 134.251 0.954411 134 0.990431ZM122.468 16.7487C124.726 16.9108 126.214 17.271 127.728 18.0004C129.592 18.9009 130.649 20.0355 130.999 21.5122C131.653 24.3037 128.732 26.9151 123.965 27.7885C122.648 28.0317 119.7 28.0137 118.266 27.7525C114.449 27.0592 111.949 25.1862 111.653 22.8179C111.609 22.4487 111.609 21.9895 111.653 21.7464C112.11 19.2881 115.533 17.1359 119.583 16.7667C120.856 16.6497 121.214 16.6497 122.468 16.7487Z" fill="#0E0E0E"/>
<path d="M182.547 7.14979C181.615 7.45596 180.8 8.17633 180.387 9.07681C180.181 9.52705 180.146 9.70714 180.146 10.4906C180.146 11.328 180.163 11.4361 180.432 11.9853C180.782 12.7057 181.427 13.3361 182.144 13.6692C182.592 13.8853 182.762 13.9124 183.55 13.9124C184.384 13.9124 184.491 13.8943 185.038 13.6242C185.755 13.273 186.382 12.6247 186.713 11.9043C186.928 11.4541 186.955 11.283 186.955 10.4906C186.955 9.69814 186.928 9.52705 186.713 9.07681C186.382 8.35643 185.755 7.70809 185.047 7.36591C184.554 7.12278 184.357 7.07776 183.694 7.05074C183.21 7.03273 182.78 7.06875 182.547 7.14979ZM184.169 7.51899C185.307 7.70809 186.346 8.81567 186.534 10.0133C186.812 11.8503 185.405 13.5071 183.55 13.5071C182.699 13.5071 182.054 13.237 181.436 12.6157C179.697 10.8688 180.656 7.88818 183.076 7.48297C183.335 7.43795 183.613 7.41994 183.685 7.42894C183.756 7.44695 183.98 7.48297 184.169 7.51899Z" fill="#0E0E0E"/>
<path d="M182.18 10.4456L182.171 12.1565H182.44H182.7V11.4361V10.7157H183.398C184.178 10.7157 184.312 10.7878 184.312 11.202C184.312 11.3551 184.339 11.6342 184.366 11.8143C184.42 12.1295 184.447 12.1565 184.734 12.1565C185.002 12.1565 185.029 12.1385 184.94 11.9854C184.895 11.8864 184.85 11.6162 184.85 11.3911C184.85 10.9769 184.734 10.6437 184.545 10.5086C184.483 10.4636 184.501 10.4096 184.599 10.3555C184.823 10.2205 184.94 9.6982 184.841 9.32C184.707 8.83375 184.42 8.73469 183.21 8.73469H182.189L182.18 10.4456ZM184.259 9.32901C184.456 9.51811 184.438 9.86929 184.223 10.0854C184.079 10.2295 183.927 10.2655 183.372 10.2655H182.7V9.72521V9.18493H183.407C183.936 9.18493 184.16 9.22095 184.259 9.32901Z" fill="#0E0E0E"/>
<path d="M55.5531 11.0127C54.7915 11.2648 54.1284 11.535 54.0747 11.607C54.0299 11.688 53.9672 12.4714 53.9403 13.3539L53.8955 14.9658L52.659 14.9748L51.4225 14.9928L51.0193 15.9203C50.8042 16.4335 50.625 16.8928 50.625 16.9378C50.625 16.9828 51.3508 17.0188 52.2826 17.0188H53.9313L53.9582 21.7193C53.9851 26.3928 53.9851 26.4288 54.1912 26.9421C54.6213 28.0136 55.6965 28.8961 57.157 29.3643C58.519 29.8056 59.2806 29.8866 61.6461 29.8596C62.8109 29.8506 63.8055 29.8056 63.8682 29.7696C63.9399 29.7245 63.9757 29.4004 63.9757 28.77V27.8425L62.345 27.8696C59.2537 27.9146 57.9097 27.5814 57.4348 26.6629C57.2645 26.3207 57.2556 26.1316 57.2556 21.7733C57.2556 19.279 57.2556 17.1899 57.2556 17.1359C57.2556 17.0459 58.0172 17.0188 60.5977 17.0008L63.9309 16.9738V15.9833V14.9928L60.5977 14.9658L57.2556 14.9478L57.2466 12.8046C57.2376 11.634 57.2376 10.6435 57.2466 10.5985C57.2645 10.4724 56.942 10.5534 55.5531 11.0127Z" fill="#0E0E0E"/>
<path d="M48.2505 14.7769C47.5605 14.8669 46.8795 14.948 46.7272 14.957C46.5839 14.975 46.4315 15.029 46.3957 15.083C46.3598 15.1281 46.324 16.893 46.324 19.0001C46.324 22.701 46.2882 23.3944 46.0462 24.3579C45.6161 26.1318 44.3707 27.3475 42.5249 27.8247C40.9479 28.2299 38.0985 28.275 36.4229 27.9238C34.9714 27.6266 33.923 26.9243 33.4482 25.9427L33.1973 25.4385L33.1704 20.1797C33.1525 15.6143 33.1256 14.9119 33.0091 14.7949C32.8837 14.6688 32.7313 14.6688 31.4679 14.8219C30.6974 14.9119 30.0343 14.975 29.9985 14.966C29.8461 14.9299 29.8282 15.6323 29.8551 20.4499C29.8909 25.0063 29.9089 25.5826 30.0522 26.0238C30.5809 27.6626 31.683 28.7072 33.6005 29.3735C34.4517 29.6617 35.742 29.8868 37.2383 29.9949C40.688 30.238 44.1377 29.4996 45.9029 28.1489L46.324 27.8247L46.333 28.0769C46.3419 28.2119 46.333 28.6802 46.324 29.1214L46.3061 29.9228L47.1931 29.8688C48.5641 29.7788 49.4063 29.7067 49.5318 29.6707C49.6124 29.6347 49.6393 28.0589 49.6393 22.1608C49.6393 18.0546 49.6124 14.6688 49.5766 14.6508C49.5318 14.6328 48.9404 14.6868 48.2505 14.7769Z" fill="#0E0E0E"/>
<path d="M102.702 17.6223L98.751 20.6209L96.5289 18.982C95.3103 18.0815 93.4914 16.7488 92.4968 16.0104C91.4932 15.2811 90.6151 14.6777 90.5345 14.6777C90.2478 14.6777 87.6403 15.4251 87.6851 15.4972C87.7031 15.5332 89.7012 17.037 92.1115 18.8289C94.5308 20.6209 96.493 22.0976 96.4841 22.1067C96.4662 22.1247 94.5039 23.6825 92.1115 25.5735C89.7191 27.4645 87.7299 29.0493 87.6941 29.0853C87.6314 29.1394 90.4718 29.8958 90.7585 29.8958C90.8481 29.8958 96.063 25.8796 98.4105 24.0067L98.7421 23.7365L99.1274 24.0067C99.3334 24.1597 101.206 25.5465 103.294 27.0863C105.382 28.6351 107.147 29.8958 107.218 29.8958C107.523 29.8958 110.113 29.1484 110.068 29.0673C110.041 29.0313 107.989 27.4555 105.498 25.5735C103.016 23.6825 100.982 22.1157 100.982 22.0796C100.982 22.0436 102.944 20.5398 105.337 18.7299C107.738 16.9289 109.656 15.4341 109.611 15.4251C109.566 15.4071 108.876 15.218 108.088 15.0109L106.654 14.6237L102.702 17.6223Z" fill="#0E0E0E"/>
<path d="M166.652 14.6238C166.634 14.6418 166.356 14.6868 166.033 14.7228C165.711 14.7498 165.03 14.8309 164.51 14.8849L163.569 14.993L163.542 22.5299L163.524 30.0669L163.99 30.0129C164.25 29.9859 164.994 29.8958 165.63 29.8148L166.795 29.6707L166.813 25.6636C166.831 23.0162 166.867 21.5034 166.938 21.2062C167.189 20.1167 168.049 18.91 169.125 18.1446C170.469 17.1811 171.84 16.7399 173.605 16.7039L174.77 16.6859L175.522 15.6683L176.266 14.6508L174.537 14.7048C172.547 14.7588 171.49 14.9209 170.155 15.3622C168.999 15.7494 168.184 16.2266 167.395 16.974L166.795 17.5413L166.822 16.1366C166.849 14.9209 166.795 14.4887 166.652 14.6238Z" fill="#0E0E0E"/>
<path d="M73.8591 14.8219C68.8234 15.4162 65.096 17.5863 64.0566 20.5309C63.7609 21.3593 63.7519 22.9081 64.0387 23.8176C65.6336 28.8873 74.3519 31.4176 82.7476 29.2655C83.8318 28.9773 84.6382 28.6982 85.597 28.2569L86.1973 27.9778V26.7802C86.1973 26.1138 86.1704 25.5735 86.1436 25.5735C86.1167 25.5735 85.588 25.7986 84.9608 26.0778C79.3696 28.5721 73.8412 28.6261 69.8001 26.2309C69.155 25.8437 68.2321 25.1053 68.2679 24.9882C68.2769 24.9342 68.8861 24.6911 69.603 24.4299C70.3287 24.1778 74.4325 22.728 78.7155 21.2152C83.0075 19.6934 86.6274 18.4058 86.7708 18.3427L87.0217 18.2257L86.4482 17.6944C84.9787 16.3167 82.3534 15.2451 79.3965 14.8219C78.1689 14.6418 75.3734 14.6418 73.8591 14.8219ZM79.4234 16.938C80.2656 17.1091 81.771 17.6223 81.6903 17.7034C81.6186 17.7754 67.3539 23.0522 67.2375 23.0522C67.0583 23.0522 66.9866 22.1607 67.112 21.5574C67.2733 20.801 67.5959 20.2157 68.2231 19.5584C69.1729 18.5678 70.3108 17.9105 72.0222 17.3792C74.325 16.6768 77.264 16.4968 79.4234 16.938Z" fill="#0E0E0E"/>
<path d="M146.464 14.7767C143.982 15.0468 141.231 15.9743 139.421 17.1539C138.444 17.7933 137.038 19.243 136.616 20.0444C135.272 22.6378 136.285 25.4203 139.305 27.4373C141.831 29.1302 145.075 30.0037 148.829 30.0127C151.249 30.0127 152.987 29.7516 155.03 29.0852C157.135 28.3918 158.686 27.4824 159.94 26.2037C161.176 24.943 161.642 23.9705 161.714 22.5117C161.75 21.7644 161.723 21.5662 161.517 20.9449C160.487 17.8743 156.616 15.4881 151.562 14.8127C150.559 14.6776 147.548 14.6596 146.464 14.7767ZM151.553 16.9288C154.716 17.4691 157.18 18.9459 158.112 20.8549C158.444 21.5212 158.462 21.6113 158.462 22.3767C158.453 23.0971 158.426 23.2501 158.175 23.7724C157.252 25.6904 154.743 27.1942 151.473 27.7885C150.245 28.0136 147.521 28.0136 146.32 27.7975C144.958 27.5454 143.928 27.2212 142.871 26.699C141.186 25.8795 140.245 25.0331 139.618 23.7814C139.314 23.1601 139.287 23.043 139.287 22.3407C139.287 21.6653 139.322 21.4942 139.564 20.9809C139.95 20.1705 140.478 19.5492 141.285 18.9279C143.767 17.0549 147.754 16.2715 151.553 16.9288Z" fill="#0E0E0E"/>
<path d="M98.2221 30.5351C97.0752 30.7242 96.3226 31.3005 96.3226 31.9848C96.3226 32.318 96.3763 32.408 96.8423 32.8583C97.12 33.1374 97.4695 33.4436 97.6128 33.5516L97.8817 33.7317L97.1648 33.9839C95.7491 34.4881 94.9785 35.0374 94.7904 35.6587C94.3872 37.0095 96.3315 38.099 98.921 37.973C100.077 37.9189 100.865 37.7208 101.77 37.2706L102.46 36.9194L103.105 37.3697L103.76 37.8289L104.45 37.8019L105.139 37.7749L104.1 37.0635L103.052 36.3521L103.258 36.073C103.562 35.6678 103.67 35.4426 103.751 34.9834L103.822 34.5782H103.258C102.711 34.5782 102.684 34.5872 102.684 34.8033C102.684 35.0915 102.424 35.7488 102.308 35.7488C102.192 35.7488 99.6289 33.9839 99.6289 33.9028C99.6289 33.8668 99.9425 33.7047 100.319 33.5336C101.555 32.9933 101.968 32.5971 101.968 31.9308C101.968 30.9223 100.095 30.2199 98.2221 30.5351ZM100.256 31.2284C101.215 31.7057 101.009 32.4981 99.7723 33.0924C98.9479 33.4796 98.8583 33.4796 98.258 32.9843C97.9623 32.7502 97.6487 32.426 97.5501 32.264C97.4068 32.0118 97.3978 31.9398 97.5053 31.7327C97.6666 31.3905 97.9981 31.1654 98.473 31.0663C99.0106 30.9583 99.8708 31.0303 100.256 31.2284ZM100.149 35.3166C101.941 36.5592 101.887 36.4242 100.776 36.9644C99.2615 37.7118 97.129 37.5587 96.2151 36.6493C95.4624 35.9019 95.9552 35.1365 97.6128 34.4791C97.9623 34.3351 98.3207 34.227 98.4103 34.218C98.5089 34.218 99.2884 34.7133 100.149 35.3166Z" fill="#0E0E0E"/>
<path d="M60.0514 32.8763C58.9762 33.0564 58.2415 33.5787 58.2415 34.164C58.2415 34.8574 58.9404 35.1996 60.8847 35.4337C63.4832 35.7488 64.1552 35.965 64.1552 36.4782C64.1552 37.0996 63.304 37.4147 61.6015 37.4147C59.8991 37.4057 59.0568 37.1086 58.8866 36.4422C58.8149 36.1721 58.7791 36.1541 58.3938 36.127L57.9727 36.1V36.3972C57.9727 36.7844 58.1519 37.0455 58.6268 37.3157C59.2898 37.7119 60.1052 37.856 61.6464 37.856C63.6534 37.856 64.6749 37.5318 65.0244 36.7844C65.1677 36.4872 65.1677 36.4512 65.0244 36.1541C64.7556 35.5868 64.0298 35.3436 61.6015 35.0285C59.5049 34.7583 59.1375 34.6233 59.1375 34.128C59.1375 33.5517 59.9439 33.2275 61.3596 33.2275C62.6768 33.2275 63.4742 33.4977 63.7789 34.047C63.9133 34.2811 63.976 34.3081 64.3703 34.3081C64.8004 34.3081 64.8004 34.3081 64.7376 34.056C64.5495 33.2996 63.2592 32.8043 61.4223 32.7953C60.9295 32.7953 60.3113 32.8313 60.0514 32.8763Z" fill="#0E0E0E"/>
<path d="M80.1045 35.3435V37.8289L80.5077 37.8108L80.9109 37.7838V37.1085V36.4241L81.565 36.145L82.2101 35.8748L83.4915 36.8113C84.6473 37.6668 84.8086 37.7478 85.2118 37.7748C85.4537 37.7928 85.6778 37.7748 85.6957 37.7388C85.7226 37.7028 85.5523 37.5317 85.3193 37.3606C85.0864 37.1985 84.4412 36.7213 83.8767 36.3071L82.8642 35.5507L84.1724 34.9383C84.8982 34.6052 85.5165 34.308 85.5434 34.272C85.5792 34.245 85.3731 34.218 85.0953 34.218C84.6473 34.218 84.3875 34.308 82.7746 35.0644L80.9557 35.9108L80.9288 34.389L80.9109 32.8672H80.5077H80.1045V35.3435Z" fill="#0E0E0E"/>
<path d="M107.218 33.0113C107.119 33.2724 107.164 36.0279 107.272 36.3971C107.567 37.3966 109.073 37.9639 111.196 37.8648C112.872 37.7838 113.938 37.3155 114.234 36.5321C114.296 36.3881 114.332 35.5596 114.332 34.5691V32.8672H113.884H113.436V34.5511C113.436 36.4961 113.373 36.7302 112.764 37.0724C112.271 37.3516 111.304 37.4956 110.345 37.4326C109.332 37.3696 108.768 37.1715 108.418 36.7753L108.15 36.4601V34.6682V32.8672H107.711C107.397 32.8672 107.254 32.9032 107.218 33.0113Z" fill="#0E0E0E"/>
<path d="M127.782 32.9303C127.791 32.9753 127.791 33.3985 127.782 33.8758L127.773 34.7492L127.37 34.5331C126.779 34.218 126.062 34.1009 125.13 34.1549C124.126 34.209 123.445 34.4611 123.006 34.9113C122.137 35.8118 122.46 37.0004 123.714 37.5677C124.718 38.018 126.384 37.9729 127.379 37.4687L127.863 37.2165V37.5137C127.863 37.8018 127.872 37.8109 128.248 37.7928L128.624 37.7748L128.651 35.3165L128.669 32.8673H128.221C127.979 32.8673 127.782 32.8943 127.782 32.9303ZM126.949 34.8213C127.531 35.1004 127.773 35.4516 127.773 36.0369C127.773 36.8834 127.056 37.3786 125.748 37.4417C124.7 37.4867 124.153 37.3246 123.705 36.8203C123.428 36.5232 123.383 36.4061 123.383 36.0369C123.383 35.7758 123.445 35.5056 123.562 35.3255C124.037 34.5331 125.811 34.272 126.949 34.8213Z" fill="#0E0E0E"/>
<path d="M67.7123 34.2901C66.9417 34.5062 66.4041 34.8754 66.1532 35.3887C65.8934 35.8839 65.8934 36.1271 66.1353 36.6313C66.4848 37.3517 67.4614 37.802 68.8144 37.865C70.8394 37.955 72.2193 37.2076 72.2193 36.01C72.2193 35.2896 71.6817 34.6863 70.7409 34.3531C70.0599 34.119 68.4919 34.083 67.7123 34.2901ZM70.1585 34.6773C71.619 35.0555 71.843 36.5593 70.5438 37.1986C70.1674 37.3877 69.9882 37.4148 69.0832 37.4148C68.1514 37.4148 68.017 37.3967 67.6496 37.1896C67.1299 36.8925 66.8432 36.4603 66.8432 35.965C66.8432 34.8754 68.4829 34.2361 70.1585 34.6773Z" fill="#0E0E0E"/>
<path d="M74.8625 34.299C74.2173 34.4881 73.9575 34.6142 73.626 34.9294C73.2765 35.2445 73.1152 35.5867 73.1152 35.9739C73.1152 37.1265 74.289 37.8469 76.1617 37.8559C77.4072 37.8649 78.0254 37.6758 78.5541 37.1445C79.0559 36.6403 79.0648 36.4692 78.5631 36.4692C78.2315 36.4782 78.1509 36.5142 77.9986 36.7663C77.7387 37.1895 77.228 37.4057 76.4036 37.4417C75.2298 37.5047 74.3607 37.1535 74.0561 36.4962C73.7514 35.8478 74.065 35.1905 74.8714 34.7943C75.3015 34.5872 75.4718 34.5512 76.1886 34.5512C77.1473 34.5602 77.676 34.7313 77.9627 35.1275C78.115 35.3526 78.2046 35.3886 78.5451 35.3886C78.7602 35.3886 78.9394 35.3526 78.9394 35.3076C78.9394 35.1455 78.4645 34.6592 78.1419 34.4971C77.3803 34.1099 75.8839 34.0199 74.8625 34.299Z" fill="#0E0E0E"/>
<path d="M87.6755 34.2179C86.7794 34.407 86.3762 34.7132 86.3762 35.1814C86.3762 35.6947 86.9497 35.9288 88.7328 36.1539C89.3331 36.226 89.9962 36.352 90.2022 36.4331C90.9011 36.6942 90.7667 37.1534 89.9334 37.3786C89.4585 37.5046 88.3116 37.5046 87.8367 37.3786C87.4156 37.2615 87.0034 36.9643 87.0034 36.7752C87.0034 36.6852 86.887 36.6492 86.5554 36.6492C86.3135 36.6492 86.1074 36.6762 86.1074 36.7122C86.1074 36.7572 86.1881 36.9103 86.2777 37.0634C86.6182 37.6217 87.6844 37.9188 89.1539 37.8648C90.5875 37.8018 91.4836 37.4056 91.4836 36.8203C91.4836 36.235 90.9549 36.0008 89.0553 35.7397C87.5948 35.5506 87.1558 35.3975 87.2006 35.1004C87.2454 34.7402 87.8099 34.5421 88.7596 34.5511C89.6736 34.5511 90.2022 34.7402 90.3635 35.0914C90.4352 35.2624 90.5248 35.2985 90.8743 35.2985H91.3044L91.1879 35.0013C91.1072 34.7852 90.9459 34.6501 90.5607 34.452C90.1037 34.2179 89.9424 34.1909 89.0374 34.1639C88.4908 34.1459 87.8726 34.1729 87.6755 34.2179Z" fill="#0E0E0E"/>
<path d="M117.818 34.245C117.594 34.308 117.262 34.4521 117.083 34.5601L116.752 34.7492V34.4791C116.752 34.209 116.743 34.209 116.331 34.236L115.9 34.263L115.883 35.9739C115.874 37.2165 115.9 37.7028 115.972 37.7388C116.035 37.7748 116.223 37.7928 116.393 37.7838L116.707 37.7748L116.752 36.5952C116.805 35.2805 116.877 35.0644 117.415 34.8123C118.4 34.344 120.022 34.4791 120.327 35.0644C120.39 35.1815 120.443 35.7668 120.452 36.5142L120.47 37.7748H120.873H121.277L121.303 36.5142C121.33 34.9834 121.25 34.7402 120.569 34.4071C120.201 34.218 119.968 34.1819 119.18 34.1549C118.589 34.1369 118.078 34.1729 117.818 34.245Z" fill="#0E0E0E"/>
<path d="M131.536 34.272C130.47 34.5601 129.914 35.0824 129.852 35.8838C129.753 37.0635 130.721 37.7838 132.522 37.8649C133.884 37.9279 135.075 37.5857 135.479 37.0094C135.738 36.6402 135.712 36.5502 135.326 36.5682C135.075 36.5862 134.887 36.6853 134.618 36.9284C134.152 37.3426 133.534 37.4957 132.549 37.4417C131.715 37.3966 131.169 37.1445 130.846 36.6582C130.461 36.0909 130.38 36.109 133.203 36.109H135.774L135.721 35.7938C135.55 34.7492 134.43 34.1279 132.746 34.1369C132.351 34.1369 131.805 34.1999 131.536 34.272ZM134.018 34.7582C134.457 34.9563 134.851 35.3436 134.851 35.5777C134.851 35.7398 134.735 35.7488 132.746 35.7488H130.631L130.766 35.4876C131.034 34.9834 131.491 34.7042 132.343 34.5511C132.728 34.4791 133.624 34.5872 134.018 34.7582Z" fill="#0E0E0E"/>
<path d="M139.287 34.2269C138.642 34.308 138.203 34.4881 137.818 34.8122L137.54 35.0464V34.6321V34.2179H137.182H136.823V36.0189V37.8198H137.226H137.63V36.7843C137.63 36.0279 137.666 35.6677 137.764 35.4786C137.961 35.0914 138.687 34.7492 139.467 34.6772C140.013 34.6321 140.094 34.5961 140.094 34.443C140.103 34.281 139.977 34.1189 139.87 34.1369C139.843 34.1459 139.583 34.1819 139.287 34.2269Z" fill="#0E0E0E"/>
<path d="M151.715 34.2721C150.612 34.5692 149.994 35.1996 149.994 36.037C149.994 37.0636 151.034 37.7839 152.637 37.865C153.964 37.937 155.2 37.5948 155.639 37.0365C155.899 36.7034 155.863 36.5953 155.478 36.5773C155.2 36.5593 155.093 36.6043 154.833 36.8745C154.394 37.3247 153.829 37.4868 152.826 37.4418C152.171 37.4147 151.93 37.3697 151.616 37.1896C151.204 36.9555 150.944 36.6583 150.845 36.3072L150.792 36.1091H153.345H155.908V35.8839C155.908 35.6048 155.63 35.0375 155.406 34.8394C154.698 34.2091 152.933 33.9389 151.715 34.2721ZM154.026 34.6773C154.474 34.8214 154.886 35.1636 154.994 35.4787L155.093 35.7489H152.942H150.792L150.935 35.4877C151.347 34.6683 152.808 34.2991 154.026 34.6773Z" fill="#0E0E0E"/>
<path d="M158.336 34.2179C157.736 34.344 157.172 34.6591 157.028 34.9473C156.831 35.3255 156.858 35.3885 157.279 35.3885C157.602 35.3885 157.673 35.3525 157.808 35.1184C158.05 34.6951 158.498 34.5511 159.537 34.5511C160.603 34.5511 161.069 34.7041 161.159 35.0823C161.266 35.5056 160.989 35.6316 159.878 35.7037C157.405 35.8477 156.625 36.1269 156.625 36.8563C156.625 37.4326 157.36 37.8108 158.596 37.8648C159.51 37.9008 160.155 37.7838 160.774 37.4686C161.105 37.2975 161.284 37.2435 161.284 37.3155C161.284 37.5316 161.598 37.7117 162.046 37.7658C162.593 37.8288 162.808 37.7658 162.808 37.5406C162.808 37.4056 162.745 37.3695 162.512 37.3695C162.037 37.3695 162.001 37.2705 162.001 36.0188C162.001 34.7312 161.965 34.6591 161.24 34.344C160.827 34.1639 158.982 34.0828 158.336 34.2179ZM161.195 36.298C161.195 36.5861 161.141 36.7212 160.935 36.9193C160.379 37.4326 158.686 37.6397 157.906 37.2885C157.243 36.9823 157.324 36.5051 158.086 36.298C158.381 36.2169 159.86 36.0368 161.042 35.9378C161.168 35.9288 161.195 36.0008 161.195 36.298Z" fill="#0E0E0E"/>
<path d="M166.159 34.227C165.559 34.299 165.093 34.4701 164.681 34.7582L164.421 34.9473V34.5872V34.218H164.017H163.614L163.632 35.9919L163.659 37.7748L164.035 37.8018L164.403 37.8289L164.439 36.7033C164.465 35.6497 164.483 35.5687 164.689 35.3345C165.003 34.9924 165.594 34.7492 166.293 34.6862C166.804 34.6322 166.885 34.5962 166.912 34.4341C166.947 34.1819 166.822 34.1459 166.159 34.227Z" fill="#0E0E0E"/>
<path d="M140.264 34.371C140.3 34.4611 140.774 35.2715 141.33 36.172L142.325 37.8198H142.746H143.176L143.946 36.3971C144.376 35.6227 144.753 34.9563 144.789 34.9203C144.824 34.8843 145.129 35.3705 145.461 36.0009C146.473 37.8829 146.428 37.8288 146.93 37.8018L147.351 37.7748L148.4 36.0639C148.973 35.1184 149.448 34.326 149.448 34.281C149.457 34.2449 149.26 34.2179 149.027 34.2179H148.597L147.835 35.5776C147.423 36.334 147.038 37.0004 146.984 37.0814C146.903 37.1895 146.733 36.9194 146.088 35.7127L145.29 34.2089L144.816 34.2359L144.332 34.263L143.561 35.7217C143.131 36.5321 142.764 37.1895 142.737 37.1895C142.71 37.1895 142.325 36.5321 141.886 35.7217L141.079 34.263L140.64 34.2359C140.255 34.2089 140.21 34.2269 140.264 34.371Z" fill="#0E0E0E"/>
</g>
<defs>
<clipPath id="clip0_1370_622">
<rect width="187" height="38" fill="white"/>
</clipPath>
</defs>
</svg>
