<svg width="115" height="56" viewBox="0 0 115 56" fill="none" xmlns="http://www.w3.org/2000/svg">
<g clip-path="url(#clip0_1370_566)">
<path d="M15.1432 0.0900879C14.2807 0.324547 13.6113 0.955788 13.3104 1.826L13.1846 2.18671V18.9371V35.6875L13.2879 36.1609C13.4316 36.8192 13.6562 37.4685 13.9168 37.9915C14.968 40.0882 16.7604 41.4724 19.0918 41.9864C19.5635 42.0901 19.577 42.0901 22.9775 42.0901H26.3916L26.7195 41.9819C27.4922 41.7294 28.1121 41.1162 28.3996 40.3271C28.5344 39.9574 28.5613 39.227 28.458 38.8212C28.2738 38.1088 27.7437 37.4415 27.1238 37.1349C26.5039 36.8328 26.5848 36.8373 23.2471 36.8373C21.4592 36.8373 20.1609 36.8192 20.0486 36.7922C19.2715 36.6118 18.6111 35.9175 18.4629 35.1239C18.4314 34.9571 18.418 29.6727 18.4225 18.5764C18.427 3.39959 18.4225 2.25885 18.3506 1.98381C18.1305 1.13614 17.4926 0.44178 16.6615 0.148705C16.2033 -0.0136147 15.6059 -0.0361595 15.1432 0.0900879Z" fill="#0E0E0E"/>
<path d="M2.09373 0.112754C1.22674 0.333688 0.436116 1.08667 0.148616 1.96139C0.0138502 2.38522 -0.0175951 3.05704 0.0857252 3.47185C0.319319 4.44126 1.12791 5.26638 2.09823 5.52789C2.43963 5.61807 3.13592 5.61807 3.48182 5.52338C4.23201 5.3295 4.89686 4.80197 5.24725 4.12113C5.5078 3.61163 5.58416 3.24641 5.55721 2.6828C5.49881 1.55108 4.83846 0.631273 3.7828 0.211949C3.47733 0.09021 3.37401 0.0721745 2.89783 0.0631566C2.52948 0.0496302 2.27342 0.0676656 2.09373 0.112754Z" fill="#0E0E0E"/>
<path d="M80.2042 0.112753C79.1935 0.387794 78.4208 1.18135 78.1827 2.19134C78.0794 2.64222 78.1153 3.30052 78.2681 3.74238C78.5735 4.60808 79.3147 5.29343 80.2087 5.52338C80.5546 5.61807 81.2509 5.61807 81.5878 5.52789C82.2122 5.36106 82.8591 4.88763 83.223 4.33755C83.3173 4.19778 83.4521 3.90921 83.5284 3.6973C83.6407 3.36815 83.6632 3.24641 83.6632 2.84061C83.6632 2.02902 83.4296 1.45639 82.8591 0.874751C82.5671 0.577166 82.4278 0.473462 82.1179 0.32467C81.9067 0.225475 81.6282 0.121771 81.498 0.094718C81.1745 0.0270853 80.4827 0.0361028 80.2042 0.112753Z" fill="#0E0E0E"/>
<path d="M2.49316 9.24771C1.45996 9.3469 0.588477 10.0864 0.260547 11.1369L0.157227 11.4751V21.3044C0.157227 30.6828 0.161719 31.1472 0.238086 31.4223C0.521094 32.4187 1.27578 33.1311 2.26855 33.343C2.67285 33.4287 2.88848 33.4287 3.31523 33.3385C4.24961 33.1492 4.96836 32.5089 5.2873 31.5846L5.41309 31.2239V21.3269V11.43L5.31426 11.1144C4.92344 9.87444 3.7959 9.12597 2.49316 9.24771Z" fill="#0E0E0E"/>
<path d="M51.7593 9.26109C51.072 9.42792 50.4026 9.95545 50.0792 10.5777C49.8411 11.0286 49.7602 11.4208 49.7872 11.9484C49.8096 12.3587 49.922 12.7464 52.2399 20.4025C53.5786 24.8166 54.7331 28.5996 54.8095 28.8115C55.1374 29.7133 55.645 30.5023 56.3548 31.2282C57.4149 32.3059 58.7266 33.0092 60.2136 33.3023C60.7257 33.4015 61.7499 33.4331 62.2889 33.3699C63.9331 33.167 65.4559 32.4411 66.6014 31.3139C67.3202 30.606 67.8188 29.8215 68.1063 28.9377C68.4612 27.8421 72.9669 12.8501 73.0702 12.4128C73.16 12.025 73.1331 11.4524 73.0028 11.0421C72.7557 10.2575 72.019 9.56318 71.179 9.32872C70.8241 9.22953 70.1188 9.24756 69.7325 9.3693C69.3192 9.50006 68.7891 9.85175 68.5196 10.1809C68.1288 10.6633 68.3893 9.85626 64.9977 21.169C62.9987 27.8286 63.1964 27.2334 62.9223 27.531C62.6753 27.806 62.4013 27.9638 62.0059 28.0675C61.1434 28.293 60.1552 27.9323 59.8182 27.2695C59.7509 27.1387 58.6054 23.4099 57.2712 18.9822C55.6764 13.6753 54.796 10.8212 54.6882 10.6047C54.4591 10.1313 54.0323 9.71198 53.5427 9.47752C53.336 9.37832 53.0575 9.27462 52.9272 9.24756C52.6173 9.18444 52.0602 9.18895 51.7593 9.26109Z" fill="#0E0E0E"/>
<path d="M80.5674 9.24768C79.5342 9.34688 78.6627 10.0863 78.3348 11.1369L78.2314 11.4751V21.3495V31.2238L78.3303 31.5395C78.6807 32.6532 79.7004 33.4106 80.8369 33.4106C81.9555 33.4106 82.8854 32.7749 83.3076 31.7198C83.4334 31.4042 83.4379 31.3997 83.4738 29.9614C83.4963 29.1678 83.5053 24.6635 83.5008 19.9517L83.4873 11.3849L83.3885 11.0918C82.9662 9.85187 81.8566 9.13045 80.5674 9.24768Z" fill="#0E0E0E"/>
<path d="M34.6798 9.31081C32.8245 9.57232 31.1175 10.3388 29.6486 11.5788C27.6046 13.3011 26.2974 15.8126 26.0548 18.4863C26.0189 18.8606 26.0099 19.9472 26.0189 21.7553C26.0413 24.6995 26.0458 24.7942 26.3243 25.8854C27.2497 29.5826 30.2775 32.4773 34.0105 33.2258C34.7068 33.3656 35.2009 33.4106 36.0499 33.4106C38.4487 33.4106 40.6589 32.7704 42.9005 31.4313C43.3632 31.1562 43.5743 30.9984 43.7855 30.7685C44.2706 30.2454 44.5177 29.6503 44.5177 29.019C44.5177 28.5681 44.4458 28.2886 44.2212 27.8602C43.7271 26.9134 42.7612 26.4039 41.7415 26.5482C41.2429 26.6203 40.9554 26.7285 40.3714 27.0757C38.9204 27.9369 37.7704 28.3066 36.2925 28.3878C34.855 28.4644 33.4759 27.9143 32.3843 26.8277C31.5937 26.0387 31.1445 25.1549 31.0546 24.1991L31.0277 23.897H37.4335C41.8853 23.897 43.9113 23.8834 44.0775 23.8474C44.9984 23.658 45.771 22.8238 45.9148 21.868C45.9911 21.3585 45.9417 18.4683 45.8474 17.8551C45.1286 13.2515 41.7101 9.87441 37.1954 9.3063C36.5665 9.22965 35.2638 9.22965 34.6798 9.31081ZM37.3931 14.3562C38.1837 14.5636 39.0058 15.0461 39.4864 15.5826C40.2591 16.4438 40.7487 17.6657 40.8476 18.9643L40.87 19.2393L37.739 19.2664C36.0185 19.2844 33.8173 19.2979 32.8515 19.2979H31.0861V19.0995C31.0861 18.563 31.3421 17.5169 31.6386 16.8541C32.1372 15.7314 33.1165 14.8477 34.2935 14.4509C34.8685 14.257 35.2952 14.2029 36.1622 14.221C36.8361 14.2345 37.0112 14.2525 37.3931 14.3562Z" fill="#0E0E0E"/>
<path d="M100.131 9.27473C99.3677 9.34688 98.3614 9.63544 97.6741 9.97361C96.2366 10.677 94.9698 11.971 94.3095 13.4274C94.1253 13.8242 93.3212 16.4709 89.7768 28.2931C89.4669 29.3346 89.1929 30.3221 89.1704 30.4934C89.0716 31.287 89.3411 32.058 89.9296 32.6441C90.5854 33.2979 91.4884 33.5504 92.3688 33.325C93.0022 33.1627 93.5009 32.8245 93.8647 32.306C94.1432 31.9137 94.2016 31.7559 94.8126 29.7224L95.3427 27.9549L100.823 27.9639L106.304 27.9775L106.874 29.8712C107.22 31.0164 107.503 31.8821 107.593 32.058C107.795 32.4457 108.244 32.8921 108.644 33.104C109.057 33.3205 109.426 33.4106 109.888 33.4106C110.634 33.4106 111.2 33.1762 111.721 32.6486C112.287 32.076 112.507 31.4944 112.476 30.6873C112.458 30.2364 112.426 30.1372 110.001 22.1295C108.649 17.6747 107.481 13.8828 107.404 13.7024C106.537 11.5923 104.749 10.0322 102.548 9.46411C101.838 9.28375 100.832 9.20259 100.131 9.27473ZM101.546 14.5681C101.883 14.6854 102.202 14.9153 102.391 15.1813C102.494 15.3256 102.795 16.2364 103.748 19.2844L104.969 23.1981L100.859 23.2116C98.5995 23.2161 96.7397 23.2116 96.7263 23.1981C96.6858 23.162 99.0083 15.6367 99.1475 15.3437C99.3497 14.9243 99.8169 14.5907 100.365 14.4734C100.67 14.4103 101.223 14.4509 101.546 14.5681Z" fill="#0E0E0E"/>
<path d="M10.9617 51.0448C10.4541 51.1304 10.0049 51.437 9.81621 51.8293C9.69492 52.0818 9.67246 52.5913 9.7668 52.8799C9.85664 53.1459 10.1396 53.4345 10.4451 53.5697C10.5529 53.6193 10.9527 53.7185 11.3301 53.7952C11.7074 53.8718 12.0938 53.9755 12.1881 54.0251C12.516 54.192 12.6238 54.5482 12.4307 54.8277C12.2285 55.1343 11.7703 55.2696 11.2402 55.1839C10.7371 55.1073 10.3957 54.8503 10.2834 54.467L10.2295 54.2866H9.85664H9.48828L9.54219 54.5256C9.74434 55.3913 10.4406 55.8647 11.5143 55.8647C12.516 55.8647 13.1719 55.3868 13.2752 54.5752C13.3201 54.2325 13.2078 53.8808 12.9787 53.6509C12.7271 53.3984 12.4037 53.2676 11.658 53.1098C11.3121 53.0377 10.9438 52.9385 10.8359 52.8889C10.5799 52.7672 10.4586 52.5643 10.4811 52.3073C10.526 51.8924 10.8539 51.6715 11.4334 51.6715C11.6311 51.6715 11.8691 51.6941 11.9635 51.7211C12.1791 51.7797 12.4576 52.0548 12.516 52.2577L12.5609 52.4155L12.9338 52.429L13.3066 52.4425L13.2752 52.2937C13.2213 52.0142 12.9832 51.5904 12.808 51.4461C12.3363 51.0763 11.667 50.9275 10.9617 51.0448Z" fill="#0E0E0E"/>
<path d="M40.3182 51.0221C39.6893 51.1168 39.1547 51.5225 39.0154 52.005C38.8717 52.4965 38.984 53.0105 39.2939 53.3035C39.5186 53.5155 39.851 53.6462 40.5428 53.786C41.4143 53.9709 41.4771 53.9934 41.6434 54.1783C41.9039 54.4759 41.7871 54.9087 41.3918 55.0981C41.1313 55.2288 40.5607 55.2424 40.2193 55.1251C39.9273 55.0304 39.6578 54.7734 39.5545 54.4939L39.4736 54.2865H39.1143H38.7549L38.7863 54.4759C38.8896 55.1206 39.4646 55.6707 40.1969 55.824C40.5787 55.9006 41.2885 55.8556 41.6209 55.7293C41.9938 55.585 42.3711 55.2063 42.4699 54.8726C42.5732 54.5254 42.5598 54.2188 42.434 53.9483C42.2318 53.5064 41.868 53.3081 40.9111 53.1097C39.9633 52.9113 39.7521 52.776 39.7477 52.3702C39.7432 52.1177 39.8689 51.9058 40.0936 51.7886C40.3092 51.6759 40.9336 51.6308 41.2031 51.7119C41.4412 51.7841 41.6703 52.0005 41.7602 52.2349L41.8365 52.4378H42.1869C42.5957 52.4378 42.6047 52.4243 42.4564 52.0321C42.2857 51.5857 41.9803 51.3061 41.4727 51.1348C41.2031 51.0446 40.5832 50.9815 40.3182 51.0221Z" fill="#0E0E0E"/>
<path d="M50.8515 51.0673C49.3017 51.4009 48.4796 53.1278 49.1939 54.5526C49.9575 56.0856 51.9925 56.3652 53.1605 55.0937C53.5513 54.6698 53.8163 54.0115 53.8163 53.4524C53.8163 53.1549 53.6905 52.6589 53.5378 52.3478C53.3446 51.9465 52.846 51.446 52.4597 51.2656C51.9206 51.0131 51.3995 50.9455 50.8515 51.0673ZM51.9835 51.9149C52.4911 52.1223 52.8505 52.5326 52.9853 53.0557C53.0751 53.4028 53.0706 53.6328 52.9628 53.9845C52.7876 54.5481 52.3204 54.9809 51.732 55.1297C51.1704 55.265 50.5909 55.0937 50.1642 54.6653C50.0474 54.5436 49.8946 54.3362 49.8273 54.1964C49.7195 53.9755 49.706 53.8988 49.706 53.4975C49.706 53.1053 49.7195 53.0151 49.8273 52.7896C49.98 52.4605 50.272 52.1449 50.5595 52.0006C50.8784 51.8338 50.9638 51.8157 51.3681 51.8112C51.6466 51.8112 51.7859 51.8338 51.9835 51.9149Z" fill="#0E0E0E"/>
<path d="M66.5744 51.0447C65.676 51.198 65.1459 51.9014 65.3166 52.722C65.4379 53.3126 65.8332 53.5787 66.9113 53.7951C67.8906 53.989 68.1018 54.1197 68.1018 54.5436C68.1018 54.7915 67.958 54.999 67.7109 55.1072C67.41 55.2424 66.817 55.2379 66.5025 55.1027C66.2195 54.9809 65.968 54.7284 65.8871 54.4895L65.8242 54.3091L65.4514 54.2956L65.083 54.282L65.11 54.4534C65.2357 55.1252 65.7928 55.6708 66.5205 55.8241C66.8934 55.9007 67.6121 55.8556 67.9311 55.7339C68.5285 55.5039 68.8654 55.044 68.8654 54.4579C68.8654 53.9349 68.6633 53.6147 68.1781 53.3848C67.9221 53.263 67.8008 53.227 66.8664 53.0196C66.4711 52.9339 66.3992 52.9023 66.251 52.7535C66.0982 52.6002 66.0803 52.5597 66.0803 52.3568C66.0803 51.9104 66.4262 51.6714 67.0686 51.6714C67.6436 51.6714 67.9895 51.8698 68.1107 52.2666L68.1602 52.4379H68.533H68.9014L68.8564 52.244C68.6588 51.3558 67.7154 50.8553 66.5744 51.0447Z" fill="#0E0E0E"/>
<path d="M0.269531 53.4524V55.8196H1.88672H3.50391V55.4589V55.0982H2.26855H1.0332L1.02422 53.1007L1.01074 51.1078L0.642383 51.0943L0.269531 51.0808V53.4524Z" fill="#0E0E0E"/>
<path d="M4.89648 53.4524V55.8196L6.57207 55.8106L8.24316 55.797V55.4589V55.1207L6.92695 55.1072L5.61074 55.0982L5.62422 54.4534L5.6377 53.8131L6.81914 53.7996L8.00059 53.7906L7.98711 53.4614L7.97363 53.1368L6.79668 53.1233L5.61523 53.1143V52.4379V51.7616H6.94043H8.26562V51.4234V51.0853H6.58105H4.89648V53.4524Z" fill="#0E0E0E"/>
<path d="M16.6211 51.4234V51.7615H17.4521H18.2832V53.768V55.7744H18.6426H19.002V53.768V51.7615H19.833H20.6641V51.4234V51.0852H18.6426H16.6211V51.4234Z" fill="#0E0E0E"/>
<path d="M21.9668 53.4298V55.7744H22.3486H22.7305V54.9854V54.1963H23.2605H23.7951L24.3971 54.9854L24.999 55.7699L25.4572 55.7744H25.9199L25.291 54.9583C24.9451 54.5074 24.6621 54.1242 24.6621 54.1061C24.6621 54.0881 24.7475 54.0385 24.8463 53.9889C25.0979 53.8762 25.3854 53.5876 25.5156 53.3171C25.601 53.1412 25.6324 53.0015 25.6414 52.6994C25.6594 52.3522 25.6459 52.2801 25.5381 52.0366C25.3314 51.5722 24.8732 51.2385 24.3027 51.1303C24.1725 51.1077 23.593 51.0852 23.018 51.0852H21.9668V53.4298ZM24.3701 51.8697C25.0664 52.1718 25.1293 52.9879 24.4824 53.3577C24.2354 53.4974 24.2309 53.4974 23.4852 53.5155L22.7305 53.529V52.6408V51.7525L23.4627 51.7705C24.0197 51.7841 24.2309 51.8111 24.3701 51.8697Z" fill="#0E0E0E"/>
<path d="M28.1664 52.9429C27.7127 53.9664 27.2455 55.0214 27.1287 55.2875L26.9131 55.7744H27.3084H27.7037L27.9193 55.2649C28.0406 54.9899 28.1574 54.7329 28.1799 54.7013C28.2158 54.6607 28.4809 54.6472 29.3479 54.6562L30.4754 54.6697L30.709 55.2108L30.9381 55.7519L31.3289 55.7654C31.54 55.7699 31.7152 55.7654 31.7152 55.7474C31.7152 55.7293 31.257 54.6743 30.7 53.3982L29.6803 51.0852H29.3344H28.9885L28.1664 52.9429ZM29.7611 52.9834C29.9857 53.511 30.1744 53.9573 30.1789 53.9754C30.1879 53.9979 29.8105 54.016 29.3389 54.016C28.8672 54.016 28.4809 54.0024 28.4809 53.9799C28.4809 53.9213 29.3029 52.0321 29.3299 52.0321C29.3434 52.0321 29.541 52.4604 29.7611 52.9834Z" fill="#0E0E0E"/>
<path d="M33.1074 53.4298V55.7744H33.4668H33.8262L33.8352 54.1332L33.8486 52.492L35.2143 54.1332L36.5799 55.7744H36.8898H37.1953V53.4298V51.0852H36.8135H36.4316L36.4227 52.758L36.4092 54.4353L35.0391 52.7625L33.6689 51.0897H33.3904L33.1074 51.0852V53.4298Z" fill="#0E0E0E"/>
<path d="M44.1133 53.4298V55.7744H44.4951H44.877V55.0801V54.3857L45.5867 54.3677C46.1482 54.3496 46.3459 54.3226 46.548 54.2504C47.2803 53.9844 47.6666 53.4569 47.6666 52.7084C47.6666 51.8923 47.1994 51.3287 46.3729 51.1528C46.1617 51.1077 45.7664 51.0852 45.0926 51.0852H44.1133V53.4298ZM46.2021 51.8292C46.7188 51.9644 46.9658 52.2846 46.9344 52.776C46.9164 53.1052 46.7951 53.3171 46.5256 53.4929C46.274 53.6553 45.9641 53.7094 45.3711 53.6913L44.8545 53.6778L44.841 52.776C44.8365 52.2801 44.841 51.8517 44.85 51.8201C44.8859 51.7345 45.8607 51.7435 46.2021 51.8292Z" fill="#0E0E0E"/>
<path d="M55.3887 53.4298V55.7744H55.7705H56.1523V54.9854V54.1963H56.6824H57.2125L57.8145 54.9854L58.4164 55.7744H58.8566C59.0992 55.7744 59.2969 55.7654 59.2969 55.7519C59.2969 55.7383 59.0139 55.3596 58.668 54.9087L58.0346 54.0926L58.2277 54.0069C58.4838 53.8942 58.7803 53.5966 58.9285 53.3171C59.0947 52.9924 59.1172 52.4694 58.9869 52.1177C58.7982 51.6172 58.3176 51.2385 57.7291 51.1303C57.5988 51.1077 57.0148 51.0852 56.4398 51.0852H55.3887V53.4298ZM57.7695 51.8652C58.1199 52.0185 58.3535 52.3296 58.3535 52.6408C58.3535 52.8346 58.2098 53.1232 58.0436 53.263C57.81 53.4614 57.518 53.52 56.7947 53.52H56.1523V52.6362V51.7525L56.8846 51.7705C57.4057 51.7886 57.6572 51.8111 57.7695 51.8652Z" fill="#0E0E0E"/>
<path d="M60.1055 51.4234V51.7615L60.9275 51.7705L61.7451 51.7841L61.7586 53.777L61.7676 55.7744H62.127H62.4863V53.768V51.7615H63.3174H64.1484V51.4234V51.0852H62.127H60.1055V51.4234Z" fill="#0E0E0E"/>
<path d="M73.1328 53.4298V55.7744H74.2154C75.4059 55.7744 75.626 55.7429 76.1021 55.5039C76.9646 55.062 77.4812 54.0295 77.3195 53.0601C77.1937 52.3161 76.7311 51.6849 76.0887 51.3783C75.5721 51.1303 75.2711 51.0852 74.1346 51.0852H73.1328V53.4298ZM75.2936 51.8337C76.8434 52.1854 77.059 54.273 75.6125 54.9538C75.3744 55.0665 75.307 55.0755 74.6062 55.0891L73.8516 55.1071V53.4659C73.8516 52.5596 73.865 51.8066 73.883 51.7931C73.9414 51.73 74.9791 51.7615 75.2936 51.8337Z" fill="#0E0E0E"/>
<path d="M78.9277 53.4524V55.8196L80.6033 55.8106L82.2744 55.797L82.2879 55.4453L82.3014 55.0982H80.9941H79.6914V54.4444V53.7906H80.8594H82.0273V53.4524V53.1143H80.8594H79.6914V52.4379V51.7616H80.9941H82.2969V51.4234V51.0853H80.6123H78.9277V53.4524Z" fill="#0E0E0E"/>
<path d="M86.2949 53.4524V55.8196H87.9121H89.5293V55.4589V55.0982H88.2715H87.0137V53.0917V51.0853H86.6543H86.2949V53.4524Z" fill="#0E0E0E"/>
<path d="M92.5215 51.2295C92.49 51.3106 92.0633 52.2801 91.5736 53.3847C91.084 54.4894 90.6482 55.4768 90.6033 55.5805L90.5225 55.7744H90.9178H91.3131L91.5063 55.31C91.6096 55.0575 91.7264 54.805 91.7623 54.7464L91.8252 54.6472L92.9527 54.6562L94.0803 54.6697L94.3094 55.2108L94.543 55.7519L94.9383 55.7654C95.3021 55.7789 95.3336 55.7699 95.3066 55.6978C95.2887 55.6527 94.8305 54.5976 94.2824 53.3486L93.2896 51.0852H92.9348H92.5844L92.5215 51.2295ZM93.3705 53.006L93.7928 53.9934L92.9572 54.0069C92.499 54.0115 92.1127 54.0069 92.0992 53.9934C92.0857 53.9799 92.2654 53.5245 92.4945 52.9789C92.7281 52.4379 92.9258 51.996 92.9303 52.005C92.9393 52.014 93.1369 52.4649 93.3705 53.006Z" fill="#0E0E0E"/>
<path d="M98.873 53.4298V55.7744H99.5693H100.266L100.275 54.7329L100.288 53.6868L100.728 54.3496L101.164 55.0079H101.519H101.869L102.292 54.3677L102.714 53.7319L102.727 54.7509L102.736 55.7744H103.433H104.129V53.4298V51.0852H103.594H103.06L102.305 52.1673C101.887 52.758 101.528 53.2404 101.501 53.2314C101.479 53.2269 101.115 52.74 100.701 52.1538L99.9422 51.0852H99.4076H98.873V53.4298Z" fill="#0E0E0E"/>
<path d="M105.881 53.4298V55.7744H107.678H109.475V55.2108V54.6472H108.352H107.229V54.3316V54.016H108.194H109.16V53.4524V52.8887H108.194H107.229V52.5731V52.2575H108.352H109.475V51.6714V51.0852H107.678H105.881V53.4298Z" fill="#0E0E0E"/>
<path d="M111.092 53.4298V55.7744H112.889H114.686V55.1883V54.6021H113.585H112.484V52.8437V51.0852H111.788H111.092V53.4298Z" fill="#0E0E0E"/>
</g>
<defs>
<clipPath id="clip0_1370_566">
<rect width="115" height="56" fill="white"/>
</clipPath>
</defs>
</svg>
