<svg width="158" height="26" viewBox="0 0 158 26" fill="none" xmlns="http://www.w3.org/2000/svg">
<g clip-path="url(#clip0_1370_596)">
<path fill-rule="evenodd" clip-rule="evenodd" d="M40.8742 11.5847C40.9253 11.5887 40.9685 11.596 41.0116 11.596C42.9299 11.596 44.8498 11.596 46.7698 11.5863C47.6666 11.5807 48.5531 11.4768 49.4053 11.166C50.402 10.8028 51.2206 10.2109 51.6894 9.19305C52.0719 8.35798 52.1941 7.47459 52.1246 6.55979C51.9905 4.77852 51.1583 3.52712 49.5211 2.88289C48.5635 2.50441 47.5644 2.39973 46.5501 2.39167C44.7085 2.38121 42.866 2.38926 41.0236 2.38845C40.9765 2.38845 40.9277 2.3949 40.875 2.39892L40.8742 11.5847ZM47.4486 0C47.796 0.0338217 48.1466 0.0628117 48.494 0.104686C49.6672 0.24561 50.7949 0.547589 51.8387 1.14027C53.1421 1.88274 54.0262 2.98194 54.4551 4.44996C54.9965 6.30613 54.9909 8.15424 54.2554 9.96128C53.6676 11.4068 52.6453 12.4109 51.2445 13.002C51.195 13.0221 51.1463 13.0447 51.1032 13.064C51.1032 13.0833 51.1016 13.0906 51.1032 13.0922C51.806 13.6189 52.1606 14.3984 52.496 15.1811C53.6836 17.9585 54.8536 20.7423 56.0324 23.5222C56.224 23.9747 56.4125 24.4273 56.6042 24.8791C56.6106 24.8976 56.6146 24.9193 56.6242 24.9515C56.5675 24.9548 56.5203 24.9596 56.4732 24.9596C55.6275 24.9604 54.7833 24.958 53.9391 24.9636C53.8185 24.9652 53.769 24.9169 53.7243 24.8106C52.5024 21.9197 51.2797 19.0287 50.0498 16.1402C49.902 15.7947 49.7263 15.4589 49.5514 15.1279C49.1793 14.4241 48.5859 14.0811 47.8272 14.0287C47.5431 14.0068 47.2583 13.9939 46.9734 13.9901C44.9984 13.9853 43.0258 13.9885 41.0507 13.9885H40.8718V24.9467H38.2651C38.2611 24.8879 38.2555 24.8275 38.2555 24.7671V0.168303C38.2555 0.111934 38.2635 0.0547589 38.2675 0H47.4486ZM0.71875 0H3.42054V22.5735H13.4969V24.9507C13.457 24.9539 13.4195 24.9636 13.3819 24.9636L0.71875 24.9612V0ZM88.4634 16.3576C88.4634 14.7793 88.4634 13.2033 88.465 11.6242C88.4658 11.5227 88.4506 11.447 88.3508 11.3874C86.8086 10.4718 85.1643 9.98625 83.3593 10.2278C81.306 10.4992 79.8429 11.6105 78.9557 13.4675C78.3798 14.6714 78.284 15.9638 78.4797 17.2708C78.8167 19.5272 80.0482 21.1563 82.143 22.0219C84.3169 22.9206 86.4133 22.5695 88.3724 21.3052C88.4714 21.2448 88.4634 21.1643 88.4634 21.0741V16.3576ZM88.4634 8.68814V0H90.9648V24.6455H88.469V23.7678C88.3828 23.8161 88.33 23.8443 88.2789 23.8749C85.1834 25.6618 81.1439 25.2124 78.5467 22.7958C76.9575 21.3173 76.079 19.4853 75.8537 17.3376C75.6605 15.4871 75.8953 13.6978 76.8025 12.0534C78.0883 9.72937 80.0274 8.27101 82.6661 7.81683C84.4575 7.50921 86.1809 7.7975 87.8541 8.46105C88.0457 8.53836 88.2358 8.62211 88.4275 8.70103C88.4299 8.70505 88.4355 8.6978 88.4634 8.68814ZM70.689 15.0112C70.6546 14.7511 70.6307 14.5119 70.5867 14.2752C70.3128 12.787 69.5733 11.6508 68.2012 11.0202C67.131 10.529 66.0121 10.4396 64.8757 10.6925C63.1035 11.0855 61.9718 12.2434 61.3441 13.9563C61.2211 14.2921 61.1548 14.6472 61.0566 15.0112H70.689ZM73.374 17.2668H60.7699C60.7803 17.5132 60.7851 17.7451 60.8058 17.9754C60.8929 18.9756 61.1221 19.9379 61.6915 20.7617C62.6259 22.1145 63.8918 22.9697 65.5018 23.2041C67.2237 23.4553 68.773 22.9883 70.1443 21.8947C70.3935 21.6934 70.6059 21.4462 70.8519 21.2038C71.5611 21.5629 72.2894 21.9317 73.0553 22.3231C72.8189 22.6178 72.6081 22.9166 72.3653 23.1767C71.3965 24.2211 70.205 24.8887 68.88 25.3163C66.7661 25.9968 64.6736 25.9428 62.673 24.933C60.3698 23.7734 58.9602 21.8585 58.4682 19.2614C58.1296 17.4745 58.1064 15.6796 58.6 13.9144C59.2645 11.5469 60.6357 9.75997 62.8272 8.70103C63.9964 8.13572 65.2462 7.99882 66.5201 8.06969C67.73 8.13733 68.8729 8.46186 69.9231 9.09803C71.3367 9.95404 72.2615 11.2183 72.8046 12.7959C73.2925 14.2156 73.4195 15.6868 73.3907 17.1766C73.3892 17.1983 73.382 17.2225 73.374 17.2668ZM154.552 15.0088C154.506 14.7011 154.476 14.4112 154.417 14.1262C154.123 12.7137 153.392 11.6459 152.096 11.0339C151.348 10.6804 150.557 10.5387 149.736 10.5685C147.925 10.6369 146.53 11.4325 145.607 13.0608C145.264 13.6615 145.039 14.3231 144.945 15.0096L154.552 15.0088ZM157.235 17.2635H144.664C144.655 17.2941 144.64 17.3135 144.64 17.3352C144.657 18.7179 144.924 20.0361 145.81 21.1168C147.039 22.6146 148.623 23.3917 150.542 23.2564C152.136 23.1453 153.544 22.5413 154.626 21.2706C154.652 21.2384 154.727 21.2142 154.758 21.2287C155.466 21.583 156.169 21.9406 156.9 22.3126C156.747 22.5228 156.613 22.7233 156.459 22.9077C155.557 23.9941 154.409 24.7035 153.12 25.181C151.091 25.9372 149.043 26 147.037 25.1585C144.529 24.1036 142.95 22.1798 142.372 19.4418C141.97 17.5462 141.947 15.6353 142.506 13.7646C143.209 11.4011 144.617 9.63837 146.842 8.63177C148.007 8.10673 149.242 7.99158 150.498 8.07935C151.672 8.15988 152.78 8.48682 153.797 9.10608C155.231 9.979 156.157 11.2699 156.692 12.8764C157.155 14.2639 157.282 15.6997 157.246 17.1589C157.246 17.1854 157.24 17.2152 157.235 17.2635ZM109.146 16.9285C109.109 16.5299 109.082 16.1265 109.028 15.7287C108.692 13.2162 106.623 10.7947 103.836 10.62C101.72 10.4847 99.9774 11.2248 98.7275 13.0101C97.373 14.9411 97.1917 17.1121 97.9456 19.3001C98.7451 21.6249 100.403 22.9826 102.819 23.2057C104.778 23.3901 106.43 22.7265 107.719 21.1603C108.72 19.9411 109.119 18.5053 109.146 16.9285ZM111.729 16.9342C111.697 19.0794 111.126 21.0226 109.789 22.6839C108.334 24.4957 106.477 25.5265 104.204 25.7262C102.439 25.8832 100.742 25.6239 99.1971 24.685C96.9457 23.3176 95.5449 21.3004 95.1113 18.618C94.7998 16.6982 94.9396 14.805 95.7622 13.0358C96.9953 10.3833 99.0022 8.70666 101.826 8.20417C104.005 7.81361 106.084 8.1639 107.945 9.44269C109.938 10.8133 111.151 12.7492 111.552 15.2036C111.645 15.7738 111.673 16.356 111.729 16.935M25.3056 17.0365C25.2641 17.0284 25.2489 17.0244 25.2321 17.0244C24.0605 17.0783 22.8969 17.1983 21.7557 17.4721C20.8133 17.6992 19.9028 18.0133 19.0962 18.5713C18.5827 18.924 18.1618 19.3589 17.8751 19.9242C17.2306 21.2046 17.8327 23.0503 19.541 23.4159C20.1791 23.5528 20.8125 23.5205 21.4474 23.4126C22.8067 23.1815 24.0605 22.6919 25.169 21.8472C25.2157 21.8161 25.2532 21.7729 25.2776 21.7222C25.3021 21.6715 25.3126 21.6151 25.308 21.5589C25.304 20.111 25.3056 18.6655 25.3056 17.2184V17.0365ZM27.862 25.4452H25.3008V24.1881C25.2169 24.2292 25.1594 24.2582 25.0995 24.2904C23.9495 24.9185 22.7492 25.4154 21.4538 25.6425C20.0721 25.8824 18.72 25.8091 17.4406 25.1754C16.1364 24.5312 15.3777 23.4457 15.1645 22.0227C14.8714 20.0659 15.5143 18.4441 17.0533 17.1927C17.9174 16.4905 18.9141 16.0814 19.9635 15.7794C21.2613 15.4042 22.5878 15.1787 23.9303 15.0386C24.3392 14.9959 24.7489 14.9669 25.1594 14.9298C25.2026 14.9258 25.2473 14.9137 25.2848 14.9073C25.2928 14.8856 25.3016 14.8751 25.3016 14.8646C25.292 14.1238 25.3288 13.3749 25.2577 12.638C25.1379 11.3818 24.4463 10.6764 23.202 10.4396C22.008 10.2093 20.8444 10.3639 19.7231 10.8036C19.0411 11.075 18.3854 11.4172 17.7185 11.7281C17.6515 11.7603 17.5876 11.7981 17.5013 11.844L16.495 9.90572C16.8464 9.70118 17.1803 9.4902 17.5301 9.31223C19.1601 8.48441 20.8795 8.0101 22.718 8.056C23.7706 8.08257 24.7801 8.31127 25.7065 8.8339C27.1009 9.62146 27.8485 10.839 27.8572 12.4415C27.8844 16.7369 27.8684 21.0322 27.87 25.3284C27.87 25.363 27.8652 25.3952 27.862 25.4452ZM125.232 8.05278H127.702V24.6439H125.23V22.7676C124.928 23.0704 124.666 23.3595 124.377 23.6188C123.468 24.4345 122.386 24.8283 121.185 24.9298C120.051 25.0224 118.943 24.9403 117.88 24.5022C115.921 23.6937 114.769 22.212 114.316 20.1553C114.172 19.5014 114.127 18.8362 114.125 18.1703C114.125 14.863 114.128 11.559 114.129 8.25249V8.0568H116.619V18.3168C116.619 18.9957 116.722 19.6617 116.995 20.2825C117.571 21.5992 118.594 22.3134 120.008 22.4705C120.866 22.5726 121.735 22.452 122.533 22.1202C123.191 21.8464 123.719 21.3841 124.171 20.843C124.524 20.421 124.841 19.9636 125.164 19.5159C125.214 19.4467 125.228 19.3412 125.229 19.2494C125.232 15.5974 125.232 11.9439 125.232 8.28953V8.05278ZM133.436 8.55366V3.22111H135.896V8.53916H139.696V10.7722H135.899V10.9735C135.899 13.9385 135.894 16.902 135.903 19.8662C135.904 20.4919 135.926 21.1208 135.986 21.7449C136.084 22.7531 136.825 23.3716 137.811 23.2725C138.514 23.2033 139.214 23.0905 139.915 22.9987C139.937 22.9955 139.957 22.9955 139.993 22.9931C140.152 23.7774 140.313 24.5594 140.48 25.3783C139.929 25.4798 139.401 25.5941 138.865 25.6706C138.168 25.7689 137.468 25.8083 136.765 25.719C135.829 25.5982 135.018 25.2036 134.351 24.511C133.817 23.9538 133.568 23.2548 133.472 22.4914C133.446 22.2653 133.435 22.0377 133.438 21.8101C133.436 18.2122 133.435 14.6158 133.435 11.0178V10.7754H130.098V8.55285L133.436 8.55366Z" fill="#0E0E0E"/>
</g>
<defs>
<clipPath id="clip0_1370_596">
<rect width="158" height="26" fill="white"/>
</clipPath>
</defs>
</svg>
