<svg version="1.1" id="Layer_1" xmlns="http://www.w3.org/2000/svg" xmlns:xlink="http://www.w3.org/1999/xlink" x="0px" y="0px"
	 width="100%" viewBox="0 0 608 121" enable-background="new 0 0 608 121" xml:space="preserve">
<path fill="#039999" opacity="1.000000" stroke="none" 
	d="
M446.000000,122.000000 
	C297.384155,122.000000 149.268280,122.000000 1.076211,122.000000 
	C1.076211,81.731422 1.076211,41.462669 1.076211,1.096956 
	C203.666641,1.096956 406.333313,1.096956 608.972046,1.096956 
	C608.972046,41.398296 608.972046,81.699158 608.972046,122.000000 
	C554.796082,122.000000 500.648041,122.000000 446.000000,122.000000 
M483.470215,34.136559 
	C483.774292,34.362785 484.078400,34.589012 484.276886,34.790310 
	C484.276886,34.790310 484.310516,34.687149 484.167480,35.660004 
	C484.167480,54.071743 484.167480,72.483482 484.167480,90.895226 
	C484.510803,90.893684 484.854126,90.892136 485.197449,90.890594 
	C485.197449,72.780441 485.197449,54.670288 485.633545,37.329552 
	C485.633545,55.883259 485.633545,74.436966 485.633545,92.803703 
	C488.980560,92.803703 491.374176,92.803703 494.137451,92.803703 
	C494.137451,82.671127 494.137451,72.925957 494.137451,63.554337 
	C501.128082,62.725014 507.810669,62.494534 514.208191,61.023918 
	C521.405212,59.369534 524.535156,54.300148 524.591248,46.538372 
	C524.649536,38.465172 521.481934,32.576195 514.175964,31.651279 
	C501.829681,30.088268 489.291656,30.039627 476.834259,29.354231 
	C476.758118,29.940063 476.681976,30.525898 476.605835,31.111731 
	C478.160553,31.704866 479.715271,32.298000 480.883545,33.068222 
	C481.675476,33.304153 482.467407,33.540089 483.142303,33.811733 
	C483.142303,33.811733 483.112518,33.693085 483.470215,34.136559 
M186.295090,88.431076 
	C187.352646,89.891068 188.410217,91.351059 190.051193,92.979744 
	C192.927643,92.979744 195.804092,92.979744 198.930649,92.979744 
	C192.581680,82.303787 186.541687,72.147415 180.396713,61.814491 
	C183.044510,61.057331 184.991867,60.635193 186.840393,59.947449 
	C193.236267,57.567825 196.281158,53.116703 196.326462,46.282845 
	C196.394196,36.064541 191.223694,30.743322 179.649033,30.173143 
	C170.038162,29.699703 160.389206,29.993250 150.757065,29.974165 
	C150.226486,29.973112 149.695435,30.221016 148.618164,30.488941 
	C151.754028,33.442745 157.654037,31.344831 157.526627,37.739109 
	C157.370468,38.376781 157.079407,39.014133 157.077881,39.652180 
	C157.038269,56.169861 157.003326,72.687714 157.066269,89.205154 
	C157.070923,90.424103 157.818329,91.640228 158.770523,92.964363 
	C161.428650,92.928261 164.086792,92.892159 167.275360,92.241920 
	C167.519516,84.620804 167.517929,76.978874 168.160416,69.391487 
	C168.348557,67.169785 170.367798,65.103142 171.817566,63.157932 
	C171.817566,63.157932 171.845123,63.488232 171.737152,64.178291 
	C172.620880,65.370071 173.504608,66.561852 174.311218,67.762741 
	C174.311218,67.762741 174.312180,67.685104 174.294632,68.414055 
	C175.323563,69.861519 176.352493,71.308990 177.305908,72.766174 
	C177.305908,72.766174 177.309036,72.690094 177.292801,73.418243 
	C178.324341,74.865158 179.355896,76.312065 180.306686,77.767021 
	C180.306686,77.767021 180.308578,77.685890 180.292847,78.414948 
	C181.323547,79.861382 182.354263,81.307816 183.309448,82.764259 
	C183.309448,82.764259 183.312302,82.688126 183.295334,83.416382 
	C184.324036,84.863533 185.352753,86.310677 186.305817,87.766113 
	C186.305817,87.766113 186.307465,87.690041 186.295090,88.431076 
M209.250778,34.820595 
	C209.250778,34.820595 209.295715,34.700394 209.160645,35.673225 
	C209.160645,54.130665 209.160645,72.588104 209.160645,91.045547 
	C209.944153,89.317436 209.932770,87.580383 209.945908,85.843506 
	C210.068130,69.686203 210.194595,53.528931 210.675949,38.200405 
	C210.675949,56.428837 210.675949,74.657265 210.675949,93.728889 
	C219.623932,93.112442 227.801025,93.125069 235.773438,91.853943 
	C245.717178,90.268494 252.043625,84.095360 254.273300,74.047256 
	C256.255219,65.115768 256.208466,56.192730 253.849960,47.374077 
	C252.190399,41.168793 248.658966,36.146118 242.595459,33.532970 
	C229.304840,27.805220 215.380249,30.696030 201.726196,29.889215 
	C201.664322,30.294195 201.602463,30.699175 201.540588,31.104156 
	C203.738266,31.974934 205.935944,32.845711 208.485031,34.157215 
	C208.781204,34.390800 209.077377,34.624390 209.250778,34.820595 
M76.742996,30.765186 
	C76.494965,32.699924 76.045044,34.633350 76.032425,36.569622 
	C75.962509,47.300735 76.011436,58.032570 75.986214,68.764076 
	C75.982208,70.468590 75.808449,72.172699 75.698540,74.138802 
	C74.240913,73.661377 73.463654,73.406792 72.174072,72.715843 
	C64.645210,59.596802 57.144939,46.461140 49.543396,33.384346 
	C48.780640,32.072186 47.457386,30.216864 46.303169,30.148361 
	C40.643127,29.812445 34.952255,29.995985 27.960850,29.995985 
	C38.206070,35.665314 38.205620,35.665314 38.206726,47.165600 
	C38.208118,61.657330 38.203766,76.149071 38.230518,90.640755 
	C38.231941,91.411331 38.499058,92.181419 38.640331,92.940125 
	C40.150307,92.940125 41.412464,92.940125 43.251114,92.940125 
	C43.251114,74.935295 43.251114,57.164444 43.251114,39.393593 
	C43.508717,39.368103 43.766319,39.342613 44.023922,39.317123 
	C44.299820,39.883324 44.575714,40.449528 44.467087,41.739944 
	C44.467087,58.125702 44.467087,74.511459 44.467087,90.897217 
	C44.997799,77.793221 44.891563,64.688408 45.112926,51.589130 
	C45.145935,49.635765 46.718922,47.708427 47.997414,46.277496 
	C56.117771,60.394901 64.431847,74.406395 72.242889,88.692909 
	C74.651222,93.097778 77.487366,93.977242 81.897697,92.736061 
	C81.897697,71.826614 81.897697,51.065243 81.897697,30.156210 
	C80.210190,30.156210 78.742882,30.156210 76.742996,30.765186 
M461.766663,93.153191 
	C464.040771,93.153191 466.314880,93.153191 468.706360,93.153191 
	C468.706360,71.914749 468.706360,51.176289 468.706360,30.167490 
	C467.180542,30.091501 465.856415,30.172855 464.591431,29.936958 
	C459.222839,28.935825 456.853516,31.292669 455.231171,36.434986 
	C450.582794,51.168541 445.318085,65.707756 440.279053,80.317650 
	C439.940369,81.299530 439.462708,82.233475 438.733490,83.921753 
	C432.849335,66.771202 427.289734,50.450901 421.601624,34.175514 
	C421.063385,32.635494 419.788849,30.240608 418.736603,30.175535 
	C412.572510,29.794333 406.372864,29.988386 398.943665,29.988386 
	C409.033539,36.041969 409.035370,36.041969 409.036835,47.771915 
	C409.038727,62.735523 409.037292,77.699127 409.037292,92.915741 
	C410.790222,92.915741 412.173523,92.915741 413.964020,92.915741 
	C413.964020,83.422737 413.964020,74.126724 413.964020,64.830711 
	C413.964020,55.626606 413.964020,46.422504 413.964020,37.218399 
	C415.204224,38.293247 415.637909,39.478271 416.038208,40.674446 
	C421.470642,56.906178 426.960785,73.119110 432.267487,89.391869 
	C433.178864,92.186501 434.377228,93.358322 437.483154,93.314590 
	C440.428192,93.273125 441.419861,92.083969 442.259613,89.512833 
	C445.819214,78.614296 449.614044,67.792572 453.920990,56.676571 
	C455.453156,53.691410 456.985291,50.706253 458.996063,46.788551 
	C458.996063,60.933285 458.920898,74.073425 459.078735,87.210785 
	C459.101868,89.137566 460.232819,91.051048 461.766663,93.153191 
M121.391640,94.193459 
	C130.977554,93.963219 138.301559,89.966850 141.423141,80.630753 
	C145.599960,68.138596 145.658463,55.364761 141.336319,42.890091 
	C137.970093,33.174408 130.227554,28.689457 118.951859,28.946898 
	C108.025848,29.196354 100.973961,34.037708 97.790520,43.893299 
	C94.543854,53.944611 94.551025,64.280121 96.536812,74.509804 
	C99.240044,88.435356 106.236565,93.956497 121.391640,94.193459 
M394.050323,50.569904 
	C393.689270,48.945919 393.407379,47.299492 392.954407,45.701565 
	C389.820099,34.645435 382.210449,28.985044 370.495850,28.948092 
	C358.251892,28.909468 350.790680,34.289822 347.780975,45.816662 
	C344.995728,56.483871 345.002808,67.277504 347.905609,77.922089 
	C350.979401,89.193779 358.497375,94.324509 371.049591,94.203712 
	C382.845459,94.090195 390.756500,88.843452 392.796875,77.677055 
	C394.357788,69.134422 393.761658,60.197666 394.050323,50.569904 
M539.505554,87.985970 
	C552.364014,99.181503 572.629333,95.742256 578.035278,81.011246 
	C582.697571,68.306702 582.561768,55.176590 577.954590,42.420025 
	C574.572388,33.055218 566.843628,28.711758 555.779785,28.949774 
	C545.038086,29.180861 537.992920,33.838238 534.788025,43.360641 
	C531.198608,54.025650 531.164856,64.990425 533.718994,75.821114 
	C534.678223,79.888672 537.206604,83.586197 539.505554,87.985970 
M303.856812,87.649986 
	C313.663635,96.521515 324.974792,95.020111 336.380798,92.176071 
	C337.417480,91.917572 338.059784,90.077370 338.885223,88.971672 
	C335.760010,88.651443 333.683990,89.222122 331.575287,89.619102 
	C317.941742,92.185616 307.659912,86.425629 304.967194,72.868248 
	C303.258087,64.263229 303.862854,55.092918 304.314789,46.221199 
	C304.474884,43.078323 306.749542,39.634514 308.941742,37.088272 
	C313.607391,31.669142 325.278198,32.097031 327.521698,38.071468 
	C329.859131,44.296032 333.786743,42.768433 339.470398,42.445728 
	C337.225555,38.960403 335.977234,35.795254 333.721405,33.731224 
	C323.704285,24.565805 303.429901,28.526434 297.317383,40.601463 
	C290.464081,54.139881 293.267670,75.780479 303.856812,87.649986 
M83.997177,72.499557 
	C83.997177,58.979519 83.997177,45.459480 83.997177,31.939442 
	C83.793282,31.942387 83.589394,31.945330 83.385498,31.948275 
	C83.385498,51.588203 83.385498,71.228127 83.385498,90.868057 
	C83.589386,90.868294 83.793274,90.868523 83.997162,90.868759 
	C83.997162,85.078888 83.997162,79.289009 83.997177,72.499557 
z"/>
<path fill="#F6FCFC" opacity="1.000000" stroke="none" 
	d="
M453.322937,56.942780 
	C449.614044,67.792572 445.819214,78.614296 442.259613,89.512833 
	C441.419861,92.083969 440.428192,93.273125 437.483154,93.314590 
	C434.377228,93.358322 433.178864,92.186501 432.267487,89.391869 
	C426.960785,73.119110 421.470642,56.906178 416.038208,40.674446 
	C415.637909,39.478271 415.204224,38.293247 413.964020,37.218399 
	C413.964020,46.422504 413.964020,55.626606 413.964020,64.830711 
	C413.964020,74.126724 413.964020,83.422737 413.964020,92.915741 
	C412.173523,92.915741 410.790222,92.915741 409.037292,92.915741 
	C409.037292,77.699127 409.038727,62.735523 409.036835,47.771915 
	C409.035370,36.041969 409.033539,36.041969 398.943665,29.988386 
	C406.372864,29.988386 412.572510,29.794333 418.736603,30.175535 
	C419.788849,30.240608 421.063385,32.635494 421.601624,34.175514 
	C427.289734,50.450901 432.849335,66.771202 438.733490,83.921753 
	C439.462708,82.233475 439.940369,81.299530 440.279053,80.317650 
	C445.318085,65.707756 450.582794,51.168541 455.231171,36.434986 
	C456.853516,31.292669 459.222839,28.935825 464.591431,29.936958 
	C465.856415,30.172855 467.180542,30.091501 468.706360,30.167490 
	C468.706360,51.176289 468.706360,71.914749 468.706360,93.153191 
	C466.314880,93.153191 464.040771,93.153191 461.305664,92.598511 
	C460.817535,74.386108 460.790375,56.728382 460.846313,38.757874 
	C460.850739,37.827152 460.772034,37.209225 460.693329,36.591293 
	C460.482635,36.550014 460.271912,36.508736 460.061218,36.467453 
	C459.740356,37.630692 459.419495,38.793930 458.924377,40.285538 
	C456.941071,46.056866 455.132019,51.499825 453.322937,56.942780 
z"/>
<path fill="#EFFAFA" opacity="1.000000" stroke="none" 
	d="
M166.744919,92.856064 
	C164.086792,92.892159 161.428650,92.928261 158.541718,92.457199 
	C158.333862,85.954140 158.413651,79.957741 158.363495,73.962425 
	C158.260544,61.652782 158.087997,49.343719 157.944107,37.034416 
	C157.654037,31.344831 151.754028,33.442745 148.618164,30.488941 
	C149.695435,30.221016 150.226486,29.973112 150.757065,29.974165 
	C160.389206,29.993250 170.038162,29.699703 179.649033,30.173143 
	C191.223694,30.743322 196.394196,36.064541 196.326462,46.282845 
	C196.281158,53.116703 193.236267,57.567825 186.840393,59.947449 
	C184.991867,60.635193 183.044510,61.057331 180.396713,61.814491 
	C186.541687,72.147415 192.581680,82.303787 198.930649,92.979744 
	C195.804092,92.979744 192.927643,92.979744 189.634155,92.583664 
	C188.247238,90.688408 187.277344,89.189224 186.307465,87.690041 
	C186.307465,87.690041 186.305817,87.766113 186.236343,87.446259 
	C185.215347,85.646973 184.263824,84.167549 183.312302,82.688126 
	C183.312302,82.688126 183.309448,82.764259 183.238098,82.444244 
	C182.214005,80.644791 181.261292,79.165344 180.308578,77.685890 
	C180.308578,77.685890 180.306686,77.767021 180.237656,77.447357 
	C179.215424,75.648491 178.262238,74.169296 177.309036,72.690094 
	C177.309036,72.690094 177.305908,72.766174 177.236786,72.445602 
	C176.215836,70.645050 175.264008,69.165077 174.312180,67.685104 
	C174.312180,67.685104 174.311218,67.762741 174.248596,67.458450 
	C173.405685,65.932182 172.625397,64.710205 171.845123,63.488232 
	C171.845123,63.488232 171.817566,63.157932 171.435623,62.782074 
	C169.670334,62.406219 168.286987,62.406219 166.744919,62.406219 
	C166.744919,72.812988 166.744919,82.834518 166.744919,92.856064 
M169.808258,33.873756 
	C168.756866,35.140453 166.856384,36.368496 166.796646,37.680351 
	C166.489151,44.434689 166.654068,51.210533 166.654068,58.863914 
	C171.203384,58.323879 175.355957,58.304825 179.232132,57.260193 
	C185.104691,55.677525 187.676270,50.858639 187.126617,43.980278 
	C186.676971,38.353325 183.259033,34.843311 177.179916,34.015404 
	C175.054520,33.725952 172.874878,33.835026 169.808258,33.873756 
z"/>
<path fill="#F6FCFC" opacity="1.000000" stroke="none" 
	d="
M208.133621,33.716492 
	C205.935944,32.845711 203.738266,31.974934 201.540588,31.104156 
	C201.602463,30.699175 201.664322,30.294195 201.726196,29.889215 
	C215.380249,30.696030 229.304840,27.805220 242.595459,33.532970 
	C248.658966,36.146118 252.190399,41.168793 253.849960,47.374077 
	C256.208466,56.192730 256.255219,65.115768 254.273300,74.047256 
	C252.043625,84.095360 245.717178,90.268494 235.773438,91.853943 
	C227.801025,93.125069 219.623932,93.112442 210.675949,93.728889 
	C210.675949,74.657265 210.675949,56.428837 210.520020,37.486862 
	C210.007950,36.082344 209.651840,35.391369 209.295715,34.700394 
	C209.295715,34.700394 209.250778,34.820595 209.196564,34.561028 
	C208.806091,34.106472 208.469864,33.911480 208.133621,33.716492 
M245.947632,69.987778 
	C245.936508,64.183693 246.408432,58.329750 245.815506,52.585724 
	C244.509262,39.931217 237.206146,33.611633 225.130707,33.608627 
	C220.731415,33.607533 218.805038,35.213749 218.848633,39.761086 
	C218.988876,54.393272 218.861099,69.027809 218.918152,83.661125 
	C218.938232,88.815323 220.369202,89.757324 225.641556,89.739502 
	C235.414505,89.706467 244.670334,81.548813 245.947632,69.987778 
z"/>
<path fill="#F5FCFC" opacity="1.000000" stroke="none" 
	d="
M120.926575,94.200058 
	C106.236565,93.956497 99.240044,88.435356 96.536812,74.509804 
	C94.551025,64.280121 94.543854,53.944611 97.790520,43.893299 
	C100.973961,34.037708 108.025848,29.196354 118.951859,28.946898 
	C130.227554,28.689457 137.970093,33.174408 141.336319,42.890091 
	C145.658463,55.364761 145.599960,68.138596 141.423141,80.630753 
	C138.301559,89.966850 130.977554,93.963219 120.926575,94.200058 
M104.927681,51.833565 
	C104.815948,56.784481 104.269539,61.774380 104.709068,66.675865 
	C105.193497,72.078209 105.763832,77.753784 107.872368,82.628868 
	C109.233788,85.776566 113.288795,89.600449 116.376602,89.825211 
	C126.875961,90.589470 132.504700,87.778328 133.634415,77.485222 
	C134.783188,67.018311 133.981247,56.325184 133.796173,45.735268 
	C133.763184,43.846767 132.734100,41.902115 131.886536,40.115467 
	C129.522858,35.132931 125.514175,32.609535 119.966019,32.608135 
	C114.473129,32.606750 110.111259,34.802082 107.984482,39.938507 
	C106.545509,43.413788 105.965569,47.244747 104.927681,51.833565 
z"/>
<path fill="#F6FCFC" opacity="1.000000" stroke="none" 
	d="
M394.087646,51.003059 
	C393.761658,60.197666 394.357788,69.134422 392.796875,77.677055 
	C390.756500,88.843452 382.845459,94.090195 371.049591,94.203712 
	C358.497375,94.324509 350.979401,89.193779 347.905609,77.922089 
	C345.002808,67.277504 344.995728,56.483871 347.780975,45.816662 
	C350.790680,34.289822 358.251892,28.909468 370.495850,28.948092 
	C382.210449,28.985044 389.820099,34.645435 392.954407,45.701565 
	C393.407379,47.299492 393.689270,48.945919 394.087646,51.003059 
M383.744049,43.100342 
	C380.307587,34.995949 376.344696,32.137009 369.268829,32.657501 
	C362.615143,33.146942 358.106506,37.180603 356.515778,45.299202 
	C354.288055,56.669075 353.945099,68.179161 356.985382,79.478447 
	C359.257599,87.923195 363.252747,90.392136 372.874817,90.300941 
	C377.838745,90.253891 382.319122,86.057602 383.952484,79.059135 
	C386.679260,67.375778 386.537415,55.610996 383.744049,43.100342 
z"/>
<path fill="#F6FCFC" opacity="1.000000" stroke="none" 
	d="
M539.262573,87.719193 
	C537.206604,83.586197 534.678223,79.888672 533.718994,75.821114 
	C531.164856,64.990425 531.198608,54.025650 534.788025,43.360641 
	C537.992920,33.838238 545.038086,29.180861 555.779785,28.949774 
	C566.843628,28.711758 574.572388,33.055218 577.954590,42.420025 
	C582.561768,55.176590 582.697571,68.306702 578.035278,81.011246 
	C572.629333,95.742256 552.364014,99.181503 539.262573,87.719193 
M542.913330,44.698746 
	C542.401917,48.142712 541.300537,51.620171 541.493713,55.024120 
	C541.998230,63.909477 542.358459,72.909645 544.150940,81.579826 
	C545.465332,87.937691 550.788025,90.880280 556.820862,90.755020 
	C562.983582,90.627060 567.483887,87.626190 569.251892,81.792458 
	C573.294495,68.453415 573.463745,54.891228 569.229309,41.607872 
	C566.799316,33.985115 559.995850,30.966732 552.453430,33.145412 
	C547.071289,34.700066 544.636536,38.954048 542.913330,44.698746 
z"/>
<path fill="#F4FBFB" opacity="1.000000" stroke="none" 
	d="
M44.851608,41.015728 
	C44.575714,40.449528 44.299820,39.883324 44.023922,39.317123 
	C43.766319,39.342613 43.508717,39.368103 43.251114,39.393593 
	C43.251114,57.164444 43.251114,74.935295 43.251114,92.940125 
	C41.412464,92.940125 40.150307,92.940125 38.640331,92.940125 
	C38.499058,92.181419 38.231941,91.411331 38.230518,90.640755 
	C38.203766,76.149071 38.208118,61.657330 38.206726,47.165600 
	C38.205620,35.665314 38.206070,35.665314 27.960850,29.995985 
	C34.952255,29.995985 40.643127,29.812445 46.303169,30.148361 
	C47.457386,30.216864 48.780640,32.072186 49.543396,33.384346 
	C57.144939,46.461140 64.645210,59.596802 72.525192,73.271004 
	C74.103653,76.010422 75.330994,78.194679 77.275574,81.655396 
	C77.275574,63.409508 77.275574,46.782860 77.275574,30.156210 
	C78.742882,30.156210 80.210190,30.156210 81.897697,30.156210 
	C81.897697,51.065243 81.897697,71.826614 81.897697,92.736061 
	C77.487366,93.977242 74.651222,93.097778 72.242889,88.692909 
	C64.431847,74.406395 56.117771,60.394901 47.650665,45.711403 
	C46.486481,43.768784 45.669044,42.392254 44.851608,41.015728 
z"/>
<path fill="#F6FCFC" opacity="1.000000" stroke="none" 
	d="
M481.269989,32.891132 
	C479.715271,32.298000 478.160553,31.704866 476.605835,31.111731 
	C476.681976,30.525898 476.758118,29.940063 476.834259,29.354231 
	C489.291656,30.039627 501.829681,30.088268 514.175964,31.651279 
	C521.481934,32.576195 524.649536,38.465172 524.591248,46.538372 
	C524.535156,54.300148 521.405212,59.369534 514.208191,61.023918 
	C507.810669,62.494534 501.128082,62.725014 494.137451,63.554337 
	C494.137451,72.925957 494.137451,82.671127 494.137451,92.803703 
	C491.374176,92.803703 488.980560,92.803703 485.633545,92.803703 
	C485.633545,74.436966 485.633545,55.883259 485.404114,36.671265 
	C484.886658,35.571037 484.598572,35.129089 484.310516,34.687149 
	C484.310516,34.687149 484.276886,34.790310 484.204529,34.529503 
	C483.792297,34.076824 483.452423,33.884953 483.112518,33.693085 
	C483.112518,33.693085 483.142303,33.811733 483.027130,33.565674 
	C482.364624,33.176781 481.817322,33.033955 481.269989,32.891132 
M493.932159,56.325298 
	C494.714508,57.253559 495.370209,58.787197 496.305847,58.983002 
	C498.205444,59.380535 500.259460,59.115559 502.244507,59.016701 
	C512.532166,58.504364 516.889832,53.049973 515.101562,42.971714 
	C513.847595,35.904896 508.419922,32.890270 498.949310,33.699005 
	C495.506287,33.993015 493.835449,35.351479 493.915710,38.942368 
	C494.037933,44.409721 493.937195,49.882065 493.932159,56.325298 
z"/>
<path fill="#F6FCFC" opacity="1.000000" stroke="none" 
	d="
M303.602020,87.397583 
	C293.267670,75.780479 290.464081,54.139881 297.317383,40.601463 
	C303.429901,28.526434 323.704285,24.565805 333.721405,33.731224 
	C335.977234,35.795254 337.225555,38.960403 339.470398,42.445728 
	C333.786743,42.768433 329.859131,44.296032 327.521698,38.071468 
	C325.278198,32.097031 313.607391,31.669142 308.941742,37.088272 
	C306.749542,39.634514 304.474884,43.078323 304.314789,46.221199 
	C303.862854,55.092918 303.258087,64.263229 304.967194,72.868248 
	C307.659912,86.425629 317.941742,92.185616 331.575287,89.619102 
	C333.683990,89.222122 335.760010,88.651443 338.885223,88.971672 
	C338.059784,90.077370 337.417480,91.917572 336.380798,92.176071 
	C324.974792,95.020111 313.663635,96.521515 303.602020,87.397583 
z"/>
<path fill="#078F8E" opacity="1.000000" stroke="none" 
	d="
M453.621948,56.809677 
	C455.132019,51.499825 456.941071,46.056866 459.135834,40.181385 
	C459.935425,39.522800 460.349335,39.296734 460.763245,39.070663 
	C460.790375,56.728382 460.817535,74.386108 460.847961,92.507263 
	C460.232819,91.051048 459.101868,89.137566 459.078735,87.210785 
	C458.920898,74.073425 458.996063,60.933285 458.996063,46.788551 
	C456.985291,50.706253 455.453156,53.691410 453.621948,56.809677 
z"/>
<path fill="#028A8A" opacity="1.000000" stroke="none" 
	d="
M83.997169,72.999344 
	C83.997162,79.289009 83.997162,85.078888 83.997162,90.868759 
	C83.793274,90.868523 83.589386,90.868294 83.385498,90.868057 
	C83.385498,71.228127 83.385498,51.588203 83.385498,31.948275 
	C83.589394,31.945330 83.793282,31.942387 83.997177,31.939442 
	C83.997177,45.459480 83.997177,58.979519 83.997169,72.999344 
z"/>
<path fill="#078F8E" opacity="1.000000" stroke="none" 
	d="
M77.009285,30.460697 
	C77.275574,46.782860 77.275574,63.409508 77.275574,81.655396 
	C75.330994,78.194679 74.103653,76.010422 72.781357,73.489182 
	C73.463654,73.406792 74.240913,73.661377 75.698540,74.138802 
	C75.808449,72.172699 75.982208,70.468590 75.986214,68.764076 
	C76.011436,58.032570 75.962509,47.300735 76.032425,36.569622 
	C76.045044,34.633350 76.494965,32.699924 77.009285,30.460697 
z"/>
<path fill="#028A8A" opacity="1.000000" stroke="none" 
	d="
M209.228180,35.186810 
	C209.651840,35.391369 210.007950,36.082344 210.341949,37.072487 
	C210.194595,53.528931 210.068130,69.686203 209.945908,85.843506 
	C209.932770,87.580383 209.944153,89.317436 209.160645,91.045547 
	C209.160645,72.588104 209.160645,54.130665 209.228180,35.186810 
z"/>
<path fill="#028A8A" opacity="1.000000" stroke="none" 
	d="
M484.239014,35.173576 
	C484.598572,35.129089 484.886658,35.571037 485.186096,36.286560 
	C485.197449,54.670288 485.197449,72.780441 485.197449,90.890594 
	C484.854126,90.892136 484.510803,90.893684 484.167480,90.895226 
	C484.167480,72.483482 484.167480,54.071743 484.239014,35.173576 
z"/>
<path fill="#028A8A" opacity="1.000000" stroke="none" 
	d="
M44.659348,41.377838 
	C45.669044,42.392254 46.486481,43.768784 47.441700,45.457176 
	C46.718922,47.708427 45.145935,49.635765 45.112926,51.589130 
	C44.891563,64.688408 44.997799,77.793221 44.467087,90.897217 
	C44.467087,74.511459 44.467087,58.125702 44.659348,41.377838 
z"/>
<path fill="#028A8A" opacity="1.000000" stroke="none" 
	d="
M157.735367,37.386765 
	C158.087997,49.343719 158.260544,61.652782 158.363495,73.962425 
	C158.413651,79.957741 158.333862,85.954140 158.266663,92.403854 
	C157.818329,91.640228 157.070923,90.424103 157.066269,89.205154 
	C157.003326,72.687714 157.038269,56.169861 157.077881,39.652180 
	C157.079407,39.014133 157.370468,38.376781 157.735367,37.386765 
z"/>
<path fill="#078F8E" opacity="1.000000" stroke="none" 
	d="
M167.010132,92.548988 
	C166.744919,82.834518 166.744919,72.812988 166.744919,62.406219 
	C168.286987,62.406219 169.670334,62.406219 171.300720,62.685822 
	C170.367798,65.103142 168.348557,67.169785 168.160416,69.391487 
	C167.517929,76.978874 167.519516,84.620804 167.010132,92.548988 
z"/>
<path fill="#078F8E" opacity="1.000000" stroke="none" 
	d="
M174.303406,68.049576 
	C175.264008,69.165077 176.215836,70.645050 177.274536,72.440742 
	C176.352493,71.308990 175.323563,69.861519 174.303406,68.049576 
z"/>
<path fill="#078F8E" opacity="1.000000" stroke="none" 
	d="
M177.300919,73.054169 
	C178.262238,74.169296 179.215424,75.648491 180.278046,77.443329 
	C179.355896,76.312065 178.324341,74.865158 177.300919,73.054169 
z"/>
<path fill="#078F8E" opacity="1.000000" stroke="none" 
	d="
M180.300720,78.050415 
	C181.261292,79.165344 182.214005,80.644791 183.275848,82.439240 
	C182.354263,81.307816 181.323547,79.861382 180.300720,78.050415 
z"/>
<path fill="#078F8E" opacity="1.000000" stroke="none" 
	d="
M183.303818,83.052254 
	C184.263824,84.167549 185.215347,85.646973 186.274170,87.442108 
	C185.352753,86.310677 184.324036,84.863533 183.303818,83.052254 
z"/>
<path fill="#078F8E" opacity="1.000000" stroke="none" 
	d="
M186.301270,88.060562 
	C187.277344,89.189224 188.247238,90.688408 189.342453,92.499313 
	C188.410217,91.351059 187.352646,89.891068 186.301270,88.060562 
z"/>
<path fill="#078F8E" opacity="1.000000" stroke="none" 
	d="
M171.791138,63.833260 
	C172.625397,64.710205 173.405685,65.932182 174.287140,67.453896 
	C173.504608,66.561852 172.620880,65.370071 171.791138,63.833260 
z"/>
<path fill="#028A8A" opacity="1.000000" stroke="none" 
	d="
M481.076782,32.979675 
	C481.817322,33.033955 482.364624,33.176781 483.085632,33.547813 
	C482.467407,33.540089 481.675476,33.304153 481.076782,32.979675 
z"/>
<path fill="#028A8A" opacity="1.000000" stroke="none" 
	d="
M483.291382,33.914822 
	C483.452423,33.884953 483.792297,34.076824 484.257355,34.541965 
	C484.078400,34.589012 483.774292,34.362785 483.291382,33.914822 
z"/>
<path fill="#028A8A" opacity="1.000000" stroke="none" 
	d="
M208.309326,33.936852 
	C208.469864,33.911480 208.806091,34.106472 209.257935,34.579720 
	C209.077377,34.624390 208.781204,34.390800 208.309326,33.936852 
z"/>
<path fill="#039999" opacity="1.000000" stroke="none" 
	d="
M460.846313,38.757874 
	C460.349335,39.296734 459.935425,39.522800 459.310059,39.853020 
	C459.419495,38.793930 459.740356,37.630692 460.061218,36.467453 
	C460.271912,36.508736 460.482635,36.550014 460.693329,36.591293 
	C460.772034,37.209225 460.850739,37.827152 460.846313,38.757874 
z"/>
<path fill="#069998" opacity="1.000000" stroke="none" 
	d="
M170.264130,33.817932 
	C172.874878,33.835026 175.054520,33.725952 177.179916,34.015404 
	C183.259033,34.843311 186.676971,38.353325 187.126617,43.980278 
	C187.676270,50.858639 185.104691,55.677525 179.232132,57.260193 
	C175.355957,58.304825 171.203384,58.323879 166.654068,58.863914 
	C166.654068,51.210533 166.489151,44.434689 166.796646,37.680351 
	C166.856384,36.368496 168.756866,35.140453 170.264130,33.817932 
z"/>
<path fill="#049999" opacity="1.000000" stroke="none" 
	d="
M245.902802,70.430298 
	C244.670334,81.548813 235.414505,89.706467 225.641556,89.739502 
	C220.369202,89.757324 218.938232,88.815323 218.918152,83.661125 
	C218.861099,69.027809 218.988876,54.393272 218.848633,39.761086 
	C218.805038,35.213749 220.731415,33.607533 225.130707,33.608627 
	C237.206146,33.611633 244.509262,39.931217 245.815506,52.585724 
	C246.408432,58.329750 245.936508,64.183693 245.902802,70.430298 
z"/>
<path fill="#049999" opacity="1.000000" stroke="none" 
	d="
M104.964539,51.375092 
	C105.965569,47.244747 106.545509,43.413788 107.984482,39.938507 
	C110.111259,34.802082 114.473129,32.606750 119.966019,32.608135 
	C125.514175,32.609535 129.522858,35.132931 131.886536,40.115467 
	C132.734100,41.902115 133.763184,43.846767 133.796173,45.735268 
	C133.981247,56.325184 134.783188,67.018311 133.634415,77.485222 
	C132.504700,87.778328 126.875961,90.589470 116.376602,89.825211 
	C113.288795,89.600449 109.233788,85.776566 107.872368,82.628868 
	C105.763832,77.753784 105.193497,72.078209 104.709068,66.675865 
	C104.269539,61.774380 104.815948,56.784481 104.964539,51.375092 
z"/>
<path fill="#059999" opacity="1.000000" stroke="none" 
	d="
M383.845764,43.493698 
	C386.537415,55.610996 386.679260,67.375778 383.952484,79.059135 
	C382.319122,86.057602 377.838745,90.253891 372.874817,90.300941 
	C363.252747,90.392136 359.257599,87.923195 356.985382,79.478447 
	C353.945099,68.179161 354.288055,56.669075 356.515778,45.299202 
	C358.106506,37.180603 362.615143,33.146942 369.268829,32.657501 
	C376.344696,32.137009 380.307587,34.995949 383.845764,43.493698 
z"/>
<path fill="#059999" opacity="1.000000" stroke="none" 
	d="
M542.990356,44.300339 
	C544.636536,38.954048 547.071289,34.700066 552.453430,33.145412 
	C559.995850,30.966732 566.799316,33.985115 569.229309,41.607872 
	C573.463745,54.891228 573.294495,68.453415 569.251892,81.792458 
	C567.483887,87.626190 562.983582,90.627060 556.820862,90.755020 
	C550.788025,90.880280 545.465332,87.937691 544.150940,81.579826 
	C542.358459,72.909645 541.998230,63.909477 541.493713,55.024120 
	C541.300537,51.620171 542.401917,48.142712 542.990356,44.300339 
z"/>
<path fill="#049999" opacity="1.000000" stroke="none" 
	d="
M493.931641,55.838791 
	C493.937195,49.882065 494.037933,44.409721 493.915710,38.942368 
	C493.835449,35.351479 495.506287,33.993015 498.949310,33.699005 
	C508.419922,32.890270 513.847595,35.904896 515.101562,42.971714 
	C516.889832,53.049973 512.532166,58.504364 502.244507,59.016701 
	C500.259460,59.115559 498.205444,59.380535 496.305847,58.983002 
	C495.370209,58.787197 494.714508,57.253559 493.931641,55.838791 
z"/>
</svg>