<svg version="1.1" id="Layer_1" xmlns="http://www.w3.org/2000/svg" xmlns:xlink="http://www.w3.org/1999/xlink" x="0px" y="0px"
	 width="100%" viewBox="0 0 2478 1307" enable-background="new 0 0 2478 1307" xml:space="preserve">
<path fill="#FFFFFF" opacity="1.000000" stroke="none" 
	d="
M1832.000000,1308.000000 
	C1221.333374,1308.000000 611.166687,1308.000000 1.000000,1308.000000 
	C1.000000,872.333313 1.000000,436.666656 1.000000,1.000000 
	C827.000000,1.000000 1653.000000,1.000000 2479.000000,1.000000 
	C2479.000000,436.666656 2479.000000,872.333313 2479.000000,1308.000000 
	C2263.500000,1308.000000 2048.000000,1308.000000 1832.000000,1308.000000 
M649.467529,1048.064087 
	C652.711914,1048.055664 655.956299,1048.047363 659.534790,1048.772827 
	C664.667542,1087.075806 694.967285,1111.279907 732.893127,1106.948730 
	C760.099915,1103.841675 785.760681,1081.399414 789.673340,1048.101440 
	C828.776978,1050.892578 859.447205,1019.143311 859.081116,983.148926 
	C858.734680,949.091431 831.741272,920.080139 798.556213,918.795898 
	C761.969238,917.379944 732.543945,942.704407 728.710083,978.002808 
	C725.486633,978.005005 722.263184,978.007141 718.748108,977.219055 
	C718.589600,976.406616 718.400940,975.598816 718.276855,974.781128 
	C712.466370,936.471680 677.411377,911.890137 639.857056,920.152588 
	C613.368835,925.980347 592.082642,948.273987 588.426331,977.993896 
	C585.233643,978.007019 582.040894,978.020142 578.561707,977.270996 
	C578.417542,976.451294 578.237488,975.636047 578.134399,974.811157 
	C573.363281,936.625916 535.415161,910.950012 497.990784,920.591187 
	C464.785797,929.145508 444.610565,960.399414 450.030487,994.887573 
	C455.107117,1027.191406 485.035889,1050.154541 519.372803,1048.842773 
	C521.451050,1067.855347 529.842346,1083.533813 545.300354,1094.756104 
	C565.282104,1109.262329 587.281311,1112.020752 609.912598,1102.069214 
	C633.111267,1091.868042 645.829346,1073.391479 649.467529,1048.064087 
M1938.085449,1006.981018 
	C1938.085449,1006.981018 1937.947021,1006.807312 1937.947021,1006.807312 
	C1937.947021,1006.807312 1938.189941,1006.877502 1937.972290,1007.730469 
	C1938.184692,1008.872192 1938.381836,1010.017029 1938.611816,1011.155273 
	C1941.930542,1027.592896 1934.461304,1041.748901 1918.691895,1047.431641 
	C1913.001221,1049.482300 1906.732056,1050.648560 1900.681152,1050.849976 
	C1878.255615,1051.596191 1858.058838,1044.120483 1839.745239,1031.853027 
	C1830.190186,1025.452515 1821.682617,1017.488342 1813.155029,1010.596619 
	C1813.723755,1011.966614 1814.515869,1014.292969 1815.616821,1016.462585 
	C1827.313477,1039.513062 1846.424561,1054.481201 1869.321167,1065.104370 
	C1886.546875,1073.096558 1904.542236,1077.238403 1923.647949,1073.978149 
	C1946.510132,1070.076660 1958.109741,1051.745605 1950.608887,1029.848389 
	C1947.816040,1021.695007 1942.340454,1014.460571 1938.085449,1006.981018 
M715.813599,698.133423 
	C717.127014,697.950806 718.480774,697.914185 719.748108,697.564575 
	C774.370239,682.498901 819.395691,652.745239 853.857666,607.862671 
	C894.224365,555.289795 910.883179,495.546631 905.103699,429.508759 
	C902.418213,398.823761 894.155457,369.670319 880.358948,342.240387 
	C853.442688,288.726074 812.765747,249.126099 758.255371,224.100662 
	C710.876282,202.349152 661.138550,196.445633 610.079895,205.477386 
	C547.624390,216.525101 495.977325,247.151382 456.706268,297.014191 
	C407.785400,359.129425 390.805420,430.011230 407.690491,506.956055 
	C426.617279,593.205017 478.765686,653.527283 560.230774,687.942688 
	C570.695679,692.363708 582.026978,694.733887 593.140503,698.540161 
	C593.522766,698.552307 593.905090,698.564514 594.287354,698.576721 
	C593.870361,698.371765 593.453369,698.166809 592.742615,697.346191 
	C574.243347,686.513611 557.324219,673.701477 543.523926,657.159485 
	C498.271362,602.916748 485.970184,541.825195 505.954163,474.194275 
	C507.891541,467.637573 510.771637,461.359436 513.214172,454.951996 
	C514.873291,456.367401 515.393677,457.526245 515.692383,458.739685 
	C521.947266,484.144104 535.061279,505.367676 555.474182,521.647217 
	C562.600281,527.330383 571.136475,531.245300 579.036804,536.284546 
	C579.137268,536.250610 579.237793,536.216736 579.338257,536.182800 
	C579.217224,536.128052 579.096252,536.073303 578.973511,535.265869 
	C578.465637,533.860718 577.996826,532.439941 577.444397,531.052551 
	C559.235107,485.324036 555.002686,438.139282 564.370361,390.017609 
	C574.934631,335.748718 600.935852,289.735809 641.606140,252.175018 
	C647.481995,246.748383 653.864990,241.870834 660.013245,236.739197 
	C660.703552,238.481720 660.540222,239.426254 660.301208,240.351227 
	C654.740234,261.869171 654.455383,283.423737 660.132935,304.945374 
	C669.014893,338.613678 689.295349,364.748810 715.169861,386.985291 
	C725.255615,395.652924 736.642822,402.894348 746.197388,412.075562 
	C775.951721,440.666870 789.540833,475.912384 787.209473,517.209900 
	C785.540161,546.779846 775.139160,572.871155 756.096497,595.516296 
	C752.657898,599.605469 748.981445,603.494629 744.622864,608.360046 
	C769.896301,602.148987 789.905396,589.529541 806.673706,570.829895 
	C806.913818,572.024719 807.039856,572.348816 807.030579,572.669006 
	C807.011169,573.333069 807.002136,574.015076 806.846619,574.655151 
	C796.652161,616.601196 775.527344,651.815186 741.818726,679.039124 
	C733.319519,685.903381 723.973389,691.718933 714.495850,698.007019 
	C714.230957,698.115234 713.966125,698.223450 713.701233,698.331665 
	C713.856323,698.481018 714.125244,698.776184 714.149109,698.757629 
	C714.447815,698.524414 714.711121,698.245789 715.813599,698.133423 
M1750.041138,536.270508 
	C1750.134521,536.245911 1750.227905,536.221313 1750.321289,536.196716 
	C1750.203369,536.138489 1750.085449,536.080261 1749.942749,535.272461 
	C1749.302246,533.561035 1748.689087,531.838684 1748.017334,530.139526 
	C1730.704102,486.350372 1726.312622,441.080994 1734.411011,394.916870 
	C1744.211426,339.050903 1770.231079,291.589661 1811.815308,252.865540 
	C1817.914551,247.185684 1824.553955,242.085632 1830.943359,236.717300 
	C1831.478760,238.933334 1831.256470,240.381912 1830.908691,241.799713 
	C1823.400513,272.406494 1826.669434,301.850006 1840.486328,330.133484 
	C1853.657715,357.095612 1873.801758,378.124908 1897.371948,396.065613 
	C1909.059326,404.961456 1920.659180,413.826996 1929.753296,425.539673 
	C1950.369995,452.092590 1959.886108,482.084381 1958.252075,515.705017 
	C1956.769165,546.215759 1946.205688,573.049133 1926.408936,596.264160 
	C1923.156006,600.078674 1919.719238,603.736511 1915.516113,608.414001 
	C1940.804810,602.045959 1960.904907,589.564819 1978.108032,570.257507 
	C1977.959839,572.683411 1978.046631,573.698608 1977.818726,574.637329 
	C1967.678589,616.409119 1946.636597,651.504028 1913.212769,678.747986 
	C1904.620361,685.751648 1895.099243,691.615784 1885.484375,698.002991 
	C1885.220459,698.113831 1884.956421,698.224670 1884.692383,698.335510 
	C1884.848022,698.485535 1885.113770,698.783997 1885.142334,698.762878 
	C1885.448120,698.535950 1885.716553,698.258606 1886.824707,698.146606 
	C1891.005615,697.110596 1895.260986,696.308411 1899.356323,695.003601 
	C1964.389160,674.282654 2013.715576,634.069031 2046.628174,574.393799 
	C2073.083008,526.427063 2081.899658,474.843964 2075.056641,420.516022 
	C2071.465576,392.003296 2063.158691,364.897125 2049.963135,339.475220 
	C2022.975098,287.482391 1982.889404,248.882111 1929.620361,224.250809 
	C1886.690186,204.400146 1841.485474,198.148788 1794.756348,203.350479 
	C1762.715698,206.917099 1732.474854,216.825806 1704.141846,232.394363 
	C1669.846802,251.238907 1641.171753,276.483398 1618.847900,308.562653 
	C1579.902832,364.526215 1565.692749,426.499176 1576.010132,493.855682 
	C1583.600220,543.407227 1604.828613,586.707764 1638.460571,623.753662 
	C1665.777222,653.843201 1698.549683,676.235229 1736.799438,690.224426 
	C1745.630249,693.454102 1754.910889,695.453369 1764.133911,698.521912 
	C1764.516357,698.540161 1764.898926,698.558411 1765.281372,698.576660 
	C1764.858521,698.380188 1764.435669,698.183655 1763.698364,697.384705 
	C1745.231934,686.500061 1728.296753,673.699341 1714.500244,657.149719 
	C1668.182007,601.589355 1656.467896,539.218384 1678.143677,470.418243 
	C1679.799561,465.162323 1682.240845,460.153870 1684.317017,455.030426 
	C1686.125977,457.555023 1686.829468,459.867004 1687.496338,462.189514 
	C1695.780762,491.038422 1712.462402,513.713013 1737.684692,529.974792 
	C1741.501343,532.435486 1745.904419,533.986572 1750.041138,536.270508 
M1846.612671,1076.147949 
	C1842.055542,1078.454834 1837.729736,1081.695068 1832.897705,1082.892334 
	C1818.888672,1086.362793 1808.141479,1079.904053 1799.770264,1069.463257 
	C1782.995728,1048.541260 1778.852783,1023.841064 1780.571777,997.988403 
	C1781.295898,987.099182 1784.109497,976.348877 1786.162964,964.435547 
	C1782.492554,970.508850 1778.725952,975.627319 1776.102051,981.276550 
	C1764.978760,1005.226074 1763.403320,1030.290039 1768.610352,1055.894287 
	C1771.777222,1071.466309 1777.664307,1085.839355 1789.330322,1097.177734 
	C1796.549561,1104.194214 1805.012085,1108.401245 1815.400635,1107.215454 
	C1830.385376,1105.505127 1846.747925,1089.655762 1850.779419,1072.781738 
	C1849.401733,1073.893433 1848.290527,1074.790283 1846.612671,1076.147949 
M1763.385620,940.816345 
	C1777.913086,930.750000 1793.789307,923.857239 1811.238892,920.389099 
	C1808.817261,919.735168 1806.409546,919.158752 1803.978027,919.027527 
	C1776.159912,917.526001 1752.232178,927.712280 1730.567261,944.074341 
	C1716.961548,954.349915 1705.891479,966.866882 1699.864624,983.169250 
	C1692.068726,1004.256775 1700.333496,1022.156006 1720.761841,1028.420410 
	C1730.474487,1031.398682 1740.376343,1031.613403 1751.279663,1029.717529 
	C1749.253418,1028.999878 1748.053711,1028.569458 1746.850220,1028.149536 
	C1730.167358,1022.327454 1722.199707,1009.370789 1725.171387,992.078918 
	C1725.975342,987.400757 1727.671631,982.754761 1729.674683,978.425415 
	C1736.938965,962.724121 1748.961548,951.129883 1763.385620,940.816345 
M845.247375,846.786377 
	C863.157959,839.169800 872.259277,826.099792 871.955872,807.566956 
	C871.685974,791.083862 863.887451,778.835266 849.029175,771.921936 
	C833.648804,764.765686 818.382019,765.934265 804.934326,776.660278 
	C791.831726,787.111145 786.896851,801.280396 790.564880,817.617737 
	C795.958496,841.640564 819.754517,854.326538 845.247375,846.786377 
M1996.411499,848.964844 
	C1997.906494,849.037598 1999.401001,849.153503 2000.896729,849.176819 
	C2021.781006,849.501892 2038.503906,836.005981 2042.476685,815.634644 
	C2046.157837,796.759827 2035.571411,777.781311 2017.411377,770.699402 
	C1998.098511,763.167969 1976.778687,769.943665 1966.425781,787.285400 
	C1950.776611,813.498230 1967.180176,844.667053 1996.411499,848.964844 
M1238.000000,404.500000 
	C1238.000000,636.800171 1238.000000,869.100342 1238.000366,1101.400513 
	C1238.000366,1102.900146 1237.951050,1104.402832 1238.028320,1105.898682 
	C1238.086670,1107.026978 1238.310913,1108.146851 1238.461304,1109.270386 
	C1239.307495,1108.621704 1240.153809,1107.973022 1241.000000,1107.324341 
	C1241.000000,1105.548096 1241.000000,1103.771729 1241.000000,1101.995483 
	C1241.000000,803.704651 1240.999878,505.413757 1240.999634,207.122910 
	C1240.999634,205.956436 1241.195923,204.739899 1240.920898,203.641815 
	C1240.749512,202.957581 1239.863525,202.452301 1239.298218,201.866730 
	C1238.868652,202.420685 1238.156372,202.933060 1238.067505,203.537140 
	C1237.875488,204.842438 1238.000366,206.194794 1238.000366,207.527893 
	C1237.999878,272.851929 1238.000000,338.175964 1238.000000,404.500000 
M1657.030029,839.086975 
	C1657.030029,842.008789 1657.030029,844.930603 1657.030029,847.744629 
	C1661.787231,847.744629 1665.724365,847.744629 1669.776489,847.744629 
	C1671.077148,833.541870 1666.876343,822.520203 1653.029175,816.571960 
	C1653.865356,815.980713 1654.261108,815.678833 1654.677734,815.409180 
	C1665.006470,808.725281 1668.988770,800.020752 1666.883179,788.720093 
	C1665.040283,778.829712 1657.363525,771.218994 1645.572632,770.027954 
	C1635.220459,768.982178 1624.679077,769.809387 1614.019043,769.809387 
	C1614.019043,795.369507 1614.019043,821.488892 1614.019043,847.807739 
	C1618.022095,847.807739 1621.952271,847.807739 1626.177856,847.807739 
	C1626.177856,846.173096 1626.166260,844.686768 1626.179688,843.200684 
	C1626.266602,833.604736 1631.062256,827.028931 1638.737671,825.972046 
	C1648.059326,824.688416 1653.752686,828.522827 1657.030029,839.086975 
M496.089813,790.269897 
	C494.206238,779.581299 487.473511,771.714905 476.656647,770.278198 
	C465.579529,768.806946 454.279175,769.016418 443.102356,768.491394 
	C443.102356,795.644043 443.102356,821.721741 443.102356,847.874512 
	C447.194305,847.874512 451.005524,847.874512 454.800995,847.874512 
	C456.684937,831.495728 460.027527,826.083923 469.172089,826.004089 
	C472.793854,825.972473 476.962555,826.825989 479.953308,828.733215 
	C486.836365,833.122925 486.408600,840.789307 486.148743,847.767883 
	C490.825562,847.767883 494.767242,847.767883 498.787903,847.767883 
	C500.134338,833.710815 496.037811,822.720886 481.955261,816.486694 
	C492.473480,810.728821 497.277802,802.475525 496.089813,790.269897 
M352.241028,780.808167 
	C351.202850,785.292358 349.369873,789.758484 349.267334,794.263977 
	C348.873505,811.566101 349.029724,828.880859 349.008179,846.190918 
	C349.007446,846.789307 349.298370,847.388123 349.414703,847.837402 
	C353.479065,847.837402 357.273987,847.837402 361.449097,847.837402 
	C361.449097,839.242249 361.449097,830.811829 361.449097,822.121033 
	C368.729095,820.895081 375.331146,821.553711 381.370880,825.392212 
	C389.644867,830.650818 390.327179,839.084167 390.060638,847.756470 
	C394.364044,847.756470 398.266815,847.756470 402.186401,847.756470 
	C402.186401,828.892517 402.619690,810.273315 402.032990,791.686279 
	C401.646362,779.438477 393.681976,770.753540 382.512177,768.240662 
	C370.529327,765.544861 358.999054,770.166748 352.241028,780.808167 
M1573.536743,808.502075 
	C1573.418335,803.014465 1573.527222,797.510681 1573.138062,792.042297 
	C1572.028564,776.454346 1561.357300,767.405029 1544.842041,767.811340 
	C1530.833008,768.155884 1520.271362,778.690857 1520.053833,793.228577 
	C1519.787231,811.048767 1520.000244,828.876099 1520.036621,846.700256 
	C1520.037476,847.128845 1520.395630,847.556641 1520.517212,847.828613 
	C1524.489502,847.828613 1528.285522,847.828613 1532.470215,847.828613 
	C1532.470215,839.222473 1532.470215,830.790039 1532.470215,822.148621 
	C1539.776489,820.844116 1546.375854,821.582642 1552.399658,825.436218 
	C1560.636475,830.705505 1561.269165,839.179932 1561.061279,847.713074 
	C1565.432251,847.713074 1569.330444,847.713074 1573.536621,847.713074 
	C1573.536621,834.776001 1573.536621,822.138611 1573.536743,808.502075 
M941.526184,781.654907 
	C947.453613,787.083252 948.416382,791.981079 944.644531,798.905640 
	C943.382507,801.222412 941.742493,803.359924 940.093140,805.434570 
	C929.733398,818.465576 919.317993,831.452271 908.936890,844.466248 
	C908.178162,845.417480 907.544617,846.468506 906.692017,847.706848 
	C925.428345,847.706848 943.637695,847.706848 961.666321,847.706848 
	C961.666321,843.835083 961.666321,840.274170 961.666321,836.067627 
	C951.354553,836.067627 941.376831,836.067627 930.770142,836.067627 
	C933.111816,833.125549 934.889832,830.940430 936.615662,828.714783 
	C942.933594,820.567444 949.834961,812.793579 955.397888,804.158325 
	C963.383240,791.763062 959.270752,776.615601 946.270203,770.798401 
	C941.088257,768.479736 934.652344,767.925720 928.870544,768.217712 
	C919.087891,768.711670 910.164490,777.261353 908.177734,786.490173 
	C906.152954,795.895447 910.388672,806.139160 918.550110,811.210876 
	C920.768677,808.369995 923.002625,805.509399 925.234131,802.651978 
	C921.230164,797.950012 918.429504,793.126465 920.972168,786.998657 
	C923.975891,779.759460 932.438965,777.325195 941.526184,781.654907 
M2116.504395,836.470215 
	C2111.818115,836.470215 2107.131836,836.470215 2101.381348,836.470215 
	C2107.640381,828.628052 2113.098633,821.960632 2118.355957,815.138611 
	C2121.592285,810.939209 2125.061035,806.783813 2127.486084,802.120117 
	C2134.102051,789.396606 2128.960693,775.192200 2115.561279,770.048035 
	C2110.803711,768.221680 2105.141113,767.839172 2099.980225,768.171387 
	C2090.114502,768.806580 2081.280273,777.027100 2079.193359,786.320496 
	C2077.078125,795.739746 2081.090088,805.709778 2089.468018,811.254150 
	C2091.668945,808.435791 2093.891602,805.589478 2096.187012,802.650024 
	C2095.385742,801.639709 2094.634521,800.781677 2093.981445,799.854614 
	C2089.786621,793.900696 2090.026611,787.527100 2094.588379,783.061279 
	C2099.354004,778.395996 2106.874756,777.815186 2112.465576,781.680603 
	C2117.850586,785.403809 2119.269775,791.489807 2116.028076,797.992981 
	C2114.853760,800.349182 2113.326416,802.575928 2111.688477,804.646973 
	C2104.565918,813.652893 2097.331787,822.570435 2090.161377,831.538574 
	C2085.975830,836.773560 2081.833984,842.043701 2077.319580,847.743530 
	C2096.358643,847.743530 2114.563232,847.743530 2132.713379,847.743530 
	C2132.713379,843.905029 2132.713379,840.341614 2132.713379,836.470276 
	C2127.447510,836.470276 2122.473145,836.470276 2116.504395,836.470215 
M1922.032349,779.571838 
	C1915.498291,769.634705 1905.936646,766.702148 1894.712036,768.043518 
	C1884.758911,769.232910 1875.801880,777.408752 1874.068726,786.511658 
	C1872.178101,796.441956 1876.266235,806.303467 1884.449097,811.166016 
	C1886.654175,808.332520 1888.878052,805.474915 1891.063721,802.666504 
	C1885.148438,795.296570 1884.374390,789.010559 1888.622314,783.996155 
	C1893.008789,778.818237 1901.056885,777.575012 1906.781006,781.191223 
	C1912.622070,784.881287 1914.648315,791.670471 1910.749390,798.151428 
	C1907.087646,804.238159 1902.424072,809.742065 1898.010376,815.352295 
	C1889.623169,826.012878 1881.099854,836.566162 1872.190308,847.718262 
	C1891.198975,847.718262 1909.374512,847.718262 1927.491577,847.718262 
	C1927.491577,843.871704 1927.491577,840.329163 1927.491577,836.185913 
	C1917.160767,836.185913 1907.178101,836.185913 1896.510010,836.185913 
	C1904.337891,826.370361 1911.771606,817.426208 1918.774780,808.156982 
	C1925.193726,799.660950 1927.777344,790.390076 1922.032349,779.571838 
M706.234924,804.167664 
	C708.352356,806.630493 710.469788,809.093262 712.686768,811.671875 
	C713.688171,810.716431 714.216248,810.324646 714.603699,809.824036 
	C716.434143,807.459045 718.226135,805.064209 720.038086,802.671814 
	C719.171204,801.528931 718.322510,800.520142 717.593994,799.430969 
	C713.736511,793.663818 714.131470,787.334229 718.580688,783.055969 
	C723.463135,778.361145 730.866150,777.808960 736.434082,781.724304 
	C741.728760,785.447632 743.161743,791.150513 740.147583,797.586182 
	C739.033386,799.965088 737.548706,802.227173 735.923767,804.300110 
	C730.174255,811.634521 724.279602,818.854858 718.461792,826.135925 
	C712.833923,833.179199 707.233276,840.244263 701.054993,848.010925 
	C711.296021,848.010925 720.422791,848.010986 729.549561,848.010986 
	C738.625549,848.010986 747.701538,848.010925 756.575928,848.010925 
	C756.575928,843.772400 756.575928,840.336548 756.575928,836.317505 
	C746.305359,836.317505 736.299744,836.317505 725.406067,836.317505 
	C732.587219,827.367004 739.526611,819.506165 745.505127,810.972229 
	C749.125061,805.805054 752.555115,799.854614 753.765808,793.795654 
	C755.808167,783.574951 749.845337,774.469971 740.273254,770.095093 
	C729.998291,765.399048 716.689453,767.658997 709.221741,775.367859 
	C701.941772,782.882812 700.719116,793.278931 706.234924,804.167664 
M1804.125488,662.432556 
	C1836.099854,676.645020 1866.174438,654.369812 1870.259521,638.301636 
	C1863.700806,636.591858 1857.224487,634.532654 1850.593872,633.310669 
	C1846.450317,632.547119 1841.932739,632.343994 1837.840576,633.168091 
	C1833.399658,634.062439 1829.256958,637.792358 1824.985229,637.790649 
	C1820.713623,637.788879 1816.551636,634.335266 1812.151611,633.038940 
	C1800.487549,629.602356 1790.616699,638.586304 1778.463623,637.141663 
	C1784.422607,649.076843 1792.501709,657.031372 1804.125488,662.432556 
M621.384827,655.120483 
	C637.070007,667.441467 654.401428,670.281250 672.962646,663.197815 
	C685.235840,658.514282 694.499573,650.182800 699.903931,638.468445 
	C692.843201,636.616150 686.526123,634.597046 680.057373,633.392334 
	C675.911316,632.620239 671.398682,632.326599 667.310608,633.134766 
	C662.869446,634.012695 658.721985,637.797729 654.460815,637.773621 
	C650.014526,637.748596 645.680908,634.370544 641.129944,633.028320 
	C629.462158,629.587158 619.637695,638.655151 608.194763,637.172058 
	C607.919434,637.778870 607.644104,638.385620 607.368774,638.992371 
	C611.841003,644.240723 616.313293,649.489075 621.384827,655.120483 
M626.872681,791.010681 
	C630.158630,791.010681 633.444519,791.010681 636.758362,791.010681 
	C635.609436,773.742249 621.091003,764.052124 604.307861,768.793701 
	C594.898254,771.452148 588.697937,778.574585 587.736755,787.829346 
	C586.785950,796.984924 590.796021,803.984436 600.024292,808.631958 
	C603.565186,810.415283 607.438721,811.525635 611.064697,813.156128 
	C614.687561,814.785156 618.521729,816.231628 621.675720,818.555481 
	C627.927612,823.161987 627.514832,831.900635 620.678650,835.555298 
	C617.549805,837.227905 613.300537,837.865051 609.738708,837.446350 
	C602.330322,836.575623 598.943481,831.093872 597.998962,824.476562 
	C593.660889,824.476562 589.910706,824.476562 586.168945,824.476562 
	C586.341370,842.011780 602.365540,852.955872 620.501282,848.249573 
	C631.008850,845.522827 637.310242,838.396057 638.351562,828.061218 
	C639.307007,818.578247 634.761292,810.963135 625.020691,806.258667 
	C621.293091,804.458374 617.257385,803.303345 613.491638,801.572388 
	C610.045105,799.988220 606.417664,798.466858 603.504089,796.127869 
	C598.630554,792.215576 599.159302,785.183899 604.114014,781.468323 
	C611.356262,776.037231 621.708679,779.638000 624.074280,788.333984 
	C624.343506,789.323730 625.324829,790.119690 626.872681,791.010681 
M1792.907227,818.597778 
	C1799.791870,825.773438 1797.418213,834.576599 1787.873535,837.265869 
	C1778.747803,839.837097 1772.542114,835.672119 1768.674927,824.363892 
	C1764.903809,824.363892 1761.129395,824.363892 1756.916992,824.363892 
	C1757.108276,826.218689 1757.139648,827.847168 1757.459106,829.416992 
	C1760.435425,844.037720 1775.276733,852.352783 1791.107544,848.309998 
	C1804.138550,844.982239 1811.083862,834.848694 1809.013794,822.007263 
	C1807.575806,813.086182 1801.293091,808.431335 1793.653198,805.134827 
	C1788.327637,802.836853 1782.733154,801.081360 1777.616089,798.401489 
	C1771.467407,795.181213 1769.805298,790.798462 1771.866577,785.800903 
	C1774.006958,780.610779 1780.038574,777.908508 1786.020996,779.344421 
	C1792.143433,780.813965 1794.692627,785.288879 1795.538452,790.684326 
	C1799.917114,790.684326 1803.837646,790.684326 1807.755981,790.684326 
	C1807.369019,774.936768 1794.318359,765.213623 1777.116821,768.297180 
	C1764.184570,770.615601 1756.269897,782.486816 1759.067505,794.804932 
	C1761.118042,803.833740 1768.275757,807.698669 1775.955444,810.966675 
	C1781.433105,813.297668 1786.867065,815.731506 1792.907227,818.597778 
M260.048035,769.723389 
	C260.048035,795.772888 260.048035,821.822388 260.048035,847.653320 
	C264.525360,847.653320 268.416931,847.653320 272.255859,847.653320 
	C273.374176,832.039795 275.780853,828.646484 289.784149,822.094116 
	C293.830078,820.201050 297.906128,818.278748 301.673676,815.902588 
	C311.694183,809.582764 315.435608,800.021912 312.984070,787.919922 
	C311.181641,779.022217 303.104279,771.123230 292.598236,770.017639 
	C282.061127,768.908813 271.365295,769.308228 260.048035,769.723389 
M1433.633057,848.011292 
	C1436.768188,848.011292 1439.903320,848.011292 1443.740356,848.011292 
	C1441.039917,832.010071 1451.601807,825.996094 1463.504150,820.879761 
	C1466.839722,819.445923 1470.063599,817.649475 1473.112183,815.670227 
	C1482.458252,809.602356 1486.245605,799.884705 1483.996338,788.341736 
	C1482.223755,779.244812 1474.344116,771.094666 1463.975830,770.127380 
	C1453.177734,769.119995 1442.212769,769.902710 1430.990112,769.902710 
	C1430.990112,794.870422 1430.975342,820.281860 1431.060913,845.692932 
	C1431.063477,846.466125 1432.112915,847.235779 1433.633057,848.011292 
M1008.468811,817.046204 
	C1013.746826,819.412720 1018.976196,821.895996 1024.313721,824.119751 
	C1033.359497,827.888306 1036.036133,831.694946 1036.151123,841.521606 
	C1036.175537,843.609741 1036.154785,845.698364 1036.154785,847.754761 
	C1040.454102,847.754761 1044.201050,847.754761 1047.968140,847.754761 
	C1047.968140,828.416199 1047.968140,809.330200 1047.968140,790.268433 
	C1043.998901,790.268433 1040.242676,790.268433 1036.107788,790.268433 
	C1036.107788,798.922180 1036.107788,807.310059 1036.107788,815.921875 
	C1031.149658,813.850159 1026.674194,811.763977 1022.048462,810.094177 
	C1013.514465,807.013550 1009.975037,800.886902 1010.146912,792.070679 
	C1010.295288,784.461426 1010.177795,776.846863 1010.177795,769.276306 
	C1005.836365,769.276306 1001.932556,769.276306 997.954041,769.276306 
	C997.954041,779.033691 997.709656,788.517151 998.030884,797.981323 
	C998.290588,805.634766 1001.381531,812.128540 1008.468811,817.046204 
M2195.157227,824.093018 
	C2206.992676,827.940247 2208.151123,837.367798 2206.855225,847.743835 
	C2211.259033,847.743835 2214.999023,847.743835 2218.745605,847.743835 
	C2218.745605,828.409485 2218.745605,809.336548 2218.745605,790.255127 
	C2214.741943,790.255127 2211.001709,790.255127 2206.915039,790.255127 
	C2206.915039,798.900391 2206.915039,807.294006 2206.915039,815.906921 
	C2202.135254,813.889465 2197.815674,811.822205 2193.328857,810.224426 
	C2184.603271,807.117493 2180.853027,801.004944 2181.127686,791.889160 
	C2181.355469,784.321167 2181.174316,776.740906 2181.174316,769.151611 
	C2176.731445,769.151611 2172.926514,769.151611 2168.989990,769.151611 
	C2168.989990,779.122192 2168.640625,788.954773 2169.095703,798.750000 
	C2169.489990,807.237244 2173.450195,814.100220 2181.228271,818.117004 
	C2185.483643,820.314636 2190.010010,821.987244 2195.157227,824.093018 
M1720.167480,795.518433 
	C1720.167480,792.070435 1720.167480,788.622437 1720.167480,784.704651 
	C1715.698486,785.443848 1711.845337,786.081177 1708.041260,786.710449 
	C1708.041260,807.408081 1708.041260,827.508423 1708.041260,847.722778 
	C1712.152954,847.722778 1716.050781,847.722778 1720.167480,847.722778 
	C1720.167480,830.469177 1720.167480,813.492004 1720.167480,795.518433 
M536.832397,810.500000 
	C536.832397,822.922119 536.832397,835.344177 536.832397,847.638245 
	C541.323792,847.638245 545.209656,847.638245 548.975708,847.638245 
	C548.975708,826.649536 548.975708,806.023010 548.975708,784.827576 
	C544.854614,785.452148 541.003967,786.035645 536.832397,786.667847 
	C536.832397,794.556152 536.832397,802.028076 536.832397,810.500000 
M1709.653931,779.871765 
	C1713.058472,779.315613 1716.463013,778.759521 1719.968750,778.186829 
	C1719.968750,775.070557 1719.968750,772.138123 1719.968750,769.275269 
	C1715.840698,769.275269 1711.934326,769.275269 1707.369629,769.275269 
	C1707.881958,773.075867 1708.346191,776.520630 1709.653931,779.871765 
M547.815308,778.510742 
	C548.451538,775.511047 549.087830,772.511414 549.793945,769.182312 
	C544.945496,769.182312 541.027283,769.182312 536.816345,769.182312 
	C536.816345,771.691223 536.816345,774.008972 536.816345,776.326721 
	C536.816345,777.451965 536.816345,778.577148 536.816345,779.942688 
	C540.454102,779.460144 543.718445,779.027100 547.815308,778.510742 
z"/>
<path fill="#D7C378" opacity="1.000000" stroke="none" 
	d="
M1763.984619,698.018799 
	C1754.910889,695.453369 1745.630249,693.454102 1736.799438,690.224426 
	C1698.549683,676.235229 1665.777222,653.843201 1638.460571,623.753662 
	C1604.828613,586.707764 1583.600220,543.407227 1576.010132,493.855682 
	C1565.692749,426.499176 1579.902832,364.526215 1618.847900,308.562653 
	C1641.171753,276.483398 1669.846802,251.238907 1704.141846,232.394363 
	C1732.474854,216.825806 1762.715698,206.917099 1794.756348,203.350479 
	C1841.485474,198.148788 1886.690186,204.400146 1929.620361,224.250809 
	C1982.889404,248.882111 2022.975098,287.482391 2049.963135,339.475220 
	C2063.158691,364.897125 2071.465576,392.003296 2075.056641,420.516022 
	C2081.899658,474.843964 2073.083008,526.427063 2046.628174,574.393799 
	C2013.715576,634.069031 1964.389160,674.282654 1899.356323,695.003601 
	C1895.260986,696.308411 1891.005615,697.110596 1886.412354,698.073303 
	C1886.000000,698.000000 1886.004883,698.003418 1886.004883,698.003418 
	C1895.099243,691.615784 1904.620361,685.751648 1913.212769,678.747986 
	C1946.636597,651.504028 1967.678589,616.409119 1977.818726,574.637329 
	C1978.046631,573.698608 1977.959839,572.683411 1978.108032,570.257507 
	C1960.904907,589.564819 1940.804810,602.045959 1915.516113,608.414001 
	C1919.719238,603.736511 1923.156006,600.078674 1926.408936,596.264160 
	C1946.205688,573.049133 1956.769165,546.215759 1958.252075,515.705017 
	C1959.886108,482.084381 1950.369995,452.092590 1929.753296,425.539673 
	C1920.659180,413.826996 1909.059326,404.961456 1897.371948,396.065613 
	C1873.801758,378.124908 1853.657715,357.095612 1840.486328,330.133484 
	C1826.669434,301.850006 1823.400513,272.406494 1830.908691,241.799713 
	C1831.256470,240.381912 1831.478760,238.933334 1830.943359,236.717300 
	C1824.553955,242.085632 1817.914551,247.185684 1811.815308,252.865540 
	C1770.231079,291.589661 1744.211426,339.050903 1734.411011,394.916870 
	C1726.312622,441.080994 1730.704102,486.350372 1748.017334,530.139526 
	C1748.689087,531.838684 1749.302246,533.561035 1749.973389,535.632568 
	C1750.004150,535.992676 1750.036255,535.958374 1750.036255,535.958374 
	C1745.904419,533.986572 1741.501343,532.435486 1737.684692,529.974792 
	C1712.462402,513.713013 1695.780762,491.038422 1687.496338,462.189514 
	C1686.829468,459.867004 1686.125977,457.555023 1684.317017,455.030426 
	C1682.240845,460.153870 1679.799561,465.162323 1678.143677,470.418243 
	C1656.467896,539.218384 1668.182007,601.589355 1714.500244,657.149719 
	C1728.296753,673.699341 1745.231934,686.500061 1763.848511,697.693115 
	C1763.998657,698.001526 1763.984619,698.018799 1763.984619,698.018799 
z"/>
<path fill="#D7C378" opacity="1.000000" stroke="none" 
	d="
M579.028687,535.967773 
	C571.136475,531.245300 562.600281,527.330383 555.474182,521.647217 
	C535.061279,505.367676 521.947266,484.144104 515.692383,458.739685 
	C515.393677,457.526245 514.873291,456.367401 513.214172,454.951996 
	C510.771637,461.359436 507.891541,467.637573 505.954163,474.194275 
	C485.970184,541.825195 498.271362,602.916748 543.523926,657.159485 
	C557.324219,673.701477 574.243347,686.513611 592.869019,697.676514 
	C592.995361,698.006836 592.956909,698.054016 592.956909,698.054016 
	C582.026978,694.733887 570.695679,692.363708 560.230774,687.942688 
	C478.765686,653.527283 426.617279,593.205017 407.690491,506.956055 
	C390.805420,430.011230 407.785400,359.129425 456.706268,297.014191 
	C495.977325,247.151382 547.624390,216.525101 610.079895,205.477386 
	C661.138550,196.445633 710.876282,202.349152 758.255371,224.100662 
	C812.765747,249.126099 853.442688,288.726074 880.358948,342.240387 
	C894.155457,369.670319 902.418213,398.823761 905.103699,429.508759 
	C910.883179,495.546631 894.224365,555.289795 853.857666,607.862671 
	C819.395691,652.745239 774.370239,682.498901 719.748108,697.564575 
	C718.480774,697.914185 717.127014,697.950806 715.406372,698.066040 
	C714.999084,697.998718 715.016479,698.016418 715.016479,698.016418 
	C723.973389,691.718933 733.319519,685.903381 741.818726,679.039124 
	C775.527344,651.815186 796.652161,616.601196 806.846619,574.655151 
	C807.002136,574.015076 807.011169,573.333069 807.030579,572.669006 
	C807.039856,572.348816 806.913818,572.024719 806.673706,570.829895 
	C789.905396,589.529541 769.896301,602.148987 744.622864,608.360046 
	C748.981445,603.494629 752.657898,599.605469 756.096497,595.516296 
	C775.139160,572.871155 785.540161,546.779846 787.209473,517.209900 
	C789.540833,475.912384 775.951721,440.666870 746.197388,412.075562 
	C736.642822,402.894348 725.255615,395.652924 715.169861,386.985291 
	C689.295349,364.748810 669.014893,338.613678 660.132935,304.945374 
	C654.455383,283.423737 654.740234,261.869171 660.301208,240.351227 
	C660.540222,239.426254 660.703552,238.481720 660.013245,236.739197 
	C653.864990,241.870834 647.481995,246.748383 641.606140,252.175018 
	C600.935852,289.735809 574.934631,335.748718 564.370361,390.017609 
	C555.002686,438.139282 559.235107,485.324036 577.444397,531.052551 
	C577.996826,532.439941 578.465637,533.860718 578.988586,535.630615 
	C579.003662,535.995300 579.028687,535.967773 579.028687,535.967773 
z"/>
<path fill="#067BD1" opacity="1.000000" stroke="none" 
	d="
M519.300659,1048.035767 
	C485.035889,1050.154541 455.107117,1027.191406 450.030487,994.887573 
	C444.610565,960.399414 464.785797,929.145508 497.990784,920.591187 
	C535.415161,910.950012 573.363281,936.625916 578.134399,974.811157 
	C578.237488,975.636047 578.417542,976.451294 578.587158,977.961792 
	C578.691040,982.162659 578.769470,985.672729 578.680176,989.531372 
	C574.339172,1018.815979 558.363647,1037.658325 530.192139,1045.818970 
	C530.386353,1041.646973 530.733154,1037.856567 531.447327,1034.042847 
	C551.294861,1026.502686 563.160889,1012.648621 566.924072,991.552979 
	C567.083374,987.443665 567.136230,983.743835 567.278259,979.610107 
	C565.117126,957.091492 553.665649,941.415527 533.169556,933.458496 
	C513.034912,925.641724 493.925110,929.181396 477.894531,943.775452 
	C461.902435,958.334412 456.579926,976.863953 462.200195,997.790222 
	C468.918121,1022.803162 492.617065,1039.431885 519.546204,1037.308350 
	C519.576477,1041.125122 519.438538,1044.580444 519.300659,1048.035767 
z"/>
<path fill="#F02D32" opacity="1.000000" stroke="none" 
	d="
M729.725830,978.033691 
	C732.543945,942.704407 761.969238,917.379944 798.556213,918.795898 
	C831.741272,920.080139 858.734680,949.091431 859.081116,983.148926 
	C859.447205,1019.143311 828.776978,1050.892578 788.864868,1048.076172 
	C784.667847,1047.492554 781.279297,1046.934204 777.583496,1046.255859 
	C749.525818,1037.141724 733.341125,1018.475586 730.146973,989.182983 
	C734.126587,990.049316 737.697083,991.021118 741.258240,992.374512 
	C741.499878,993.884705 741.697693,995.028259 742.009827,996.139648 
	C747.231567,1014.728271 758.392395,1027.836426 777.310547,1034.263794 
	C781.342285,1035.261353 785.090027,1036.029907 789.306824,1036.883423 
	C820.358826,1038.655273 845.732544,1017.109009 847.905884,987.606934 
	C850.048706,958.519470 827.806519,931.980652 799.612183,929.984253 
	C768.313904,927.767944 742.798218,949.400513 740.353516,979.938721 
	C736.548096,979.335999 733.136963,978.684814 729.725830,978.033691 
z"/>
<path fill="#047AD1" opacity="1.000000" stroke="none" 
	d="
M1846.895996,1075.917480 
	C1848.290527,1074.790283 1849.401733,1073.893433 1850.779419,1072.781738 
	C1846.747925,1089.655762 1830.385376,1105.505127 1815.400635,1107.215454 
	C1805.012085,1108.401245 1796.549561,1104.194214 1789.330322,1097.177734 
	C1777.664307,1085.839355 1771.777222,1071.466309 1768.610352,1055.894287 
	C1763.403320,1030.290039 1764.978760,1005.226074 1776.102051,981.276550 
	C1778.725952,975.627319 1782.492554,970.508850 1786.162964,964.435547 
	C1784.109497,976.348877 1781.295898,987.099182 1780.571777,997.988403 
	C1778.852783,1023.841064 1782.995728,1048.541260 1799.770264,1069.463257 
	C1808.141479,1079.904053 1818.888672,1086.362793 1832.897705,1082.892334 
	C1837.729736,1081.695068 1842.055542,1078.454834 1846.895996,1075.917480 
z"/>
<path fill="#F02C31" opacity="1.000000" stroke="none" 
	d="
M1763.069702,940.988525 
	C1748.961548,951.129883 1736.938965,962.724121 1729.674683,978.425415 
	C1727.671631,982.754761 1725.975342,987.400757 1725.171387,992.078918 
	C1722.199707,1009.370789 1730.167358,1022.327454 1746.850220,1028.149536 
	C1748.053711,1028.569458 1749.253418,1028.999878 1751.279663,1029.717529 
	C1740.376343,1031.613403 1730.474487,1031.398682 1720.761841,1028.420410 
	C1700.333496,1022.156006 1692.068726,1004.256775 1699.864624,983.169250 
	C1705.891479,966.866882 1716.961548,954.349915 1730.567261,944.074341 
	C1752.232178,927.712280 1776.159912,917.526001 1803.978027,919.027527 
	C1806.409546,919.158752 1808.817261,919.735168 1811.238892,920.389099 
	C1793.789307,923.857239 1777.913086,930.750000 1763.069702,940.988525 
z"/>
<path fill="#04A754" opacity="1.000000" stroke="none" 
	d="
M1938.088135,1006.807129 
	C1942.340454,1014.460571 1947.816040,1021.695007 1950.608887,1029.848389 
	C1958.109741,1051.745605 1946.510132,1070.076660 1923.647949,1073.978149 
	C1904.542236,1077.238403 1886.546875,1073.096558 1869.321167,1065.104370 
	C1846.424561,1054.481201 1827.313477,1039.513062 1815.616821,1016.462585 
	C1814.515869,1014.292969 1813.723755,1011.966614 1813.155029,1010.596619 
	C1821.682617,1017.488342 1830.190186,1025.452515 1839.745239,1031.853027 
	C1858.058838,1044.120483 1878.255615,1051.596191 1900.681152,1050.849976 
	C1906.732056,1050.648560 1913.001221,1049.482300 1918.691895,1047.431641 
	C1934.461304,1041.748901 1941.930542,1027.592896 1938.611816,1011.155273 
	C1938.381836,1010.017029 1938.184692,1008.872192 1938.045288,1007.301392 
	C1938.118286,1006.872314 1938.088135,1006.807129 1938.088135,1006.807129 
z"/>
<path fill="#060606" opacity="1.000000" stroke="none" 
	d="
M589.393555,978.010437 
	C592.082642,948.273987 613.368835,925.980347 639.857056,920.152588 
	C677.411377,911.890137 712.466370,936.471680 718.276855,974.781128 
	C718.400940,975.598816 718.589600,976.406616 718.838257,978.071472 
	C718.961487,982.331909 718.994568,985.739929 718.891357,989.520081 
	C718.578491,990.703125 718.369507,991.508423 718.230103,992.325684 
	C713.497620,1020.063416 697.582153,1037.914673 670.519043,1045.740234 
	C670.602295,1041.621216 670.882996,1037.852661 671.525024,1034.059570 
	C691.406982,1026.564697 703.328918,1012.762817 707.006958,991.609375 
	C707.262268,987.474854 707.417297,983.738647 707.654907,979.562622 
	C707.289185,976.505188 707.005615,973.846802 706.367188,971.276611 
	C699.684753,944.375977 676.447876,927.831360 648.466370,929.989258 
	C623.312012,931.929138 602.888428,953.210022 600.180115,979.925049 
	C596.328918,979.301697 592.861267,978.656067 589.393555,978.010437 
z"/>
<path fill="#07A855" opacity="1.000000" stroke="none" 
	d="
M671.163635,1034.084106 
	C670.882996,1037.852661 670.602295,1041.621216 670.508789,1046.168457 
	C673.398254,1079.985718 704.233215,1102.479858 736.538086,1095.025757 
	C755.810608,1090.578857 775.463196,1073.739136 777.890686,1046.375732 
	C781.279297,1046.934204 784.667847,1047.492554 788.465210,1048.119873 
	C785.760681,1081.399414 760.099915,1103.841675 732.893127,1106.948730 
	C694.967285,1111.279907 664.667542,1087.075806 659.590637,1048.070068 
	C659.662903,1043.892578 659.679382,1040.417969 659.728638,1036.501709 
	C662.017883,1009.728210 680.019287,988.621643 707.572266,980.002502 
	C707.417297,983.738647 707.262268,987.474854 706.652283,991.643494 
	C686.831299,999.666992 675.033081,1013.569336 671.163635,1034.084106 
z"/>
<path fill="#FFB31A" opacity="1.000000" stroke="none" 
	d="
M567.189148,980.043945 
	C567.136230,983.743835 567.083374,987.443665 566.573730,991.609619 
	C546.758850,999.664978 534.835754,1013.458130 531.079956,1034.066162 
	C530.733154,1037.856567 530.386353,1041.646973 530.247925,1046.245972 
	C534.196106,1076.751099 556.419250,1096.791870 585.147827,1096.375366 
	C612.821350,1095.974121 634.638184,1075.098145 637.900269,1046.272583 
	C641.711304,1046.932373 645.174866,1047.549316 648.638489,1048.166260 
	C645.829346,1073.391479 633.111267,1091.868042 609.912598,1102.069214 
	C587.281311,1112.020752 565.282104,1109.262329 545.300354,1094.756104 
	C529.842346,1083.533813 521.451050,1067.855347 519.336670,1048.439209 
	C519.438538,1044.580444 519.576477,1041.125122 519.565796,1036.917847 
	C523.555969,1007.426819 539.471802,988.712585 567.189148,980.043945 
z"/>
<path fill="#060606" opacity="1.000000" stroke="none" 
	d="
M844.863159,846.884033 
	C819.754517,854.326538 795.958496,841.640564 790.564880,817.617737 
	C786.896851,801.280396 791.831726,787.111145 804.934326,776.660278 
	C818.382019,765.934265 833.648804,764.765686 849.029175,771.921936 
	C863.887451,778.835266 871.685974,791.083862 871.955872,807.566956 
	C872.259277,826.099792 863.157959,839.169800 844.863159,846.884033 
M857.203735,819.392273 
	C857.806580,814.346985 859.320618,809.213806 858.843994,804.272644 
	C857.322021,788.492737 842.508972,777.704956 826.372009,779.957031 
	C811.679199,782.007629 800.428040,797.026428 802.552795,811.752747 
	C804.415405,824.662659 813.693481,834.842529 825.500671,836.931091 
	C838.559875,839.241089 850.223877,833.007996 857.203735,819.392273 
z"/>
<path fill="#060606" opacity="1.000000" stroke="none" 
	d="
M1995.989990,848.912781 
	C1967.180176,844.667053 1950.776611,813.498230 1966.425781,787.285400 
	C1976.778687,769.943665 1998.098511,763.167969 2017.411377,770.699402 
	C2035.571411,777.781311 2046.157837,796.759827 2042.476685,815.634644 
	C2038.503906,836.005981 2021.781006,849.501892 2000.896729,849.176819 
	C1999.401001,849.153503 1997.906494,849.037598 1995.989990,848.912781 
M2025.377319,792.266724 
	C2024.210205,790.860718 2023.138306,789.360962 2021.860840,788.063721 
	C2012.505249,778.562622 1998.261597,776.802307 1987.099854,783.715820 
	C1975.692871,790.780945 1970.526367,805.013184 1974.799927,817.598816 
	C1979.166382,830.458679 1991.265503,838.438232 2004.427856,837.139465 
	C2025.825317,835.027954 2036.603516,812.708496 2025.377319,792.266724 
z"/>
<path fill="#000000" opacity="1.000000" stroke="none" 
	d="
M1238.000000,404.000000 
	C1238.000000,338.175964 1237.999878,272.851929 1238.000366,207.527893 
	C1238.000366,206.194794 1237.875488,204.842438 1238.067505,203.537140 
	C1238.156372,202.933060 1238.868652,202.420685 1239.298218,201.866730 
	C1239.863525,202.452301 1240.749512,202.957581 1240.920898,203.641815 
	C1241.195923,204.739899 1240.999634,205.956436 1240.999634,207.122910 
	C1240.999878,505.413757 1241.000000,803.704651 1241.000000,1101.995483 
	C1241.000000,1103.771729 1241.000000,1105.548096 1241.000000,1107.324341 
	C1240.153809,1107.973022 1239.307495,1108.621704 1238.461304,1109.270386 
	C1238.310913,1108.146851 1238.086670,1107.026978 1238.028320,1105.898682 
	C1237.951050,1104.402832 1238.000366,1102.900146 1238.000366,1101.400513 
	C1238.000000,869.100342 1238.000000,636.800171 1238.000000,404.000000 
z"/>
<path fill="#040404" opacity="1.000000" stroke="none" 
	d="
M1656.989502,838.662109 
	C1653.752686,828.522827 1648.059326,824.688416 1638.737671,825.972046 
	C1631.062256,827.028931 1626.266602,833.604736 1626.179688,843.200684 
	C1626.166260,844.686768 1626.177856,846.173096 1626.177856,847.807739 
	C1621.952271,847.807739 1618.022095,847.807739 1614.019043,847.807739 
	C1614.019043,821.488892 1614.019043,795.369507 1614.019043,769.809387 
	C1624.679077,769.809387 1635.220459,768.982178 1645.572632,770.027954 
	C1657.363525,771.218994 1665.040283,778.829712 1666.883179,788.720093 
	C1668.988770,800.020752 1665.006470,808.725281 1654.677734,815.409180 
	C1654.261108,815.678833 1653.865356,815.980713 1653.029175,816.571960 
	C1666.876343,822.520203 1671.077148,833.541870 1669.776489,847.744629 
	C1665.724365,847.744629 1661.787231,847.744629 1657.030029,847.744629 
	C1657.030029,844.930603 1657.030029,842.008789 1656.989502,838.662109 
M1652.926514,787.812561 
	C1646.046021,778.080505 1635.930786,780.994507 1626.421753,780.579773 
	C1626.421753,793.585449 1626.421753,806.105286 1626.421753,818.933289 
	C1630.005371,816.849976 1633.229248,814.890747 1636.533569,813.078430 
	C1639.877319,811.244690 1643.428711,809.763306 1646.663452,807.762573 
	C1654.170776,803.119324 1656.135498,797.044067 1652.926514,787.812561 
z"/>
<path fill="#040404" opacity="1.000000" stroke="none" 
	d="
M496.120300,790.681030 
	C497.277802,802.475525 492.473480,810.728821 481.955261,816.486694 
	C496.037811,822.720886 500.134338,833.710815 498.787903,847.767883 
	C494.767242,847.767883 490.825562,847.767883 486.148743,847.767883 
	C486.408600,840.789307 486.836365,833.122925 479.953308,828.733215 
	C476.962555,826.825989 472.793854,825.972473 469.172089,826.004089 
	C460.027527,826.083923 456.684937,831.495728 454.800995,847.874512 
	C451.005524,847.874512 447.194305,847.874512 443.102356,847.874512 
	C443.102356,821.721741 443.102356,795.644043 443.102356,768.491394 
	C454.279175,769.016418 465.579529,768.806946 476.656647,770.278198 
	C487.473511,771.714905 494.206238,779.581299 496.120300,790.681030 
M455.163666,811.348083 
	C455.163666,813.771851 455.163666,816.195679 455.163666,818.965210 
	C462.852509,814.722107 470.215576,811.004333 477.208344,806.686829 
	C482.485291,803.428711 484.379547,798.209229 483.359894,792.021240 
	C482.323181,785.729980 478.048737,782.326477 472.342102,781.316284 
	C466.870300,780.347656 461.184753,780.586365 455.163666,780.272095 
	C455.163666,790.825806 455.163666,800.607971 455.163666,811.348083 
z"/>
<path fill="#080808" opacity="1.000000" stroke="none" 
	d="
M352.453613,780.506226 
	C358.999054,770.166748 370.529327,765.544861 382.512177,768.240662 
	C393.681976,770.753540 401.646362,779.438477 402.032990,791.686279 
	C402.619690,810.273315 402.186401,828.892517 402.186401,847.756470 
	C398.266815,847.756470 394.364044,847.756470 390.060638,847.756470 
	C390.327179,839.084167 389.644867,830.650818 381.370880,825.392212 
	C375.331146,821.553711 368.729095,820.895081 361.449097,822.121033 
	C361.449097,830.811829 361.449097,839.242249 361.449097,847.837402 
	C357.273987,847.837402 353.479065,847.837402 349.414703,847.837402 
	C349.298370,847.388123 349.007446,846.789307 349.008179,846.190918 
	C349.029724,828.880859 348.873505,811.566101 349.267334,794.263977 
	C349.369873,789.758484 351.202850,785.292358 352.453613,780.506226 
M389.987915,810.328247 
	C389.983734,804.674683 390.167267,799.013245 389.928009,793.369629 
	C389.626495,786.257568 384.352539,780.785583 377.474915,780.005432 
	C370.424927,779.205811 363.209137,783.307434 362.290741,789.909485 
	C361.396332,796.339233 362.096436,802.990845 362.096436,809.646790 
	C372.388062,808.723267 381.672333,810.702271 389.987915,818.281921 
	C389.987915,815.450928 389.987915,813.359131 389.987915,810.328247 
z"/>
<path fill="#080808" opacity="1.000000" stroke="none" 
	d="
M1573.536621,809.001709 
	C1573.536621,822.138611 1573.536621,834.776001 1573.536621,847.713074 
	C1569.330444,847.713074 1565.432251,847.713074 1561.061279,847.713074 
	C1561.269165,839.179932 1560.636475,830.705505 1552.399658,825.436218 
	C1546.375854,821.582642 1539.776489,820.844116 1532.470215,822.148621 
	C1532.470215,830.790039 1532.470215,839.222473 1532.470215,847.828613 
	C1528.285522,847.828613 1524.489502,847.828613 1520.517212,847.828613 
	C1520.395630,847.556641 1520.037476,847.128845 1520.036621,846.700256 
	C1520.000244,828.876099 1519.787231,811.048767 1520.053833,793.228577 
	C1520.271362,778.690857 1530.833008,768.155884 1544.842041,767.811340 
	C1561.357300,767.405029 1572.028564,776.454346 1573.138062,792.042297 
	C1573.527222,797.510681 1573.418335,803.014465 1573.536621,809.001709 
M1532.531006,796.620911 
	C1532.531006,800.902039 1532.531006,805.183167 1532.531006,809.695740 
	C1543.330811,808.688721 1552.716675,810.783752 1560.984985,818.193298 
	C1560.984985,809.599854 1561.139404,801.806213 1560.939697,794.021606 
	C1560.755859,786.855835 1556.124512,781.348694 1549.584717,780.140808 
	C1540.073486,778.384216 1531.744995,785.283020 1532.531006,796.620911 
z"/>
<path fill="#060606" opacity="1.000000" stroke="none" 
	d="
M941.195251,781.416382 
	C932.438965,777.325195 923.975891,779.759460 920.972168,786.998657 
	C918.429504,793.126465 921.230164,797.950012 925.234131,802.651978 
	C923.002625,805.509399 920.768677,808.369995 918.550110,811.210876 
	C910.388672,806.139160 906.152954,795.895447 908.177734,786.490173 
	C910.164490,777.261353 919.087891,768.711670 928.870544,768.217712 
	C934.652344,767.925720 941.088257,768.479736 946.270203,770.798401 
	C959.270752,776.615601 963.383240,791.763062 955.397888,804.158325 
	C949.834961,812.793579 942.933594,820.567444 936.615662,828.714783 
	C934.889832,830.940430 933.111816,833.125549 930.770142,836.067627 
	C941.376831,836.067627 951.354553,836.067627 961.666321,836.067627 
	C961.666321,840.274170 961.666321,843.835083 961.666321,847.706848 
	C943.637695,847.706848 925.428345,847.706848 906.692017,847.706848 
	C907.544617,846.468506 908.178162,845.417480 908.936890,844.466248 
	C919.317993,831.452271 929.733398,818.465576 940.093140,805.434570 
	C941.742493,803.359924 943.382507,801.222412 944.644531,798.905640 
	C948.416382,791.981079 947.453613,787.083252 941.195251,781.416382 
z"/>
<path fill="#060606" opacity="1.000000" stroke="none" 
	d="
M2117.001465,836.470215 
	C2122.473145,836.470276 2127.447510,836.470276 2132.713379,836.470276 
	C2132.713379,840.341614 2132.713379,843.905029 2132.713379,847.743530 
	C2114.563232,847.743530 2096.358643,847.743530 2077.319580,847.743530 
	C2081.833984,842.043701 2085.975830,836.773560 2090.161377,831.538574 
	C2097.331787,822.570435 2104.565918,813.652893 2111.688477,804.646973 
	C2113.326416,802.575928 2114.853760,800.349182 2116.028076,797.992981 
	C2119.269775,791.489807 2117.850586,785.403809 2112.465576,781.680603 
	C2106.874756,777.815186 2099.354004,778.395996 2094.588379,783.061279 
	C2090.026611,787.527100 2089.786621,793.900696 2093.981445,799.854614 
	C2094.634521,800.781677 2095.385742,801.639709 2096.187012,802.650024 
	C2093.891602,805.589478 2091.668945,808.435791 2089.468018,811.254150 
	C2081.090088,805.709778 2077.078125,795.739746 2079.193359,786.320496 
	C2081.280273,777.027100 2090.114502,768.806580 2099.980225,768.171387 
	C2105.141113,767.839172 2110.803711,768.221680 2115.561279,770.048035 
	C2128.960693,775.192200 2134.102051,789.396606 2127.486084,802.120117 
	C2125.061035,806.783813 2121.592285,810.939209 2118.355957,815.138611 
	C2113.098633,821.960632 2107.640381,828.628052 2101.381348,836.470215 
	C2107.131836,836.470215 2111.818115,836.470215 2117.001465,836.470215 
z"/>
<path fill="#060606" opacity="1.000000" stroke="none" 
	d="
M1922.189087,779.906006 
	C1927.777344,790.390076 1925.193726,799.660950 1918.774780,808.156982 
	C1911.771606,817.426208 1904.337891,826.370361 1896.510010,836.185913 
	C1907.178101,836.185913 1917.160767,836.185913 1927.491577,836.185913 
	C1927.491577,840.329163 1927.491577,843.871704 1927.491577,847.718262 
	C1909.374512,847.718262 1891.198975,847.718262 1872.190308,847.718262 
	C1881.099854,836.566162 1889.623169,826.012878 1898.010376,815.352295 
	C1902.424072,809.742065 1907.087646,804.238159 1910.749390,798.151428 
	C1914.648315,791.670471 1912.622070,784.881287 1906.781006,781.191223 
	C1901.056885,777.575012 1893.008789,778.818237 1888.622314,783.996155 
	C1884.374390,789.010559 1885.148438,795.296570 1891.063721,802.666504 
	C1888.878052,805.474915 1886.654175,808.332520 1884.449097,811.166016 
	C1876.266235,806.303467 1872.178101,796.441956 1874.068726,786.511658 
	C1875.801880,777.408752 1884.758911,769.232910 1894.712036,768.043518 
	C1905.936646,766.702148 1915.498291,769.634705 1922.189087,779.906006 
z"/>
<path fill="#060606" opacity="1.000000" stroke="none" 
	d="
M706.073853,803.836426 
	C700.719116,793.278931 701.941772,782.882812 709.221741,775.367859 
	C716.689453,767.658997 729.998291,765.399048 740.273254,770.095093 
	C749.845337,774.469971 755.808167,783.574951 753.765808,793.795654 
	C752.555115,799.854614 749.125061,805.805054 745.505127,810.972229 
	C739.526611,819.506165 732.587219,827.367004 725.406067,836.317505 
	C736.299744,836.317505 746.305359,836.317505 756.575928,836.317505 
	C756.575928,840.336548 756.575928,843.772400 756.575928,848.010925 
	C747.701538,848.010925 738.625549,848.010986 729.549561,848.010986 
	C720.422791,848.010986 711.296021,848.010925 701.054993,848.010925 
	C707.233276,840.244263 712.833923,833.179199 718.461792,826.135925 
	C724.279602,818.854858 730.174255,811.634521 735.923767,804.300110 
	C737.548706,802.227173 739.033386,799.965088 740.147583,797.586182 
	C743.161743,791.150513 741.728760,785.447632 736.434082,781.724304 
	C730.866150,777.808960 723.463135,778.361145 718.580688,783.055969 
	C714.131470,787.334229 713.736511,793.663818 717.593994,799.430969 
	C718.322510,800.520142 719.171204,801.528931 720.038086,802.671814 
	C718.226135,805.064209 716.434143,807.459045 714.603699,809.824036 
	C714.216248,810.324646 713.688171,810.716431 712.686768,811.671875 
	C710.469788,809.093262 708.352356,806.630493 706.073853,803.836426 
z"/>
<path fill="#D8C47A" opacity="1.000000" stroke="none" 
	d="
M1803.780518,662.274841 
	C1792.501709,657.031372 1784.422607,649.076843 1778.463623,637.141663 
	C1790.616699,638.586304 1800.487549,629.602356 1812.151611,633.038940 
	C1816.551636,634.335266 1820.713623,637.788879 1824.985229,637.790649 
	C1829.256958,637.792358 1833.399658,634.062439 1837.840576,633.168091 
	C1841.932739,632.343994 1846.450317,632.547119 1850.593872,633.310669 
	C1857.224487,634.532654 1863.700806,636.591858 1870.259521,638.301636 
	C1866.174438,654.369812 1836.099854,676.645020 1803.780518,662.274841 
z"/>
<path fill="#D8C47A" opacity="1.000000" stroke="none" 
	d="
M621.085205,654.928955 
	C616.313293,649.489075 611.841003,644.240723 607.368774,638.992371 
	C607.644104,638.385620 607.919434,637.778870 608.194763,637.172058 
	C619.637695,638.655151 629.462158,629.587158 641.129944,633.028320 
	C645.680908,634.370544 650.014526,637.748596 654.460815,637.773621 
	C658.721985,637.797729 662.869446,634.012695 667.310608,633.134766 
	C671.398682,632.326599 675.911316,632.620239 680.057373,633.392334 
	C686.526123,634.597046 692.843201,636.616150 699.903931,638.468445 
	C694.499573,650.182800 685.235840,658.514282 672.962646,663.197815 
	C654.401428,670.281250 637.070007,667.441467 621.085205,654.928955 
z"/>
<path fill="#060606" opacity="1.000000" stroke="none" 
	d="
M626.424316,791.008118 
	C625.324829,790.119690 624.343506,789.323730 624.074280,788.333984 
	C621.708679,779.638000 611.356262,776.037231 604.114014,781.468323 
	C599.159302,785.183899 598.630554,792.215576 603.504089,796.127869 
	C606.417664,798.466858 610.045105,799.988220 613.491638,801.572388 
	C617.257385,803.303345 621.293091,804.458374 625.020691,806.258667 
	C634.761292,810.963135 639.307007,818.578247 638.351562,828.061218 
	C637.310242,838.396057 631.008850,845.522827 620.501282,848.249573 
	C602.365540,852.955872 586.341370,842.011780 586.168945,824.476562 
	C589.910706,824.476562 593.660889,824.476562 597.998962,824.476562 
	C598.943481,831.093872 602.330322,836.575623 609.738708,837.446350 
	C613.300537,837.865051 617.549805,837.227905 620.678650,835.555298 
	C627.514832,831.900635 627.927612,823.161987 621.675720,818.555481 
	C618.521729,816.231628 614.687561,814.785156 611.064697,813.156128 
	C607.438721,811.525635 603.565186,810.415283 600.024292,808.631958 
	C590.796021,803.984436 586.785950,796.984924 587.736755,787.829346 
	C588.697937,778.574585 594.898254,771.452148 604.307861,768.793701 
	C621.091003,764.052124 635.609436,773.742249 636.758362,791.010681 
	C633.444519,791.010681 630.158630,791.010681 626.424316,791.008118 
z"/>
<path fill="#060606" opacity="1.000000" stroke="none" 
	d="
M1792.613770,818.358643 
	C1786.867065,815.731506 1781.433105,813.297668 1775.955444,810.966675 
	C1768.275757,807.698669 1761.118042,803.833740 1759.067505,794.804932 
	C1756.269897,782.486816 1764.184570,770.615601 1777.116821,768.297180 
	C1794.318359,765.213623 1807.369019,774.936768 1807.755981,790.684326 
	C1803.837646,790.684326 1799.917114,790.684326 1795.538452,790.684326 
	C1794.692627,785.288879 1792.143433,780.813965 1786.020996,779.344421 
	C1780.038574,777.908508 1774.006958,780.610779 1771.866577,785.800903 
	C1769.805298,790.798462 1771.467407,795.181213 1777.616089,798.401489 
	C1782.733154,801.081360 1788.327637,802.836853 1793.653198,805.134827 
	C1801.293091,808.431335 1807.575806,813.086182 1809.013794,822.007263 
	C1811.083862,834.848694 1804.138550,844.982239 1791.107544,848.309998 
	C1775.276733,852.352783 1760.435425,844.037720 1757.459106,829.416992 
	C1757.139648,827.847168 1757.108276,826.218689 1756.916992,824.363892 
	C1761.129395,824.363892 1764.903809,824.363892 1768.674927,824.363892 
	C1772.542114,835.672119 1778.747803,839.837097 1787.873535,837.265869 
	C1797.418213,834.576599 1799.791870,825.773438 1792.613770,818.358643 
z"/>
<path fill="#060606" opacity="1.000000" stroke="none" 
	d="
M260.393524,769.385010 
	C271.365295,769.308228 282.061127,768.908813 292.598236,770.017639 
	C303.104279,771.123230 311.181641,779.022217 312.984070,787.919922 
	C315.435608,800.021912 311.694183,809.582764 301.673676,815.902588 
	C297.906128,818.278748 293.830078,820.201050 289.784149,822.094116 
	C275.780853,828.646484 273.374176,832.039795 272.255859,847.653320 
	C268.416931,847.653320 264.525360,847.653320 260.048035,847.653320 
	C260.048035,821.822388 260.048035,795.772888 260.393524,769.385010 
M297.074554,804.486450 
	C303.673523,795.848877 301.923096,785.149902 292.671509,782.345886 
	C286.403351,780.446167 279.485168,780.691162 272.771576,779.967651 
	C272.771576,793.757202 272.771576,806.166016 272.771576,819.120544 
	C280.983917,814.253235 288.776825,809.634521 297.074554,804.486450 
z"/>
<path fill="#060606" opacity="1.000000" stroke="none" 
	d="
M1433.153809,848.009155 
	C1432.112915,847.235779 1431.063477,846.466125 1431.060913,845.692932 
	C1430.975342,820.281860 1430.990112,794.870422 1430.990112,769.902710 
	C1442.212769,769.902710 1453.177734,769.119995 1463.975830,770.127380 
	C1474.344116,771.094666 1482.223755,779.244812 1483.996338,788.341736 
	C1486.245605,799.884705 1482.458252,809.602356 1473.112183,815.670227 
	C1470.063599,817.649475 1466.839722,819.445923 1463.504150,820.879761 
	C1451.601807,825.996094 1441.039917,832.010071 1443.740356,848.011292 
	C1439.903320,848.011292 1436.768188,848.011292 1433.153809,848.009155 
M1468.998779,803.326416 
	C1474.745605,793.952148 1472.051880,784.400024 1462.210449,781.869446 
	C1456.313965,780.353333 1449.945190,780.674438 1443.763184,780.167664 
	C1443.763184,793.763855 1443.763184,806.162109 1443.763184,818.852051 
	C1447.623535,816.664612 1451.233887,814.737366 1454.723755,812.612244 
	C1459.368652,809.783630 1463.919800,806.800903 1468.998779,803.326416 
z"/>
<path fill="#040404" opacity="1.000000" stroke="none" 
	d="
M1008.155823,816.868713 
	C1001.381531,812.128540 998.290588,805.634766 998.030884,797.981323 
	C997.709656,788.517151 997.954041,779.033691 997.954041,769.276306 
	C1001.932556,769.276306 1005.836365,769.276306 1010.177795,769.276306 
	C1010.177795,776.846863 1010.295288,784.461426 1010.146912,792.070679 
	C1009.975037,800.886902 1013.514465,807.013550 1022.048462,810.094177 
	C1026.674194,811.763977 1031.149658,813.850159 1036.107788,815.921875 
	C1036.107788,807.310059 1036.107788,798.922180 1036.107788,790.268433 
	C1040.242676,790.268433 1043.998901,790.268433 1047.968140,790.268433 
	C1047.968140,809.330200 1047.968140,828.416199 1047.968140,847.754761 
	C1044.201050,847.754761 1040.454102,847.754761 1036.154785,847.754761 
	C1036.154785,845.698364 1036.175537,843.609741 1036.151123,841.521606 
	C1036.036133,831.694946 1033.359497,827.888306 1024.313721,824.119751 
	C1018.976196,821.895996 1013.746826,819.412720 1008.155823,816.868713 
z"/>
<path fill="#020202" opacity="1.000000" stroke="none" 
	d="
M2194.785645,823.994873 
	C2190.010010,821.987244 2185.483643,820.314636 2181.228271,818.117004 
	C2173.450195,814.100220 2169.489990,807.237244 2169.095703,798.750000 
	C2168.640625,788.954773 2168.989990,779.122192 2168.989990,769.151611 
	C2172.926514,769.151611 2176.731445,769.151611 2181.174316,769.151611 
	C2181.174316,776.740906 2181.355469,784.321167 2181.127686,791.889160 
	C2180.853027,801.004944 2184.603271,807.117493 2193.328857,810.224426 
	C2197.815674,811.822205 2202.135254,813.889465 2206.915039,815.906921 
	C2206.915039,807.294006 2206.915039,798.900391 2206.915039,790.255127 
	C2211.001709,790.255127 2214.741943,790.255127 2218.745605,790.255127 
	C2218.745605,809.336548 2218.745605,828.409485 2218.745605,847.743835 
	C2214.999023,847.743835 2211.259033,847.743835 2206.855225,847.743835 
	C2208.151123,837.367798 2206.992676,827.940247 2194.785645,823.994873 
z"/>
<path fill="#060606" opacity="1.000000" stroke="none" 
	d="
M649.052979,1048.115234 
	C645.174866,1047.549316 641.711304,1046.932373 637.485352,1046.154297 
	C630.030579,1042.801880 622.805542,1040.392944 616.748230,1036.268921 
	C600.306152,1025.074585 591.758423,1008.865662 589.723083,989.241455 
	C593.782349,990.123535 597.451843,991.047791 601.099487,992.361084 
	C601.405396,994.201904 601.644592,995.680664 602.074341,997.101746 
	C607.549805,1015.206238 618.563354,1028.093872 637.216187,1034.270508 
	C641.199890,1035.300049 644.912170,1036.072144 649.109192,1036.912109 
	C652.961182,1036.967773 656.328552,1036.955566 659.695862,1036.943237 
	C659.679382,1040.417969 659.662903,1043.892578 659.423584,1047.703125 
	C655.956299,1048.047363 652.711914,1048.055664 649.052979,1048.115234 
z"/>
<path fill="#FDB118" opacity="1.000000" stroke="none" 
	d="
M648.624512,1036.844238 
	C644.912170,1036.072144 641.199890,1035.300049 637.214600,1033.875977 
	C632.500793,1012.961548 620.884949,998.929321 601.121338,991.972046 
	C597.451843,991.047791 593.782349,990.123535 589.247925,989.172607 
	C585.204651,989.158203 582.026306,989.170532 578.847900,989.182800 
	C578.769470,985.672729 578.691040,982.162659 578.730347,978.342896 
	C582.040894,978.020142 585.233643,978.007019 588.909912,978.002197 
	C592.861267,978.656067 596.328918,979.301697 600.565918,980.033081 
	C628.865601,989.217529 644.843445,1007.946899 648.624512,1036.844238 
z"/>
<path fill="#04A754" opacity="1.000000" stroke="none" 
	d="
M719.027588,989.147949 
	C718.994568,985.739929 718.961487,982.331909 718.984131,978.466614 
	C722.263184,978.007141 725.486633,978.005005 729.217957,978.018250 
	C733.136963,978.684814 736.548096,979.335999 740.725098,980.069641 
	C769.123962,989.128967 784.914246,1008.004333 788.837830,1036.798340 
	C785.090027,1036.029907 781.342285,1035.261353 777.317505,1033.864258 
	C772.721130,1012.891907 761.044678,998.929260 741.267578,991.992920 
	C737.697083,991.021118 734.126587,990.049316 729.710815,989.123413 
	C725.586243,989.162170 722.306885,989.155090 719.027588,989.147949 
z"/>
<path fill="#000000" opacity="1.000000" stroke="none" 
	d="
M1720.167480,796.016602 
	C1720.167480,813.492004 1720.167480,830.469177 1720.167480,847.722778 
	C1716.050781,847.722778 1712.152954,847.722778 1708.041260,847.722778 
	C1708.041260,827.508423 1708.041260,807.408081 1708.041260,786.710449 
	C1711.845337,786.081177 1715.698486,785.443848 1720.167480,784.704651 
	C1720.167480,788.622437 1720.167480,792.070435 1720.167480,796.016602 
z"/>
<path fill="#000000" opacity="1.000000" stroke="none" 
	d="
M536.832397,810.000000 
	C536.832397,802.028076 536.832397,794.556152 536.832397,786.667847 
	C541.003967,786.035645 544.854614,785.452148 548.975708,784.827576 
	C548.975708,806.023010 548.975708,826.649536 548.975708,847.638245 
	C545.209656,847.638245 541.323792,847.638245 536.832397,847.638245 
	C536.832397,835.344177 536.832397,822.922119 536.832397,810.000000 
z"/>
<path fill="#060606" opacity="1.000000" stroke="none" 
	d="
M1709.232178,779.918579 
	C1708.346191,776.520630 1707.881958,773.075867 1707.369629,769.275269 
	C1711.934326,769.275269 1715.840698,769.275269 1719.968750,769.275269 
	C1719.968750,772.138123 1719.968750,775.070557 1719.968750,778.186829 
	C1716.463013,778.759521 1713.058472,779.315613 1709.232178,779.918579 
z"/>
<path fill="#060606" opacity="1.000000" stroke="none" 
	d="
M547.399048,778.552368 
	C543.718445,779.027100 540.454102,779.460144 536.816345,779.942688 
	C536.816345,778.577148 536.816345,777.451965 536.816345,776.326721 
	C536.816345,774.008972 536.816345,771.691223 536.816345,769.182312 
	C541.027283,769.182312 544.945496,769.182312 549.793945,769.182312 
	C549.087830,772.511414 548.451538,775.511047 547.399048,778.552368 
z"/>
<path fill="#D7C378" opacity="1.000000" stroke="none" 
	d="
M593.015869,697.984375 
	C593.453369,698.166809 593.870361,698.371765 594.287354,698.576721 
	C593.905090,698.564514 593.522766,698.552307 593.048706,698.297119 
	C592.956909,698.054016 592.995361,698.006836 593.015869,697.984375 
z"/>
<path fill="#D7C378" opacity="1.000000" stroke="none" 
	d="
M714.991211,697.988770 
	C714.711121,698.245789 714.447815,698.524414 714.149109,698.757629 
	C714.125244,698.776184 713.856323,698.481018 713.701233,698.331665 
	C713.966125,698.223450 714.230957,698.115234 714.756165,698.011719 
	C715.016479,698.016418 714.999084,697.998718 714.991211,697.988770 
z"/>
<path fill="#D7C378" opacity="1.000000" stroke="none" 
	d="
M1764.005737,697.994324 
	C1764.435669,698.183655 1764.858521,698.380188 1765.281372,698.576660 
	C1764.898926,698.558411 1764.516357,698.540161 1764.059326,698.270386 
	C1763.984619,698.018799 1763.998657,698.001526 1764.005737,697.994324 
z"/>
<path fill="#D7C378" opacity="1.000000" stroke="none" 
	d="
M1885.997559,697.997559 
	C1885.716553,698.258606 1885.448120,698.535950 1885.142334,698.762878 
	C1885.113770,698.783997 1884.848022,698.485535 1884.692383,698.335510 
	C1884.956421,698.224670 1885.220459,698.113831 1885.744629,698.003174 
	C1886.004883,698.003418 1886.000000,698.000000 1885.997559,697.997559 
z"/>
<path fill="#D7C378" opacity="1.000000" stroke="none" 
	d="
M1749.985840,536.007324 
	C1750.085449,536.080261 1750.203369,536.138489 1750.321289,536.196716 
	C1750.227905,536.221313 1750.134521,536.245911 1750.038696,536.114441 
	C1750.036255,535.958374 1750.004150,535.992676 1749.985840,536.007324 
z"/>
<path fill="#04A754" opacity="1.000000" stroke="none" 
	d="
M1938.154053,1006.874878 
	C1938.189941,1006.877502 1937.947021,1006.807312 1937.947021,1006.807312 
	C1937.947021,1006.807312 1938.085449,1006.981018 1938.086792,1006.894043 
	C1938.088135,1006.807129 1938.118286,1006.872314 1938.154053,1006.874878 
z"/>
<path fill="#D7C378" opacity="1.000000" stroke="none" 
	d="
M578.989441,536.006958 
	C579.096252,536.073303 579.217224,536.128052 579.338257,536.182800 
	C579.237793,536.216736 579.137268,536.250610 579.032715,536.126160 
	C579.028687,535.967773 579.003662,535.995300 578.989441,536.006958 
z"/>
<path fill="#FEFEFF" opacity="1.000000" stroke="none" 
	d="
M567.278259,979.610107 
	C539.471802,988.712585 523.555969,1007.426819 519.397583,1036.556396 
	C492.617065,1039.431885 468.918121,1022.803162 462.200195,997.790222 
	C456.579926,976.863953 461.902435,958.334412 477.894531,943.775452 
	C493.925110,929.181396 513.034912,925.641724 533.169556,933.458496 
	C553.665649,941.415527 565.117126,957.091492 567.278259,979.610107 
z"/>
<path fill="#FEFEFE" opacity="1.000000" stroke="none" 
	d="
M578.680176,989.531372 
	C582.026306,989.170532 585.204651,989.158203 588.858154,989.214783 
	C591.758423,1008.865662 600.306152,1025.074585 616.748230,1036.268921 
	C622.805542,1040.392944 630.030579,1042.801880 637.137939,1046.111450 
	C634.638184,1075.098145 612.821350,1095.974121 585.147827,1096.375366 
	C556.419250,1096.791870 534.196106,1076.751099 530.400513,1046.627563 
	C558.363647,1037.658325 574.339172,1018.815979 578.680176,989.531372 
z"/>
<path fill="#FDFDFD" opacity="1.000000" stroke="none" 
	d="
M531.447266,1034.042847 
	C534.835754,1013.458130 546.758850,999.664978 566.467346,992.019043 
	C563.160889,1012.648621 551.294861,1026.502686 531.447266,1034.042847 
z"/>
<path fill="#FFFEFE" opacity="1.000000" stroke="none" 
	d="
M789.306824,1036.883423 
	C784.914246,1008.004333 769.123962,989.128967 741.119385,980.021240 
	C742.798218,949.400513 768.313904,927.767944 799.612183,929.984253 
	C827.806519,931.980652 850.048706,958.519470 847.905884,987.606934 
	C845.732544,1017.109009 820.358826,1038.655273 789.306824,1036.883423 
z"/>
<path fill="#FEFEFE" opacity="1.000000" stroke="none" 
	d="
M718.891357,989.520081 
	C722.306885,989.155090 725.586243,989.162170 729.301758,989.228882 
	C733.341125,1018.475586 749.525818,1037.141724 777.583496,1046.255859 
	C775.463196,1073.739136 755.810608,1090.578857 736.538086,1095.025757 
	C704.233215,1102.479858 673.398254,1079.985718 670.706177,1046.518799 
	C697.582153,1037.914673 713.497620,1020.063416 718.230103,992.325684 
	C718.369507,991.508423 718.578491,990.703125 718.891357,989.520081 
z"/>
<path fill="#FAFAFA" opacity="1.000000" stroke="none" 
	d="
M741.258240,992.374512 
	C761.044678,998.929260 772.721130,1012.891907 777.033569,1033.635254 
	C758.392395,1027.836426 747.231567,1014.728271 742.009827,996.139648 
	C741.697693,995.028259 741.499878,993.884705 741.258240,992.374512 
z"/>
<path fill="#FEFEFE" opacity="1.000000" stroke="none" 
	d="
M649.109192,1036.912109 
	C644.843445,1007.946899 628.865601,989.217529 600.949402,980.010864 
	C602.888428,953.210022 623.312012,931.929138 648.466370,929.989258 
	C676.447876,927.831360 699.684753,944.375977 706.367188,971.276611 
	C707.005615,973.846802 707.289185,976.505188 707.654907,979.562622 
	C680.019287,988.621643 662.017883,1009.728210 659.728638,1036.501709 
	C656.328552,1036.955566 652.961182,1036.967773 649.109192,1036.912109 
z"/>
<path fill="#FAFAFA" opacity="1.000000" stroke="none" 
	d="
M671.525024,1034.059570 
	C675.033081,1013.569336 686.831299,999.666992 706.551880,992.041870 
	C703.328918,1012.762817 691.406982,1026.564697 671.525024,1034.059570 
z"/>
<path fill="#FDFDFD" opacity="1.000000" stroke="none" 
	d="
M857.071777,819.761230 
	C850.223877,833.007996 838.559875,839.241089 825.500671,836.931091 
	C813.693481,834.842529 804.415405,824.662659 802.552795,811.752747 
	C800.428040,797.026428 811.679199,782.007629 826.372009,779.957031 
	C842.508972,777.704956 857.322021,788.492737 858.843994,804.272644 
	C859.320618,809.213806 857.806580,814.346985 857.071777,819.761230 
z"/>
<path fill="#FDFDFD" opacity="1.000000" stroke="none" 
	d="
M2025.593018,792.565491 
	C2036.603516,812.708496 2025.825317,835.027954 2004.427856,837.139465 
	C1991.265503,838.438232 1979.166382,830.458679 1974.799927,817.598816 
	C1970.526367,805.013184 1975.692871,790.780945 1987.099854,783.715820 
	C1998.261597,776.802307 2012.505249,778.562622 2021.860840,788.063721 
	C2023.138306,789.360962 2024.210205,790.860718 2025.593018,792.565491 
z"/>
<path fill="#FAFAFA" opacity="1.000000" stroke="none" 
	d="
M1653.060303,788.169800 
	C1656.135498,797.044067 1654.170776,803.119324 1646.663452,807.762573 
	C1643.428711,809.763306 1639.877319,811.244690 1636.533569,813.078430 
	C1633.229248,814.890747 1630.005371,816.849976 1626.421753,818.933289 
	C1626.421753,806.105286 1626.421753,793.585449 1626.421753,780.579773 
	C1635.930786,780.994507 1646.046021,778.080505 1653.060303,788.169800 
z"/>
<path fill="#FAFAFA" opacity="1.000000" stroke="none" 
	d="
M455.163666,810.869080 
	C455.163666,800.607971 455.163666,790.825806 455.163666,780.272095 
	C461.184753,780.586365 466.870300,780.347656 472.342102,781.316284 
	C478.048737,782.326477 482.323181,785.729980 483.359894,792.021240 
	C484.379547,798.209229 482.485291,803.428711 477.208344,806.686829 
	C470.215576,811.004333 462.852509,814.722107 455.163666,818.965210 
	C455.163666,816.195679 455.163666,813.771851 455.163666,810.869080 
z"/>
<path fill="#FDFDFD" opacity="1.000000" stroke="none" 
	d="
M389.987915,810.797852 
	C389.987915,813.359131 389.987915,815.450928 389.987915,818.281921 
	C381.672333,810.702271 372.388062,808.723267 362.096436,809.646790 
	C362.096436,802.990845 361.396332,796.339233 362.290741,789.909485 
	C363.209137,783.307434 370.424927,779.205811 377.474915,780.005432 
	C384.352539,780.785583 389.626495,786.257568 389.928009,793.369629 
	C390.167267,799.013245 389.983734,804.674683 389.987915,810.797852 
z"/>
<path fill="#FDFDFD" opacity="1.000000" stroke="none" 
	d="
M1532.531006,796.141479 
	C1531.744995,785.283020 1540.073486,778.384216 1549.584717,780.140808 
	C1556.124512,781.348694 1560.755859,786.855835 1560.939697,794.021606 
	C1561.139404,801.806213 1560.984985,809.599854 1560.984985,818.193298 
	C1552.716675,810.783752 1543.330811,808.688721 1532.531006,809.695740 
	C1532.531006,805.183167 1532.531006,800.902039 1532.531006,796.141479 
z"/>
<path fill="#FDFDFD" opacity="1.000000" stroke="none" 
	d="
M296.822144,804.751099 
	C288.776825,809.634521 280.983917,814.253235 272.771576,819.120544 
	C272.771576,806.166016 272.771576,793.757202 272.771576,779.967651 
	C279.485168,780.691162 286.403351,780.446167 292.671509,782.345886 
	C301.923096,785.149902 303.673523,795.848877 296.822144,804.751099 
z"/>
<path fill="#FDFDFD" opacity="1.000000" stroke="none" 
	d="
M1468.754883,803.605408 
	C1463.919800,806.800903 1459.368652,809.783630 1454.723755,812.612244 
	C1451.233887,814.737366 1447.623535,816.664612 1443.763184,818.852051 
	C1443.763184,806.162109 1443.763184,793.763855 1443.763184,780.167664 
	C1449.945190,780.674438 1456.313965,780.353333 1462.210449,781.869446 
	C1472.051880,784.400024 1474.745605,793.952148 1468.754883,803.605408 
z"/>
<path fill="#FAFAFA" opacity="1.000000" stroke="none" 
	d="
M601.099487,992.361023 
	C620.884949,998.929321 632.500793,1012.961548 636.943237,1033.618530 
	C618.563354,1028.093872 607.549805,1015.206238 602.074341,997.101746 
	C601.644592,995.680664 601.405396,994.201904 601.099487,992.361023 
z"/>
</svg>