<!DOCTYPE svg PUBLIC "-//W3C//DTD SVG 1.1//EN" "http://www.w3.org/Graphics/SVG/1.1/DTD/svg11.dtd">
<!-- Uploaded to: SVG Repo, www.svgrepo.com, Transformed by: SVG Repo Mixer Tools -->
<svg fill="#ffffff" height="800px" width="800px" version="1.1" id="Layer_1" xmlns="http://www.w3.org/2000/svg" xmlns:xlink="http://www.w3.org/1999/xlink" viewBox="0 0 512 512" xml:space="preserve" stroke="#ffffff">
<g id="SVGRepo_bgCarrier" stroke-width="0"/>
<g id="SVGRepo_tracerCarrier" stroke-linecap="round" stroke-linejoin="round"/>
<g id="SVGRepo_iconCarrier"> <g> <g> <path d="M405.787,0H51.745c-4.513,0-8.17,3.658-8.17,8.17v441.191c0,4.512,3.657,8.17,8.17,8.17h168.858 c4.513,0,8.17-3.658,8.17-8.17s-3.658-8.17-8.17-8.17H59.915V16.34h337.702v247.835c0,4.512,3.657,8.17,8.17,8.17 s8.17-3.658,8.17-8.17V8.17C413.957,3.658,410.3,0,405.787,0z"/> </g> </g> <g> <g> <path d="M210.117,375.83h-93.011c-4.513,0-8.17,3.658-8.17,8.17s3.657,8.17,8.17,8.17h93.011c4.513,0,8.17-3.658,8.17-8.17 S214.629,375.83,210.117,375.83z"/> </g> </g> <g> <g> <path d="M216.569,343.149h-99.463c-4.513,0-8.17,3.658-8.17,8.17s3.657,8.17,8.17,8.17h99.463c4.512,0,8.17-3.658,8.17-8.17 S221.083,343.149,216.569,343.149z"/> </g> </g> <g> <g> <circle cx="340.426" cy="73.532" r="8.17"/> </g> </g> <g> <g> <path d="M373.106,32.681H84.426c-4.513,0-8.17,3.658-8.17,8.17v65.362c0,4.512,3.657,8.17,8.17,8.17h288.681 c4.513,0,8.17-3.658,8.17-8.17V40.851C381.277,36.339,377.62,32.681,373.106,32.681z M364.936,98.043H92.596V49.021h272.34V98.043 z"/> </g> </g> <g> <g> <circle cx="340.426" cy="171.574" r="8.17"/> </g> </g> <g> <g> <circle cx="307.745" cy="73.532" r="8.17"/> </g> </g> <g> <g> <circle cx="307.745" cy="171.574" r="8.17"/> </g> </g> <g> <g> <path d="M373.106,130.723H84.426c-4.513,0-8.17,3.658-8.17,8.17v65.362c0,4.512,3.657,8.17,8.17,8.17h288.681 c4.513,0,8.17-3.658,8.17-8.17v-65.362C381.277,134.381,377.62,130.723,373.106,130.723z M364.936,196.085H92.596v-49.021h272.34 V196.085z"/> </g> </g> <g> <g> <path d="M373.106,228.766H84.426c-4.513,0-8.17,3.658-8.17,8.17c0,4.512,3.657,8.17,8.17,8.17h288.681 c4.513,0,8.17-3.658,8.17-8.17C381.277,232.424,377.62,228.766,373.106,228.766z"/> </g> </g> <g> <g> <path d="M351.319,277.787c-64.572,0-117.106,52.533-117.106,117.106S286.747,512,351.319,512s117.106-52.533,117.106-117.106 S415.891,277.787,351.319,277.787z M351.319,495.66c-55.563,0-100.766-45.203-100.766-100.766 c0-55.563,45.203-100.766,100.766-100.766s100.766,45.203,100.766,100.766C452.085,450.457,406.882,495.66,351.319,495.66z"/> </g> </g> <g> <g> <path d="M385.982,394.894l21.184-21.183c4.63-4.63,7.179-10.785,7.179-17.332c0-6.547-2.55-12.703-7.179-17.332 c-4.63-4.63-10.785-7.179-17.332-7.179s-12.702,2.55-17.332,7.179l-21.183,21.183l-21.183-21.183 c-4.63-4.63-10.785-7.179-17.332-7.179s-12.702,2.55-17.331,7.179c-4.63,4.63-7.18,10.785-7.18,17.333 c0,6.547,2.55,12.702,7.179,17.332l21.184,21.183l-21.184,21.183c-4.629,4.63-7.179,10.785-7.179,17.332s2.55,12.703,7.179,17.332 c4.63,4.63,10.785,7.179,17.332,7.179s12.702-2.55,17.332-7.179l21.183-21.184l21.183,21.183c4.63,4.63,10.785,7.179,17.332,7.179 s12.702-2.55,17.331-7.179c4.63-4.63,7.18-10.785,7.18-17.333c0-6.547-2.55-12.702-7.179-17.332L385.982,394.894z M395.61,439.186 c-1.543,1.544-3.595,2.393-5.777,2.393s-4.234-0.85-5.777-2.393l-26.961-26.961c-1.596-1.595-3.688-2.393-5.778-2.393 s-4.182,0.797-5.778,2.393l-26.961,26.961c-1.542,1.544-3.595,2.393-5.777,2.393s-4.234-0.85-5.778-2.393 c-1.543-1.543-2.392-3.594-2.392-5.777c0-2.183,0.85-4.234,2.393-5.778l26.961-26.961c1.532-1.532,2.392-3.61,2.392-5.777 s-0.861-4.245-2.392-5.777l-26.961-26.961c-1.544-1.544-2.393-3.595-2.393-5.778c0-2.183,0.85-4.234,2.393-5.777 c1.543-1.544,3.595-2.393,5.777-2.393s4.234,0.85,5.777,2.393l26.961,26.961c3.192,3.191,8.364,3.191,11.555,0l26.961-26.961 c1.543-1.544,3.595-2.393,5.777-2.393s4.234,0.85,5.778,2.393c1.543,1.543,2.392,3.594,2.392,5.777 c0,2.183-0.849,4.235-2.392,5.778l-26.961,26.961c-1.532,1.532-2.392,3.61-2.392,5.777s0.861,4.245,2.392,5.777l26.961,26.961 c1.544,1.544,2.393,3.595,2.393,5.778C398.004,435.592,397.154,437.643,395.61,439.186z"/> </g> </g> </g>
</svg>