<svg xmlns="http://www.w3.org/2000/svg" version="1.1" xmlns:xlink="http://www.w3.org/1999/xlink" xmlns:svgjs="http://svgjs.dev/svgjs" viewBox="0 0 800 800"><defs><linearGradient gradientTransform="rotate(270)" x1="50%" y1="0%" x2="50%" y2="100%" id="sssquiggly-grad"><stop stop-color="#ff0000ff" stop-opacity="1" offset="0%"></stop><stop stop-color="#8f00ffff" stop-opacity="1" offset="100%"></stop></linearGradient></defs><g stroke-width="2" stroke="url(#sssquiggly-grad)" fill="none" stroke-linecap="round" transform="matrix(1,0,0,1,0,58.01785469055176)"><path d="M10,10C21.805555555555557,14.166666666666668,40.97222222222223,35.208333333333336,66.66666666666667,30C92.36111111111111,24.791666666666664,105.55555555555557,-17.291666666666668,133.33333333333334,-15C161.11111111111111,-12.708333333333334,172.22222222222223,43.291666666666664,200,41C227.77777777777777,38.708333333333336,238.8888888888889,-24.333333333333332,266.6666666666667,-26C294.44444444444446,-27.666666666666668,305.5555555555556,28.416666666666668,333.33333333333337,33C361.11111111111114,37.583333333333336,372.22222222222223,-2.75,400,-4C427.77777777777777,-5.25,438.8888888888889,27.416666666666668,466.6666666666667,27C494.44444444444446,26.583333333333332,505.5555555555556,-9.75,533.3333333333334,-6C561.1111111111111,-2.25,572.2222222222222,44.791666666666664,600,45C627.7777777777778,45.208333333333336,638.8888888888889,-4.583333333333333,666.6666666666667,-5C694.4444444444446,-5.416666666666667,707.6388888888889,39.875,733.3333333333334,43C759.0277777777778,46.125,778.1944444444445,16.875,790,10"></path><path d="M10,10C21.805555555555557,14.166666666666668,40.97222222222223,35.208333333333336,66.66666666666667,30C92.36111111111111,24.791666666666664,105.55555555555557,-17.291666666666668,133.33333333333334,-15C161.11111111111111,-12.708333333333334,172.22222222222223,43.291666666666664,200,41C227.77777777777777,38.708333333333336,238.8888888888889,-24.333333333333332,266.6666666666667,-26C294.44444444444446,-27.666666666666668,305.5555555555556,28.416666666666668,333.33333333333337,33C361.11111111111114,37.583333333333336,372.22222222222223,-2.75,400,-4C427.77777777777777,-5.25,438.8888888888889,27.416666666666668,466.6666666666667,27C494.44444444444446,26.583333333333332,505.5555555555556,-9.75,533.3333333333334,-6C561.1111111111111,-2.25,572.2222222222222,44.791666666666664,600,45C627.7777777777778,45.208333333333336,638.8888888888889,-4.583333333333333,666.6666666666667,-5C694.4444444444446,-5.416666666666667,707.6388888888889,39.875,733.3333333333334,43C759.0277777777778,46.125,778.1944444444445,16.875,790,10" transform="matrix(1,0,0,1,0,665)"></path><path d="M10,10C21.805555555555557,14.166666666666668,40.97222222222223,35.208333333333336,66.66666666666667,30C92.36111111111111,24.791666666666664,105.55555555555557,-17.291666666666668,133.33333333333334,-15C161.11111111111111,-12.708333333333334,172.22222222222223,43.291666666666664,200,41C227.77777777777777,38.708333333333336,238.8888888888889,-24.333333333333332,266.6666666666667,-26C294.44444444444446,-27.666666666666668,305.5555555555556,28.416666666666668,333.33333333333337,33C361.11111111111114,37.583333333333336,372.22222222222223,-2.75,400,-4C427.77777777777777,-5.25,438.8888888888889,27.416666666666668,466.6666666666667,27C494.44444444444446,26.583333333333332,505.5555555555556,-9.75,533.3333333333334,-6C561.1111111111111,-2.25,572.2222222222222,44.791666666666664,600,45C627.7777777777778,45.208333333333336,638.8888888888889,-4.583333333333333,666.6666666666667,-5C694.4444444444446,-5.416666666666667,707.6388888888889,39.875,733.3333333333334,43C759.0277777777778,46.125,778.1944444444445,16.875,790,10" transform="matrix(1,0,0,1,0,630)"></path><path d="M10,10C21.805555555555557,14.166666666666668,40.97222222222223,35.208333333333336,66.66666666666667,30C92.36111111111111,24.791666666666664,105.55555555555557,-17.291666666666668,133.33333333333334,-15C161.11111111111111,-12.708333333333334,172.22222222222223,43.291666666666664,200,41C227.77777777777777,38.708333333333336,238.8888888888889,-24.333333333333332,266.6666666666667,-26C294.44444444444446,-27.666666666666668,305.5555555555556,28.416666666666668,333.33333333333337,33C361.11111111111114,37.583333333333336,372.22222222222223,-2.75,400,-4C427.77777777777777,-5.25,438.8888888888889,27.416666666666668,466.6666666666667,27C494.44444444444446,26.583333333333332,505.5555555555556,-9.75,533.3333333333334,-6C561.1111111111111,-2.25,572.2222222222222,44.791666666666664,600,45C627.7777777777778,45.208333333333336,638.8888888888889,-4.583333333333333,666.6666666666667,-5C694.4444444444446,-5.416666666666667,707.6388888888889,39.875,733.3333333333334,43C759.0277777777778,46.125,778.1944444444445,16.875,790,10" transform="matrix(1,0,0,1,0,595)"></path><path d="M10,10C21.805555555555557,14.166666666666668,40.97222222222223,35.208333333333336,66.66666666666667,30C92.36111111111111,24.791666666666664,105.55555555555557,-17.291666666666668,133.33333333333334,-15C161.11111111111111,-12.708333333333334,172.22222222222223,43.291666666666664,200,41C227.77777777777777,38.708333333333336,238.8888888888889,-24.333333333333332,266.6666666666667,-26C294.44444444444446,-27.666666666666668,305.5555555555556,28.416666666666668,333.33333333333337,33C361.11111111111114,37.583333333333336,372.22222222222223,-2.75,400,-4C427.77777777777777,-5.25,438.8888888888889,27.416666666666668,466.6666666666667,27C494.44444444444446,26.583333333333332,505.5555555555556,-9.75,533.3333333333334,-6C561.1111111111111,-2.25,572.2222222222222,44.791666666666664,600,45C627.7777777777778,45.208333333333336,638.8888888888889,-4.583333333333333,666.6666666666667,-5C694.4444444444446,-5.416666666666667,707.6388888888889,39.875,733.3333333333334,43C759.0277777777778,46.125,778.1944444444445,16.875,790,10" transform="matrix(1,0,0,1,0,560)"></path><path d="M10,10C21.805555555555557,14.166666666666668,40.97222222222223,35.208333333333336,66.66666666666667,30C92.36111111111111,24.791666666666664,105.55555555555557,-17.291666666666668,133.33333333333334,-15C161.11111111111111,-12.708333333333334,172.22222222222223,43.291666666666664,200,41C227.77777777777777,38.708333333333336,238.8888888888889,-24.333333333333332,266.6666666666667,-26C294.44444444444446,-27.666666666666668,305.5555555555556,28.416666666666668,333.33333333333337,33C361.11111111111114,37.583333333333336,372.22222222222223,-2.75,400,-4C427.77777777777777,-5.25,438.8888888888889,27.416666666666668,466.6666666666667,27C494.44444444444446,26.583333333333332,505.5555555555556,-9.75,533.3333333333334,-6C561.1111111111111,-2.25,572.2222222222222,44.791666666666664,600,45C627.7777777777778,45.208333333333336,638.8888888888889,-4.583333333333333,666.6666666666667,-5C694.4444444444446,-5.416666666666667,707.6388888888889,39.875,733.3333333333334,43C759.0277777777778,46.125,778.1944444444445,16.875,790,10" transform="matrix(1,0,0,1,0,525)"></path><path d="M10,10C21.805555555555557,14.166666666666668,40.97222222222223,35.208333333333336,66.66666666666667,30C92.36111111111111,24.791666666666664,105.55555555555557,-17.291666666666668,133.33333333333334,-15C161.11111111111111,-12.708333333333334,172.22222222222223,43.291666666666664,200,41C227.77777777777777,38.708333333333336,238.8888888888889,-24.333333333333332,266.6666666666667,-26C294.44444444444446,-27.666666666666668,305.5555555555556,28.416666666666668,333.33333333333337,33C361.11111111111114,37.583333333333336,372.22222222222223,-2.75,400,-4C427.77777777777777,-5.25,438.8888888888889,27.416666666666668,466.6666666666667,27C494.44444444444446,26.583333333333332,505.5555555555556,-9.75,533.3333333333334,-6C561.1111111111111,-2.25,572.2222222222222,44.791666666666664,600,45C627.7777777777778,45.208333333333336,638.8888888888889,-4.583333333333333,666.6666666666667,-5C694.4444444444446,-5.416666666666667,707.6388888888889,39.875,733.3333333333334,43C759.0277777777778,46.125,778.1944444444445,16.875,790,10" transform="matrix(1,0,0,1,0,490)"></path><path d="M10,10C21.805555555555557,14.166666666666668,40.97222222222223,35.208333333333336,66.66666666666667,30C92.36111111111111,24.791666666666664,105.55555555555557,-17.291666666666668,133.33333333333334,-15C161.11111111111111,-12.708333333333334,172.22222222222223,43.291666666666664,200,41C227.77777777777777,38.708333333333336,238.8888888888889,-24.333333333333332,266.6666666666667,-26C294.44444444444446,-27.666666666666668,305.5555555555556,28.416666666666668,333.33333333333337,33C361.11111111111114,37.583333333333336,372.22222222222223,-2.75,400,-4C427.77777777777777,-5.25,438.8888888888889,27.416666666666668,466.6666666666667,27C494.44444444444446,26.583333333333332,505.5555555555556,-9.75,533.3333333333334,-6C561.1111111111111,-2.25,572.2222222222222,44.791666666666664,600,45C627.7777777777778,45.208333333333336,638.8888888888889,-4.583333333333333,666.6666666666667,-5C694.4444444444446,-5.416666666666667,707.6388888888889,39.875,733.3333333333334,43C759.0277777777778,46.125,778.1944444444445,16.875,790,10" transform="matrix(1,0,0,1,0,455)"></path><path d="M10,10C21.805555555555557,14.166666666666668,40.97222222222223,35.208333333333336,66.66666666666667,30C92.36111111111111,24.791666666666664,105.55555555555557,-17.291666666666668,133.33333333333334,-15C161.11111111111111,-12.708333333333334,172.22222222222223,43.291666666666664,200,41C227.77777777777777,38.708333333333336,238.8888888888889,-24.333333333333332,266.6666666666667,-26C294.44444444444446,-27.666666666666668,305.5555555555556,28.416666666666668,333.33333333333337,33C361.11111111111114,37.583333333333336,372.22222222222223,-2.75,400,-4C427.77777777777777,-5.25,438.8888888888889,27.416666666666668,466.6666666666667,27C494.44444444444446,26.583333333333332,505.5555555555556,-9.75,533.3333333333334,-6C561.1111111111111,-2.25,572.2222222222222,44.791666666666664,600,45C627.7777777777778,45.208333333333336,638.8888888888889,-4.583333333333333,666.6666666666667,-5C694.4444444444446,-5.416666666666667,707.6388888888889,39.875,733.3333333333334,43C759.0277777777778,46.125,778.1944444444445,16.875,790,10" transform="matrix(1,0,0,1,0,420)"></path><path d="M10,10C21.805555555555557,14.166666666666668,40.97222222222223,35.208333333333336,66.66666666666667,30C92.36111111111111,24.791666666666664,105.55555555555557,-17.291666666666668,133.33333333333334,-15C161.11111111111111,-12.708333333333334,172.22222222222223,43.291666666666664,200,41C227.77777777777777,38.708333333333336,238.8888888888889,-24.333333333333332,266.6666666666667,-26C294.44444444444446,-27.666666666666668,305.5555555555556,28.416666666666668,333.33333333333337,33C361.11111111111114,37.583333333333336,372.22222222222223,-2.75,400,-4C427.77777777777777,-5.25,438.8888888888889,27.416666666666668,466.6666666666667,27C494.44444444444446,26.583333333333332,505.5555555555556,-9.75,533.3333333333334,-6C561.1111111111111,-2.25,572.2222222222222,44.791666666666664,600,45C627.7777777777778,45.208333333333336,638.8888888888889,-4.583333333333333,666.6666666666667,-5C694.4444444444446,-5.416666666666667,707.6388888888889,39.875,733.3333333333334,43C759.0277777777778,46.125,778.1944444444445,16.875,790,10" transform="matrix(1,0,0,1,0,385)"></path><path d="M10,10C21.805555555555557,14.166666666666668,40.97222222222223,35.208333333333336,66.66666666666667,30C92.36111111111111,24.791666666666664,105.55555555555557,-17.291666666666668,133.33333333333334,-15C161.11111111111111,-12.708333333333334,172.22222222222223,43.291666666666664,200,41C227.77777777777777,38.708333333333336,238.8888888888889,-24.333333333333332,266.6666666666667,-26C294.44444444444446,-27.666666666666668,305.5555555555556,28.416666666666668,333.33333333333337,33C361.11111111111114,37.583333333333336,372.22222222222223,-2.75,400,-4C427.77777777777777,-5.25,438.8888888888889,27.416666666666668,466.6666666666667,27C494.44444444444446,26.583333333333332,505.5555555555556,-9.75,533.3333333333334,-6C561.1111111111111,-2.25,572.2222222222222,44.791666666666664,600,45C627.7777777777778,45.208333333333336,638.8888888888889,-4.583333333333333,666.6666666666667,-5C694.4444444444446,-5.416666666666667,707.6388888888889,39.875,733.3333333333334,43C759.0277777777778,46.125,778.1944444444445,16.875,790,10" transform="matrix(1,0,0,1,0,350)"></path><path d="M10,10C21.805555555555557,14.166666666666668,40.97222222222223,35.208333333333336,66.66666666666667,30C92.36111111111111,24.791666666666664,105.55555555555557,-17.291666666666668,133.33333333333334,-15C161.11111111111111,-12.708333333333334,172.22222222222223,43.291666666666664,200,41C227.77777777777777,38.708333333333336,238.8888888888889,-24.333333333333332,266.6666666666667,-26C294.44444444444446,-27.666666666666668,305.5555555555556,28.416666666666668,333.33333333333337,33C361.11111111111114,37.583333333333336,372.22222222222223,-2.75,400,-4C427.77777777777777,-5.25,438.8888888888889,27.416666666666668,466.6666666666667,27C494.44444444444446,26.583333333333332,505.5555555555556,-9.75,533.3333333333334,-6C561.1111111111111,-2.25,572.2222222222222,44.791666666666664,600,45C627.7777777777778,45.208333333333336,638.8888888888889,-4.583333333333333,666.6666666666667,-5C694.4444444444446,-5.416666666666667,707.6388888888889,39.875,733.3333333333334,43C759.0277777777778,46.125,778.1944444444445,16.875,790,10" transform="matrix(1,0,0,1,0,315)"></path><path d="M10,10C21.805555555555557,14.166666666666668,40.97222222222223,35.208333333333336,66.66666666666667,30C92.36111111111111,24.791666666666664,105.55555555555557,-17.291666666666668,133.33333333333334,-15C161.11111111111111,-12.708333333333334,172.22222222222223,43.291666666666664,200,41C227.77777777777777,38.708333333333336,238.8888888888889,-24.333333333333332,266.6666666666667,-26C294.44444444444446,-27.666666666666668,305.5555555555556,28.416666666666668,333.33333333333337,33C361.11111111111114,37.583333333333336,372.22222222222223,-2.75,400,-4C427.77777777777777,-5.25,438.8888888888889,27.416666666666668,466.6666666666667,27C494.44444444444446,26.583333333333332,505.5555555555556,-9.75,533.3333333333334,-6C561.1111111111111,-2.25,572.2222222222222,44.791666666666664,600,45C627.7777777777778,45.208333333333336,638.8888888888889,-4.583333333333333,666.6666666666667,-5C694.4444444444446,-5.416666666666667,707.6388888888889,39.875,733.3333333333334,43C759.0277777777778,46.125,778.1944444444445,16.875,790,10" transform="matrix(1,0,0,1,0,280)"></path><path d="M10,10C21.805555555555557,14.166666666666668,40.97222222222223,35.208333333333336,66.66666666666667,30C92.36111111111111,24.791666666666664,105.55555555555557,-17.291666666666668,133.33333333333334,-15C161.11111111111111,-12.708333333333334,172.22222222222223,43.291666666666664,200,41C227.77777777777777,38.708333333333336,238.8888888888889,-24.333333333333332,266.6666666666667,-26C294.44444444444446,-27.666666666666668,305.5555555555556,28.416666666666668,333.33333333333337,33C361.11111111111114,37.583333333333336,372.22222222222223,-2.75,400,-4C427.77777777777777,-5.25,438.8888888888889,27.416666666666668,466.6666666666667,27C494.44444444444446,26.583333333333332,505.5555555555556,-9.75,533.3333333333334,-6C561.1111111111111,-2.25,572.2222222222222,44.791666666666664,600,45C627.7777777777778,45.208333333333336,638.8888888888889,-4.583333333333333,666.6666666666667,-5C694.4444444444446,-5.416666666666667,707.6388888888889,39.875,733.3333333333334,43C759.0277777777778,46.125,778.1944444444445,16.875,790,10" transform="matrix(1,0,0,1,0,245)"></path><path d="M10,10C21.805555555555557,14.166666666666668,40.97222222222223,35.208333333333336,66.66666666666667,30C92.36111111111111,24.791666666666664,105.55555555555557,-17.291666666666668,133.33333333333334,-15C161.11111111111111,-12.708333333333334,172.22222222222223,43.291666666666664,200,41C227.77777777777777,38.708333333333336,238.8888888888889,-24.333333333333332,266.6666666666667,-26C294.44444444444446,-27.666666666666668,305.5555555555556,28.416666666666668,333.33333333333337,33C361.11111111111114,37.583333333333336,372.22222222222223,-2.75,400,-4C427.77777777777777,-5.25,438.8888888888889,27.416666666666668,466.6666666666667,27C494.44444444444446,26.583333333333332,505.5555555555556,-9.75,533.3333333333334,-6C561.1111111111111,-2.25,572.2222222222222,44.791666666666664,600,45C627.7777777777778,45.208333333333336,638.8888888888889,-4.583333333333333,666.6666666666667,-5C694.4444444444446,-5.416666666666667,707.6388888888889,39.875,733.3333333333334,43C759.0277777777778,46.125,778.1944444444445,16.875,790,10" transform="matrix(1,0,0,1,0,210)"></path><path d="M10,10C21.805555555555557,14.166666666666668,40.97222222222223,35.208333333333336,66.66666666666667,30C92.36111111111111,24.791666666666664,105.55555555555557,-17.291666666666668,133.33333333333334,-15C161.11111111111111,-12.708333333333334,172.22222222222223,43.291666666666664,200,41C227.77777777777777,38.708333333333336,238.8888888888889,-24.333333333333332,266.6666666666667,-26C294.44444444444446,-27.666666666666668,305.5555555555556,28.416666666666668,333.33333333333337,33C361.11111111111114,37.583333333333336,372.22222222222223,-2.75,400,-4C427.77777777777777,-5.25,438.8888888888889,27.416666666666668,466.6666666666667,27C494.44444444444446,26.583333333333332,505.5555555555556,-9.75,533.3333333333334,-6C561.1111111111111,-2.25,572.2222222222222,44.791666666666664,600,45C627.7777777777778,45.208333333333336,638.8888888888889,-4.583333333333333,666.6666666666667,-5C694.4444444444446,-5.416666666666667,707.6388888888889,39.875,733.3333333333334,43C759.0277777777778,46.125,778.1944444444445,16.875,790,10" transform="matrix(1,0,0,1,0,175)"></path><path d="M10,10C21.805555555555557,14.166666666666668,40.97222222222223,35.208333333333336,66.66666666666667,30C92.36111111111111,24.791666666666664,105.55555555555557,-17.291666666666668,133.33333333333334,-15C161.11111111111111,-12.708333333333334,172.22222222222223,43.291666666666664,200,41C227.77777777777777,38.708333333333336,238.8888888888889,-24.333333333333332,266.6666666666667,-26C294.44444444444446,-27.666666666666668,305.5555555555556,28.416666666666668,333.33333333333337,33C361.11111111111114,37.583333333333336,372.22222222222223,-2.75,400,-4C427.77777777777777,-5.25,438.8888888888889,27.416666666666668,466.6666666666667,27C494.44444444444446,26.583333333333332,505.5555555555556,-9.75,533.3333333333334,-6C561.1111111111111,-2.25,572.2222222222222,44.791666666666664,600,45C627.7777777777778,45.208333333333336,638.8888888888889,-4.583333333333333,666.6666666666667,-5C694.4444444444446,-5.416666666666667,707.6388888888889,39.875,733.3333333333334,43C759.0277777777778,46.125,778.1944444444445,16.875,790,10" transform="matrix(1,0,0,1,0,140)"></path><path d="M10,10C21.805555555555557,14.166666666666668,40.97222222222223,35.208333333333336,66.66666666666667,30C92.36111111111111,24.791666666666664,105.55555555555557,-17.291666666666668,133.33333333333334,-15C161.11111111111111,-12.708333333333334,172.22222222222223,43.291666666666664,200,41C227.77777777777777,38.708333333333336,238.8888888888889,-24.333333333333332,266.6666666666667,-26C294.44444444444446,-27.666666666666668,305.5555555555556,28.416666666666668,333.33333333333337,33C361.11111111111114,37.583333333333336,372.22222222222223,-2.75,400,-4C427.77777777777777,-5.25,438.8888888888889,27.416666666666668,466.6666666666667,27C494.44444444444446,26.583333333333332,505.5555555555556,-9.75,533.3333333333334,-6C561.1111111111111,-2.25,572.2222222222222,44.791666666666664,600,45C627.7777777777778,45.208333333333336,638.8888888888889,-4.583333333333333,666.6666666666667,-5C694.4444444444446,-5.416666666666667,707.6388888888889,39.875,733.3333333333334,43C759.0277777777778,46.125,778.1944444444445,16.875,790,10" transform="matrix(1,0,0,1,0,105)"></path><path d="M10,10C21.805555555555557,14.166666666666668,40.97222222222223,35.208333333333336,66.66666666666667,30C92.36111111111111,24.791666666666664,105.55555555555557,-17.291666666666668,133.33333333333334,-15C161.11111111111111,-12.708333333333334,172.22222222222223,43.291666666666664,200,41C227.77777777777777,38.708333333333336,238.8888888888889,-24.333333333333332,266.6666666666667,-26C294.44444444444446,-27.666666666666668,305.5555555555556,28.416666666666668,333.33333333333337,33C361.11111111111114,37.583333333333336,372.22222222222223,-2.75,400,-4C427.77777777777777,-5.25,438.8888888888889,27.416666666666668,466.6666666666667,27C494.44444444444446,26.583333333333332,505.5555555555556,-9.75,533.3333333333334,-6C561.1111111111111,-2.25,572.2222222222222,44.791666666666664,600,45C627.7777777777778,45.208333333333336,638.8888888888889,-4.583333333333333,666.6666666666667,-5C694.4444444444446,-5.416666666666667,707.6388888888889,39.875,733.3333333333334,43C759.0277777777778,46.125,778.1944444444445,16.875,790,10" transform="matrix(1,0,0,1,0,70)"></path><path d="M10,10C21.805555555555557,14.166666666666668,40.97222222222223,35.208333333333336,66.66666666666667,30C92.36111111111111,24.791666666666664,105.55555555555557,-17.291666666666668,133.33333333333334,-15C161.11111111111111,-12.708333333333334,172.22222222222223,43.291666666666664,200,41C227.77777777777777,38.708333333333336,238.8888888888889,-24.333333333333332,266.6666666666667,-26C294.44444444444446,-27.666666666666668,305.5555555555556,28.416666666666668,333.33333333333337,33C361.11111111111114,37.583333333333336,372.22222222222223,-2.75,400,-4C427.77777777777777,-5.25,438.8888888888889,27.416666666666668,466.6666666666667,27C494.44444444444446,26.583333333333332,505.5555555555556,-9.75,533.3333333333334,-6C561.1111111111111,-2.25,572.2222222222222,44.791666666666664,600,45C627.7777777777778,45.208333333333336,638.8888888888889,-4.583333333333333,666.6666666666667,-5C694.4444444444446,-5.416666666666667,707.6388888888889,39.875,733.3333333333334,43C759.0277777777778,46.125,778.1944444444445,16.875,790,10" transform="matrix(1,0,0,1,0,35)"></path></g></svg>