<!DOCTYPE svg PUBLIC "-//W3C//DTD SVG 1.1//EN" "http://www.w3.org/Graphics/SVG/1.1/DTD/svg11.dtd">
<!-- Uploaded to: SVG Repo, www.svgrepo.com, Transformed by: SVG Repo Mixer Tools -->
<svg fill="#ffffff" width="800px" height="800px" viewBox="0 0 32 32" version="1.1" xmlns="http://www.w3.org/2000/svg" stroke="#ffffff">
<g id="SVGRepo_bgCarrier" stroke-width="0"/>
<g id="SVGRepo_tracerCarrier" stroke-linecap="round" stroke-linejoin="round"/>
<g id="SVGRepo_iconCarrier"> <title>wifi-exclamation</title> <path d="M16 21.25c-2.071 0-3.75 1.679-3.75 3.75s1.679 3.75 3.75 3.75c2.071 0 3.75-1.679 3.75-3.75v0c-0.002-2.070-1.68-3.748-3.75-3.75h-0zM16 27.25c-1.243 0-2.25-1.007-2.25-2.25s1.007-2.25 2.25-2.25c1.243 0 2.25 1.007 2.25 2.25v0c-0.002 1.242-1.008 2.248-2.25 2.25h-0zM30.529 9.47c-2.826-2.653-6.312-4.635-10.186-5.672l-0.168-0.038c-0.051-0.012-0.11-0.019-0.17-0.019-0.352 0-0.649 0.241-0.733 0.567l-0.001 0.005c-0.013 0.053-0.021 0.114-0.021 0.176 0 0.351 0.242 0.646 0.569 0.727l0.005 0.001c3.759 1.023 7.003 2.864 9.661 5.328l-0.015-0.014c0.136 0.135 0.323 0.219 0.529 0.219 0.414 0 0.75-0.336 0.75-0.75 0-0.207-0.084-0.395-0.22-0.531l-0-0zM12.729 4.313c-0.083-0.332-0.378-0.573-0.729-0.573-0.062 0-0.122 0.008-0.18 0.022l0.005-0.001c-4.041 1.076-7.528 3.058-10.367 5.722l0.013-0.012c-0.14 0.136-0.227 0.327-0.227 0.538 0 0.414 0.336 0.75 0.75 0.75 0.211 0 0.401-0.087 0.537-0.227l0-0c2.642-2.453 5.886-4.294 9.486-5.276l0.16-0.037c0.332-0.081 0.574-0.376 0.574-0.727 0-0.063-0.008-0.124-0.022-0.182l0.001 0.005zM20.238 12.825c-0.071-0.025-0.153-0.039-0.238-0.039-0.414 0-0.75 0.336-0.75 0.75 0 0.329 0.212 0.608 0.506 0.709l0.005 0.002c2.214 0.786 4.116 1.953 5.72 3.437l-0.011-0.010c0.136 0.136 0.323 0.22 0.53 0.22 0.414 0 0.75-0.336 0.75-0.75 0-0.207-0.084-0.395-0.22-0.531v0c-1.75-1.639-3.848-2.93-6.17-3.749l-0.123-0.038zM12.711 13.298c-0.102-0.3-0.382-0.512-0.711-0.512-0.085 0-0.167 0.014-0.244 0.041l0.005-0.002c-2.444 0.856-4.542 2.148-6.302 3.796l0.010-0.009c-0.131 0.135-0.213 0.32-0.213 0.523 0 0.414 0.336 0.75 0.75 0.75 0.203 0 0.387-0.081 0.522-0.212l-0 0c1.593-1.474 3.495-2.64 5.595-3.391l0.114-0.036c0.3-0.103 0.512-0.382 0.512-0.711 0-0.085-0.014-0.167-0.040-0.244l0.002 0.005zM16 18.305c0.414-0 0.75-0.336 0.75-0.75v0-15.555c0-0.414-0.336-0.75-0.75-0.75s-0.75 0.336-0.75 0.75v0 15.555c0 0.414 0.336 0.75 0.75 0.75v0z"/> </g>
</svg>